<svg width="99" height="99" viewBox="0 0 99 99" fill="none" xmlns="http://www.w3.org/2000/svg">
<path d="M49.5 85.3343C42.8649 85.3236 36.3536 83.535 30.6443 80.1546C24.9348 76.7737 20.2358 71.9248 17.0362 66.1118C14.604 61.7806 13.1008 56.9902 12.6225 52.0456C11.8675 44.7942 13.2644 37.4811 16.6387 31.0183C20.0131 24.5557 25.2157 19.2295 31.5975 15.7044C35.9288 13.2723 40.7193 11.7691 45.6637 11.2907C50.5894 10.7608 55.5716 11.238 60.3075 12.6932C60.7299 12.7776 61.1304 12.9494 61.4827 13.1976C61.835 13.4458 62.1316 13.7649 62.3535 14.1344C62.5754 14.5039 62.7177 14.9157 62.7714 15.3433C62.8246 15.771 62.7883 16.2051 62.6641 16.6178C62.54 17.0306 62.3308 17.4129 62.0503 17.7401C61.7698 18.0674 61.4241 18.3324 61.0356 18.5183C60.6466 18.7041 60.2229 18.8067 59.7923 18.8194C59.3616 18.8321 58.9326 18.7546 58.5337 18.5919C54.5267 17.3871 50.3196 16.9944 46.1587 17.4369C42.0461 17.8581 38.0611 19.1068 34.4437 21.1082C30.9586 23.0309 27.8773 25.608 25.3687 28.6982C22.7859 31.8462 20.8572 35.478 19.6955 39.3808C18.5339 43.2837 18.1627 47.379 18.6037 51.4268C19.0248 55.5394 20.2736 59.5246 22.275 63.1418C24.1976 66.627 26.7747 69.7084 29.865 72.2168C33.013 74.7999 36.6447 76.7283 40.5475 77.8899C44.4502 79.0515 48.5455 79.4228 52.5937 78.9818C56.7064 78.5607 60.6911 77.312 64.3088 75.3106C67.794 73.3879 70.8749 70.811 73.3838 67.7206C75.9664 64.5728 77.8953 60.9407 79.0569 57.0381C80.2185 53.1354 80.5897 49.0401 80.1488 44.9918C80.1079 44.5665 80.1516 44.1375 80.2766 43.7292C80.402 43.3208 80.6062 42.9409 80.8785 42.6117C81.1503 42.2821 81.4844 42.0094 81.8619 41.8094C82.2393 41.6089 82.6522 41.4852 83.0775 41.4443C83.5028 41.4039 83.9318 41.4472 84.3402 41.5726C84.7485 41.6976 85.1284 41.9022 85.4576 42.174C85.7872 42.4459 86.0599 42.7804 86.2599 43.1574C86.4604 43.5349 86.5842 43.9478 86.625 44.3731C87.3762 51.6289 85.9733 58.945 82.5912 65.4085C79.2091 71.8716 73.998 77.1953 67.6087 80.7143C63.2313 83.2462 58.3667 84.8208 53.3363 85.3343C52.0575 85.3343 50.7375 85.3343 49.5 85.3343Z" fill="#D11112"/>
<path d="M36 62.7764L63.7838 34.0003" stroke="#D11112" stroke-width="5" stroke-linecap="round"/>
<path d="M35 35L65.2276 61.1972" stroke="#D11112" stroke-width="5" stroke-linecap="round"/>
</svg>
