<svg width="75" height="75" viewBox="0 0 75 75" fill="none" xmlns="http://www.w3.org/2000/svg">
<path d="M31.3124 50.6163C30.5163 50.5557 29.7762 50.1853 29.2498 49.5851L16.8748 37.2101C16.5991 36.633 16.5091 35.9845 16.6173 35.3538C16.7255 34.7231 17.0265 34.1419 17.4789 33.6894C17.9313 33.2369 18.5128 32.9358 19.1433 32.8277C19.7739 32.7196 20.4225 32.8095 20.9998 33.0851L31.1886 43.2738L66.3749 8.33525C66.952 8.05953 67.6008 7.96957 68.2311 8.07777C68.8618 8.18597 69.4435 8.48697 69.8956 8.93936C70.3481 9.39174 70.6492 9.97325 70.7573 10.6038C70.8654 11.2344 70.7754 11.883 70.4999 12.4602L33.3749 49.5851C32.8485 50.1853 32.1081 50.5557 31.3124 50.6163Z" fill="#75BA55"/>
<path d="M37.5 74.3343C30.8649 74.3236 24.3536 72.535 18.6443 69.1546C12.9348 65.7737 8.23585 60.9248 5.03621 55.1118C2.60403 50.7806 1.10084 45.9902 0.622459 41.0456C-0.132498 33.7942 1.26435 26.4811 4.63872 20.0183C8.01314 13.5557 13.2157 8.22955 19.5975 4.70445C23.9288 2.27227 28.7193 0.769076 33.6637 0.2907C38.5894 -0.239197 43.5716 0.237982 48.3075 1.6932C48.7299 1.77764 49.1304 1.94945 49.4827 2.19765C49.835 2.44581 50.1316 2.76487 50.3535 3.13439C50.5754 3.50387 50.7177 3.91567 50.7714 4.34335C50.8246 4.77098 50.7883 5.2051 50.6641 5.61785C50.54 6.0306 50.3308 6.41286 50.0503 6.7401C49.7698 7.06737 49.4241 7.33244 49.0356 7.51828C48.6466 7.70415 48.2229 7.8067 47.7923 7.81936C47.3616 7.83207 46.9326 7.7546 46.5337 7.59195C42.5267 6.38712 38.3196 5.99442 34.1587 6.43695C30.0461 6.85807 26.0611 8.10683 22.4437 10.1082C18.9586 12.0309 15.8773 14.608 13.3687 17.6982C10.7859 20.8462 8.85716 24.478 7.69552 28.3808C6.53392 32.2837 6.16271 36.379 6.60371 40.4268C7.02483 44.5394 8.27363 48.5246 10.275 52.1418C12.1976 55.627 14.7747 58.7084 17.865 61.2168C21.013 63.7999 24.6447 65.7283 28.5475 66.8899C32.4502 68.0515 36.5455 68.4228 40.5938 67.9818C44.7064 67.5607 48.6911 66.312 52.3088 64.3106C55.794 62.3879 58.8749 59.811 61.3838 56.7206C63.9664 53.5728 65.8953 49.9407 67.0569 46.0381C68.2185 42.1354 68.5897 38.0401 68.1488 33.9918C68.1079 33.5665 68.1516 33.1375 68.2766 32.7292C68.402 32.3208 68.6062 31.9409 68.8785 31.6117C69.1503 31.2821 69.4844 31.0094 69.8619 30.8094C70.2393 30.6089 70.6522 30.4852 71.0775 30.4443C71.5028 30.4039 71.9318 30.4472 72.3402 30.5726C72.7485 30.6976 73.1284 30.9022 73.4576 31.174C73.7872 31.4459 74.0599 31.7804 74.2599 32.1574C74.4604 32.5349 74.5842 32.9478 74.625 33.3731C75.3762 40.6289 73.9733 47.945 70.5912 54.4085C67.2091 60.8716 61.998 66.1953 55.6087 69.7143C51.2313 72.2462 46.3667 73.8208 41.3363 74.3343C40.0575 74.3343 38.7375 74.3343 37.5 74.3343Z" fill="#75BA55"/>
</svg>
