<?xml version="1.0" standalone="no"?>
<!DOCTYPE svg PUBLIC "-//W3C//DTD SVG 20010904//EN"
 "http://www.w3.org/TR/2001/REC-SVG-20010904/DTD/svg10.dtd">
<svg version="1.0" xmlns="http://www.w3.org/2000/svg"
 width="504.000000pt" height="495.000000pt" viewBox="0 0 504.000000 495.000000"
 preserveAspectRatio="xMidYMid meet">

<g transform="translate(0.000000,495.000000) scale(0.100000,-0.100000)"
fill="#ffffff" stroke="none">
<path d="M2220 4470 c-241 -32 -436 -92 -649 -199 -92 -45 -247 -141 -302
-185 -14 -12 -43 -34 -65 -50 -61 -46 -285 -274 -335 -341 -203 -275 -320
-528 -383 -830 -86 -407 -48 -830 109 -1214 29 -70 124 -256 154 -300 10 -14
34 -50 54 -80 60 -89 194 -246 279 -326 228 -214 507 -378 798 -468 507 -157
1062 -112 1525 123 146 74 172 90 288 174 216 157 408 363 549 589 115 183
212 433 265 677 25 117 27 142 27 390 1 240 -1 275 -22 375 -78 373 -220 675
-441 940 -279 334 -614 550 -1046 674 -237 68 -536 87 -805 51z m500 -70 c446
-54 865 -259 1172 -572 249 -254 417 -547 506 -883 72 -267 85 -545 41 -835
-18 -122 -98 -392 -138 -467 -5 -10 -28 -55 -50 -101 -35 -70 -92 -162 -200
-320 -48 -72 -306 -319 -406 -389 -247 -174 -520 -291 -791 -338 -440 -77
-862 -17 -1250 178 -307 153 -590 408 -773 695 -60 95 -163 297 -181 357 -7
22 -18 54 -26 70 -24 55 -65 215 -80 318 -17 113 -32 304 -28 351 1 17 5 72 8
122 33 484 268 974 620 1293 74 67 84 76 111 99 93 80 329 220 481 285 132 56
339 111 494 132 119 16 378 18 490 5z"/>
<path d="M2175 4304 c-393 -68 -744 -249 -1016 -523 -109 -110 -235 -270 -294
-376 -9 -16 -27 -48 -40 -70 -14 -22 -27 -47 -31 -55 -3 -8 -12 -28 -19 -45
-66 -152 -91 -227 -124 -366 -156 -656 50 -1343 544 -1811 69 -65 98 -89 192
-158 26 -19 50 -37 53 -41 3 -3 21 -14 40 -25 19 -10 42 -24 50 -30 17 -13
155 -84 210 -108 126 -55 331 -113 475 -134 340 -51 738 3 1033 139 35 16 66
29 69 29 2 0 52 28 111 61 288 166 510 383 689 674 114 185 192 396 244 660
37 185 27 504 -21 715 -47 207 -132 423 -219 560 -9 14 -22 34 -29 45 -7 11
-20 33 -30 48 -9 16 -30 45 -45 65 -15 21 -40 53 -55 72 -47 62 -245 253 -327
316 -413 314 -954 446 -1460 358z m-68 -83 c18 -38 -10 -81 -53 -81 -26 0 -34
6 -44 30 -10 24 -10 37 -1 56 9 21 17 25 48 22 28 -2 41 -9 50 -27z m-193 -47
c3 -9 6 -24 6 -35 0 -20 56 -172 91 -248 11 -24 19 -45 17 -46 -8 -7 -82 -35
-93 -35 -7 0 -16 12 -20 28 -11 44 -74 214 -95 255 -11 22 -17 43 -14 48 5 9
82 48 95 49 4 0 10 -7 13 -16z m542 -21 c-4 -16 -19 -75 -34 -133 l-27 -105
-50 -3 -50 -2 -24 57 c-13 32 -37 87 -53 121 -16 35 -28 65 -26 67 2 2 26 7
53 10 l50 7 13 -44 c17 -55 35 -98 43 -98 3 0 11 30 18 67 7 37 14 70 17 75 3
4 21 8 41 8 34 0 35 -1 29 -27z m252 7 c38 -23 54 -59 50 -109 l-3 -36 -62 2
c-65 3 -75 -4 -46 -32 12 -13 28 -16 60 -12 38 4 43 2 37 -12 -3 -9 -9 -24
-11 -34 -7 -22 -42 -31 -97 -23 -31 5 -52 16 -77 42 -31 32 -34 41 -34 93 1
46 6 64 25 89 43 53 103 65 158 32z m-570 -56 c4 -56 25 -149 39 -177 8 -15
11 -31 9 -36 -8 -12 -93 -34 -104 -27 -5 3 -12 31 -16 63 -3 32 -15 85 -26
117 -11 33 -20 62 -20 66 0 8 88 29 105 25 6 -1 11 -15 13 -31z m775 25 c24
-6 37 -16 37 -26 0 -13 3 -14 12 -5 16 16 57 15 63 0 3 -7 1 -26 -3 -43 -8
-28 -12 -30 -52 -30 l-44 0 -16 -77 c-8 -42 -18 -79 -22 -83 -3 -3 -29 1 -57
11 -41 13 -51 20 -45 33 18 42 54 178 54 203 0 32 12 34 73 17z m300 -103 c59
-24 79 -77 56 -145 -13 -38 -48 -42 -94 -11 -38 25 -45 25 -45 1 0 -24 36 -51
67 -51 34 0 35 -14 2 -46 l-30 -29 -55 29 c-32 17 -61 41 -70 57 -33 64 -7
149 58 189 39 23 67 25 111 6z m-1438 -56 c39 -24 61 -66 44 -86 -6 -8 -31
-23 -55 -35 -24 -12 -41 -26 -38 -31 11 -17 63 -7 92 17 25 21 31 23 36 9 20
-52 -10 -95 -82 -114 -64 -17 -106 0 -143 58 -17 26 -29 60 -29 78 0 64 57
123 119 124 13 0 38 -9 56 -20z m-338 -52 c28 -48 151 -199 186 -229 l30 -26
-51 -39 c-29 -21 -52 -42 -52 -46 0 -4 -13 -14 -30 -23 -120 -62 -234 92 -154
210 l26 38 -31 31 -31 30 42 43 c23 24 43 43 44 43 1 0 11 -15 21 -32z m2173
-10 c22 -13 40 -27 40 -32 0 -4 -17 -29 -39 -55 -49 -59 -151 -208 -151 -220
0 -23 -24 -21 -61 4 -21 15 -39 32 -39 36 0 5 -8 9 -18 9 -29 0 -63 44 -69 88
-7 54 23 104 81 131 50 25 75 26 121 7 34 -15 34 -14 55 20 12 19 26 34 31 34
6 0 28 -10 49 -22z m-875 -113 c123 -20 352 -100 417 -146 14 -10 29 -19 32
-19 11 0 88 -53 156 -106 74 -58 203 -187 253 -254 121 -161 211 -363 254
-570 24 -117 24 -398 0 -527 -32 -170 -126 -394 -213 -510 -13 -17 -24 -36
-24 -42 0 -21 -267 -278 -335 -323 -166 -108 -327 -176 -514 -214 -225 -47
-499 -29 -716 46 -339 117 -629 370 -790 690 -42 83 -102 266 -121 371 -25
130 -25 362 0 494 37 200 123 399 247 568 205 282 531 485 869 542 106 18 375
18 485 0z m-1465 -205 c52 -14 100 -68 107 -119 6 -46 -10 -96 -35 -106 -12
-5 -9 -10 16 -25 18 -11 32 -24 32 -28 0 -5 -15 -26 -33 -47 l-33 -38 -90 77
c-49 42 -108 89 -131 104 -24 15 -43 29 -43 32 0 3 18 24 40 48 21 24 42 52
45 63 7 20 49 48 75 49 8 0 31 -5 50 -10z m2338 -23 c15 -12 16 -51 2 -78 -13
-24 -62 -26 -85 -3 -24 24 -16 76 14 90 24 12 45 9 69 -9z m246 -67 c39 -19
86 -73 86 -98 0 -12 -39 -42 -55 -42 -6 0 -15 10 -20 22 -15 33 -39 44 -72 32
-55 -19 -61 -77 -11 -112 18 -13 18 -14 1 -28 -32 -24 -66 -16 -95 23 -44 58
-35 143 19 187 53 42 87 46 147 16z m-2705 -216 l90 -46 -22 -44 c-11 -24 -26
-44 -33 -44 -6 0 -9 -10 -7 -23 5 -28 -22 -54 -64 -63 -26 -5 -37 -1 -58 21
-25 24 -27 32 -23 86 3 45 1 59 -9 59 -12 0 -18 -12 -38 -68 -7 -18 -55 27
-55 51 0 25 36 83 63 102 34 24 61 18 156 -31z m2837 -13 c108 -49 122 -193
23 -243 -77 -40 -160 -13 -198 64 -26 55 -26 69 -1 118 20 39 41 56 89 71 38
11 42 10 87 -10z m-2988 -226 c41 -14 82 -25 91 -25 10 0 20 -2 23 -5 9 -9
-15 -97 -29 -102 -7 -3 -44 7 -82 22 -67 27 -107 28 -99 3 4 -12 130 -58 160
-58 22 0 22 5 0 -55 -11 -31 -24 -49 -33 -48 -8 1 -52 15 -99 32 -47 17 -95
30 -107 31 -26 0 -29 19 -12 69 7 20 18 31 31 31 18 0 19 1 2 29 -17 29 -17
30 10 65 32 43 47 44 144 11z m3166 -100 c6 -26 5 -44 -3 -56 -9 -15 -7 -20 9
-29 22 -12 28 -72 10 -100 -7 -11 -3 -20 15 -35 70 -58 27 -123 -95 -144 -41
-8 -82 -19 -92 -25 -25 -15 -37 0 -44 57 -6 45 -6 47 17 47 49 1 154 35 154
50 0 19 -41 18 -119 -4 -33 -9 -63 -13 -67 -9 -4 4 -10 29 -14 55 l-7 46 48 7
c105 15 149 34 128 55 -8 8 -76 -3 -156 -25 -24 -6 -27 -4 -37 32 -16 58 -14
73 12 73 23 0 143 26 187 40 37 12 44 8 54 -35z m-3323 -215 c-2 -8 -6 -23 -8
-32 -4 -12 0 -18 11 -18 9 0 16 3 16 8 0 14 66 52 90 52 13 0 37 -12 52 -27
22 -21 28 -36 28 -70 0 -44 -23 -103 -40 -103 -5 0 -20 4 -35 10 l-26 10 23
30 c36 49 10 57 -45 14 -40 -31 -52 -35 -81 -30 -19 4 -39 13 -46 21 -18 21
-24 95 -11 128 9 24 16 28 43 25 23 -2 32 -7 29 -18z m2769 -1345 c6 -8 22
-13 33 -12 17 1 22 -4 22 -20 0 -13 20 -42 44 -67 38 -38 42 -47 31 -61 -11
-13 -19 -9 -63 34 -39 38 -54 48 -64 39 -9 -7 -14 -6 -19 6 -4 9 -4 20 0 23 3
4 -3 17 -15 29 -21 23 -19 44 5 44 8 0 19 -7 26 -15z m-2235 -45 c60 -37 63
-117 7 -160 -69 -55 -175 28 -143 113 11 27 64 67 90 67 7 0 28 -9 46 -20z
m2254 -112 l52 -61 -20 -21 c-11 -12 -29 -31 -41 -43 -32 -37 -85 -31 -126 13
-19 19 -34 46 -34 59 0 29 46 85 70 85 10 0 20 7 24 15 9 25 20 18 75 -47z
m-2123 -13 c4 -8 12 -15 19 -15 8 0 21 -7 30 -16 24 -24 4 -41 -30 -26 -22 10
-30 9 -50 -5 -13 -10 -31 -30 -40 -45 -9 -16 -23 -28 -31 -28 -21 0 -29 27
-12 43 7 7 29 34 48 60 36 48 56 58 66 32z m274 -54 c0 -4 -25 -45 -55 -92
-30 -46 -59 -93 -64 -104 -16 -36 -37 -48 -54 -30 -9 8 -23 15 -33 15 -30 0
-64 40 -64 75 0 41 38 97 73 109 31 11 77 -9 85 -36 6 -25 17 -22 32 10 22 42
51 71 66 65 8 -3 14 -8 14 -12z m1671 -45 c17 -20 16 -22 -3 -43 -11 -12 -33
-27 -49 -33 -33 -14 -36 -25 -12 -39 23 -12 51 3 63 35 12 29 40 32 40 3 0
-34 -19 -60 -56 -75 -30 -13 -38 -13 -65 1 -32 17 -69 69 -69 98 0 25 37 71
63 78 32 9 69 -1 88 -25z m-203 -77 c31 -11 62 -65 62 -110 0 -28 -44 -69 -75
-69 -15 0 -25 -3 -23 -7 2 -5 10 -20 17 -35 15 -29 8 -62 -11 -56 -17 6 -106
187 -107 216 -1 16 5 22 19 22 11 0 23 7 27 16 5 13 34 31 54 33 3 1 20 -4 37
-10z m-1394 -30 c21 -16 26 -29 26 -64 0 -24 -4 -46 -9 -49 -5 -3 -34 5 -65
19 -43 19 -56 21 -56 11 0 -36 12 -46 56 -46 37 0 44 -3 44 -20 0 -17 -7 -20
-49 -20 -43 0 -53 4 -76 32 -33 40 -29 87 11 130 34 34 80 37 118 7z m169 -65
c27 -8 14 -29 -20 -32 -34 -3 -53 -25 -72 -84 -13 -39 -18 -43 -38 -30 -10 6
-7 26 13 86 l26 78 37 -7 c20 -3 44 -8 54 -11z m1052 -9 c36 -35 32 -52 -16
-65 -23 -6 -50 -17 -60 -23 -16 -10 -16 -12 -1 -24 25 -19 40 -16 67 13 28 30
63 27 46 -3 -29 -49 -42 -58 -87 -58 -48 0 -77 23 -90 73 -23 86 79 150 141
87z m-455 -24 c0 -16 6 -31 15 -35 17 -6 21 -36 5 -36 -6 0 -10 -30 -10 -70 0
-62 -2 -70 -19 -70 -15 0 -19 11 -25 61 -4 41 -12 66 -23 75 -17 13 -17 15 0
28 10 7 17 27 17 45 0 24 4 31 20 31 15 0 20 -7 20 -29z m280 -2 c0 -12 -8
-23 -19 -26 -27 -7 -32 -26 -21 -84 13 -68 13 -69 -8 -69 -14 0 -21 16 -35 78
-21 95 -21 92 4 92 11 0 27 7 35 15 22 21 44 18 44 -6z m-591 -45 c25 -32 27
-72 4 -81 -9 -3 -38 -2 -65 4 -42 8 -48 8 -48 -8 0 -31 27 -44 66 -30 37 13
56 8 48 -14 -9 -23 -63 -37 -100 -25 -59 20 -81 84 -47 138 24 37 32 42 80 42
33 0 46 -5 62 -26z m194 5 l28 0 -3 -86 -3 -87 -50 -3 c-75 -5 -94 3 -111 43
-32 77 16 153 86 138 14 -3 38 -5 53 -5z m-388 -30 c18 -18 -11 -31 -54 -24
-32 5 -41 11 -41 27 0 19 4 20 43 14 23 -4 46 -11 52 -17z m653 -36 c-4 -23
-73 -42 -90 -25 -22 22 -1 42 47 42 39 0 46 -3 43 -17z"/>
<path d="M2630 4095 c0 -8 9 -15 20 -15 11 0 20 7 20 15 0 8 -9 15 -20 15 -11
0 -20 -7 -20 -15z"/>
<path d="M3156 3962 c-2 -4 4 -13 15 -20 16 -11 19 -9 19 8 0 19 -24 28 -34
12z"/>
<path d="M1685 3910 c-11 -18 5 -31 26 -20 11 6 17 15 14 21 -8 12 -32 12 -40
-1z"/>
<path d="M1416 3731 c-18 -28 40 -101 79 -101 33 0 32 8 -11 63 -35 45 -57 57
-68 38z"/>
<path d="M3417 3809 c-21 -12 -56 -79 -50 -96 9 -25 32 -12 62 34 17 26 30 51
28 57 -5 15 -20 17 -40 5z"/>
<path d="M2380 3729 c-517 -38 -969 -403 -1129 -910 -41 -130 -54 -222 -54
-379 1 -165 15 -262 59 -399 86 -268 246 -489 482 -663 116 -86 345 -185 507
-220 84 -17 400 -17 490 1 158 31 354 111 471 192 57 39 187 147 225 187 86
91 145 176 212 304 226 430 186 968 -100 1357 -127 172 -300 317 -476 400
-138 65 -149 69 -257 96 -143 35 -276 46 -430 34z m374 -292 c30 -136 31 -149
11 -145 -13 2 -24 29 -43 105 -13 56 -22 109 -19 117 13 33 33 2 51 -77z m326
-5 c0 -10 -13 -38 -29 -63 -16 -24 -40 -63 -55 -86 -24 -39 -56 -58 -56 -33 0
13 26 64 50 100 9 14 28 42 41 62 26 40 49 50 49 20z m-505 -196 c44 -27 65
-46 65 -59 0 -24 -9 -21 -117 44 -45 28 -83 56 -83 63 0 23 13 26 41 8 16 -9
58 -35 94 -56z m727 -25 c29 -26 33 -35 36 -98 3 -54 -1 -81 -16 -119 -32 -76
-82 -219 -82 -232 0 -7 9 -29 20 -49 27 -51 25 -100 -7 -178 l-27 -65 24 -33
c32 -43 39 -136 16 -208 -16 -47 -16 -54 0 -95 30 -79 6 -198 -75 -369 -16
-33 -49 -79 -72 -102 -38 -36 -232 -173 -245 -173 -2 0 -22 -11 -43 -25 -52
-32 -151 -72 -231 -92 -77 -19 -397 -20 -495 -2 -171 33 -344 161 -420 312
-35 70 -52 141 -41 175 4 13 31 30 74 48 96 41 139 88 201 219 47 99 116 222
130 235 20 17 94 124 121 175 80 146 86 153 223 240 148 93 243 192 309 318
49 93 72 112 131 104 44 -6 87 -45 87 -79 0 -15 9 -18 45 -18 26 0 60 -7 77
-16 34 -18 29 -22 78 61 45 78 65 95 110 95 30 0 48 -7 72 -29z"/>
<path d="M3182 3158 c-16 -24 -41 -66 -56 -94 l-28 -51 16 -64 c16 -60 61
-140 82 -143 15 -2 93 244 93 295 1 52 -27 99 -59 99 -11 0 -31 -18 -48 -42z"/>
<path d="M2797 3157 c-9 -7 -35 -50 -59 -96 -62 -122 -158 -221 -297 -306
-123 -76 -170 -125 -229 -242 -18 -35 -46 -82 -62 -105 -72 -101 -120 -179
-165 -263 -94 -176 -124 -212 -222 -257 -79 -37 -85 -43 -77 -83 22 -122 151
-275 288 -343 49 -24 172 -62 203 -62 3 0 -15 19 -41 41 -54 47 -96 123 -99
177 -3 58 23 47 50 -22 28 -74 57 -117 99 -145 142 -98 385 -85 608 33 70 37
112 63 246 153 74 50 107 97 161 235 27 70 33 97 33 170 1 78 -1 89 -23 112
-14 15 -42 31 -64 37 -61 16 -235 14 -282 -4 -22 -8 -83 -31 -135 -50 -94 -34
-95 -35 -98 -70 -3 -30 2 -38 30 -58 51 -37 150 -38 252 -5 44 15 82 23 85 20
3 -3 6 -16 6 -27 0 -20 6 -22 68 -25 49 -2 67 -7 67 -17 0 -15 -77 -31 -110
-22 -31 8 -24 -10 25 -62 25 -26 45 -51 45 -55 0 -3 -10 -6 -22 -6 -25 0 -100
76 -118 121 -11 25 -17 29 -34 24 -42 -13 -182 -17 -222 -6 -23 6 -56 21 -75
34 l-33 22 -41 -40 c-77 -74 -207 -124 -326 -125 -38 0 -61 5 -69 15 -16 19
-7 22 90 28 109 7 207 46 276 111 37 36 54 59 54 77 0 41 26 66 78 78 27 5 71
21 99 36 28 14 57 25 64 25 7 0 10 2 7 5 -2 3 -51 -4 -108 -16 -120 -24 -198
-22 -237 7 -46 35 -65 69 -65 115 1 51 31 81 101 104 25 8 66 21 91 30 25 9
94 28 154 41 130 29 333 34 390 10 l34 -14 26 60 c14 32 26 72 26 87 0 29 -32
84 -79 136 -44 48 -88 126 -105 185 -21 75 -40 100 -77 100 -16 0 -29 -1 -29
-2 0 -2 -7 -41 -15 -88 -33 -187 -18 -247 88 -357 47 -49 56 -64 44 -69 -33
-12 -126 66 -162 137 -10 19 -19 36 -21 38 -2 2 -67 -49 -144 -114 -158 -131
-220 -164 -310 -165 -94 0 -179 34 -153 61 10 10 23 9 66 -4 74 -24 134 -22
183 6 22 12 92 63 154 112 190 151 171 126 191 256 25 158 24 220 -2 253 -29
37 -53 48 -72 33z"/>
<path d="M2795 2465 c-67 -12 -198 -51 -277 -82 -70 -28 -72 -100 -4 -143 42
-25 91 -24 220 4 53 12 99 16 140 12 34 -3 108 -10 166 -15 58 -5 118 -14 133
-20 16 -6 32 -11 37 -11 4 0 13 29 20 63 19 102 -9 168 -83 196 -38 15 -266
12 -352 -4z"/>
<path d="M1197 3485 c-9 -21 73 -87 90 -73 18 15 16 22 -13 57 -27 33 -68 41
-77 16z"/>
<path d="M1094 3179 c-10 -17 13 -36 27 -22 12 12 4 33 -11 33 -5 0 -12 -5
-16 -11z"/>
<path d="M3940 3189 c-30 -12 -59 -47 -60 -71 0 -28 50 -23 83 7 15 15 27 36
27 50 0 27 -10 29 -50 14z"/>
<path d="M1287 1292 c-22 -24 -21 -45 1 -65 47 -43 110 1 84 58 -14 31 -61 34
-85 7z"/>
<path d="M3522 1208 c-29 -29 1 -88 44 -88 28 0 44 19 44 52 0 41 -59 65 -88
36z"/>
<path d="M1566 1068 c-30 -43 -14 -78 36 -78 21 0 32 7 40 25 26 58 -40 104
-76 53z"/>
<path d="M3362 1094 c-27 -18 -29 -34 -4 -34 21 0 56 33 45 43 -9 10 -16 9
-41 -9z"/>
<path d="M3182 988 c-16 -16 -15 -49 1 -72 16 -22 65 -18 81 7 26 41 -47 100
-82 65z"/>
<path d="M1776 982 c-6 -10 64 -46 72 -37 3 2 -3 14 -13 25 -19 20 -50 27 -59
12z"/>
<path d="M2976 904 c-4 -9 -5 -18 -3 -20 7 -7 76 20 71 28 -9 15 -62 9 -68 -8z"/>
<path d="M2215 847 c-16 -13 -14 -15 26 -20 51 -7 60 -2 33 18 -24 18 -35 18
-59 2z"/>
<path d="M2404 806 c-3 -14 -3 -38 0 -52 6 -21 12 -25 39 -22 24 2 34 9 41 31
13 37 -2 61 -42 65 -26 3 -32 -1 -38 -22z"/>
</g>
</svg>
