<?xml version="1.0" encoding="utf-8"?>
<!-- Generator: Adobe Illustrator 26.0.1, SVG Export Plug-In . SVG Version: 6.00 Build 0)  -->
<svg version="1.1" id="Layer_1" xmlns="http://www.w3.org/2000/svg" xmlns:xlink="http://www.w3.org/1999/xlink" x="0px" y="0px"
	 viewBox="0 0 504 495" style="enable-background:new 0 0 504 495;" xml:space="preserve">
<style type="text/css">
	.st0{fill:#FFFFFF;}
	.st1{fill:#F25D35;}
</style>
<path d="M254.1,483.4c-129.8,0.1-235.6-105.6-235.2-236C19.3,118.4,124,12.4,255,12.8C385.2,13.3,489.7,119,489.5,248.5
	C489.3,379,383.3,483.7,254.1,483.4z M254.2,473.9C377.8,474,479.6,374,480,248.7c0.3-124.6-100.2-225.7-224.7-226.3
	C129.7,21.8,28.5,123.4,28.5,248C28.4,373.4,130.2,474,254.2,473.9z"/>
<path class="st0" d="M254.2,473.9C130.2,474,28.4,373.4,28.5,248C28.5,123.4,129.7,21.8,255.3,22.4c124.5,0.6,225,101.7,224.7,226.3
	C479.6,374,377.8,474,254.2,473.9z M254.2,465.5c119.9,0.2,217.2-97.3,217.4-217c0.2-119.3-96.3-217.4-216.7-217.8
	c-121.1-0.4-218,97.9-218.1,217.2C36.7,367.7,134,465.7,254.2,465.5z"/>
<path class="st1" d="M254.2,465.5C134,465.7,36.7,367.7,36.8,247.9c0.1-119.3,97.1-217.6,218.1-217.2
	c120.4,0.4,216.9,98.5,216.7,217.8C471.4,368.2,374.1,465.7,254.2,465.5z M254,405.7c87.6-0.1,157.6-70.6,157.7-157.3
	c0.1-88.7-72-157.6-157.2-157.7c-85-0.1-157.4,68.3-157.7,157C96.4,334.7,166.6,405.3,254,405.7z M425.3,234.9
	c0.5-0.1,0.9-0.2,1.2-0.3c2.5-1.4,5.2-2.1,7.9-2.6c3.5-0.7,7.1-1.5,10.6-2.3c1-0.2,2-0.5,2.9-0.9c2.9-1.2,4.4-3.4,4.6-6.5
	c0.2-2.9-0.3-5.6-3.4-7c-0.8-0.4-1.6-1-2.3-1.5c-0.4-0.3-0.8-0.7-1.2-1.1c0.2-0.3,0.3-0.4,0.4-0.5c3.2-2.4,3.6-5.7,2.7-9.3
	c-0.3-1.1-0.8-2-1.9-2.7c-1-0.6-2-1.3-3-2c-0.3-0.2-0.9-0.4-0.7-1.1c1.1-0.4,2.2-0.7,3.3-1.1c0-0.5,0.1-0.9,0-1.3c-0.6-3-1.3-6-2-9
	c-0.1-0.3-0.3-0.5-0.5-0.8c-0.4,0.1-0.7,0.2-1.1,0.4c-2.1,1.2-4.4,1.9-6.8,2.4c-3.3,0.7-6.5,1.4-9.8,2.1c-3.2,0.7-6.4,1.3-9.7,1
	c-0.2,0-0.3,0.2-0.6,0.3c0,0.6,0,1.2,0.2,1.8c0.7,3.2,1.4,6.4,2.1,9.5c0.1,0.2,0.3,0.4,0.5,0.7c1.6-0.6,3.1-1.4,4.7-1.9
	c2-0.6,4-1,6-1.4c3-0.7,6-1.3,9-1.9c0.3,0.3,0.7,0.6,0.8,0.9c1.5,2.8,0.4,4.5-2,5.2c-0.4,0.1-0.7,0.2-1.1,0.3
	c-2.6,0.6-5.3,1.1-7.9,1.7c-2.4,0.5-4.8,0.8-7.2,0.7c-0.5,0-1.1,0.1-1.6,0.2c-0.1,2.2,0.6,4.2,1,6.2c0.5,2,0.4,4.2,1.8,6.2
	c3-1.9,6.2-2.6,9.5-3.3c2.5-0.5,5.1-1.1,7.6-1.6c0.6-0.1,1.3-0.2,1.9-0.3c0.6-0.1,1,0.3,1.3,0.8c1.3,2.3,0.6,4.2-1.9,5
	c-0.4,0.1-0.9,0.2-1.4,0.3c-3,0.6-6,1.4-9,1.9c-2.2,0.4-4.4,0.8-6.7,0.4c-0.2,0-0.5,0.1-1,0.2c0.1,0.8,0,1.7,0.2,2.4
	C423.8,228.4,424.1,231.7,425.3,234.9z M91.1,133.7c3.4,1.2,6,3.2,8.6,5.4c4.8,3.9,9.6,7.9,14.5,11.8c2,1.6,3.7,3.3,5.1,5.5
	c0.3,0.4,0.7,0.7,1,1.1c0.3-0.2,0.5-0.3,0.6-0.4c2.4-2.9,4.8-5.9,7.2-8.9c0.2-0.3,0.2-0.7,0.4-1.1c-2.7-1.2-5.4-2.2-7.5-4.4
	c0.5-0.4,0.9-0.8,1.3-1.1c4.6-4,6-9.5,3.5-15.1c-2.3-5.2-6.4-8.5-11.7-10.4c-1.6-0.6-3.3-0.7-5-0.6c-3.5,0.2-6.2,1.8-8.2,4.6
	c-0.6,0.8-0.8,1.6-0.7,2.6c0.2,1.1,0.3,2.2,0.5,3.5c-1-0.6-1.8-1-2.5-1.5C96.5,126.3,92.3,131.4,91.1,133.7z M129.6,92.1
	c-0.8,0.8-1.6,1.3-2.2,2c-1.5,1.5-2.7,3.3-3.4,5.4c-2.5,6.7-0.3,14.6,5.1,19.3c1.8,1.5,3.9,2.4,6.3,2.7c3.6,0.4,6.8-0.6,9.7-2.7
	c1.1-0.8,1.6-1.7,1.7-3c0.1-0.7,0.2-1.4,0.3-2.4c0.7,0.5,1.3,0.8,2,1.3c2.7-2.2,5.2-4.3,7.8-6.5c0.2-0.2,0.3-0.5,0.4-0.8
	c-0.4-0.3-0.7-0.6-1.1-0.9c-1.8-1.2-3.3-2.7-4.7-4.4c-5-6-9.9-12.1-14.8-18.1c-1.9-2.4-3.7-4.9-4.8-7.8c-0.1-0.3-0.2-0.5-0.3-0.7
	c-1.6,0.9-2.4,2-3.4,3c-1.1,1-2.1,2.1-3.1,3.2c-0.9,1-2.1,1.8-2.7,3.2C125.2,86.9,127.6,89,129.6,92.1z M363.5,116.6
	c0.2-0.4,0.4-0.9,0.6-1.4c0.8-1.6,1.4-3.2,2.4-4.7c4.9-7.1,9.9-14.2,14.9-21.2c1.3-1.9,2.9-3.6,4.8-5.1c0.3-0.3,0.8-0.5,0.6-1.4
	c-1.6-1.1-3.5-2-5.4-3c-1.9-1-3.5-2.3-5.8-2.8c-1.2,3.2-2.5,6.2-4.9,8.7c-0.9-0.5-1.6-1-2.3-1.4c-2.2-1.2-4.4-1.9-6.9-2
	c-6.4-0.1-11.5,2.5-15.2,7.7c-4.1,5.7-3.1,13.5,3.4,18.1c0.8,0.6,1.6,0.8,2.6,0.6c0.8-0.2,1.6-0.3,2.7-0.5c-0.3,0.9-0.4,1.6-0.7,2.4
	c2.5,1.7,4.9,3.4,7.3,5.1c0.4,0.3,0.8,0.5,1.2,0.7C363,116.7,363.2,116.6,363.5,116.6z M96.5,182.3c-0.6-0.1-1.1-0.3-1.6-0.3
	c-2,0-3.9-0.5-5.7-1.1c-1.2-0.4-2.3-0.7-3.5-1.1c-3.4-1.1-6.7-2.2-10.1-3.1c-4.6-1.2-8.1,0.7-9.8,5.1c-0.7,1.8-0.9,3.6,0.3,5.3
	c0.6,0.8,1,1.8,1.5,2.7c0.2,0.4,0.3,0.8,0.5,1.3c-1.6,0.1-2.8-1.1-4.4-0.6c-0.4,1.1-0.8,2.2-1.2,3.3c-0.4,1.2-0.8,2.5-1.2,3.7
	c-0.3,1.1-1,2.2-0.7,3.4c0.4,0.1,0.6,0.2,0.9,0.2c2.5,0,5,0.6,7.4,1.4c3.7,1.2,7.4,2.4,11.2,3.6c2.3,0.7,4.5,1.6,6.6,3
	c0.4,0.2,0.8,0.3,1.2,0.4c1.4-2.7,3.6-9.7,3.7-11.9c-3.4-0.2-6.8-1-10-2.1c-3.2-1.1-6.6-1.9-9.8-3.3c0-0.8-0.1-1.6,0-2.3
	c0.3-1.6,1.3-2.4,3-2.3c0.7,0,1.5,0.2,2.2,0.4c2.9,0.9,5.8,1.9,8.8,2.8c2.1,0.7,4.2,1.6,6,2.9c0.3,0.2,0.8,0.3,1.4,0.5
	c1.2-3.7,2.3-7.2,3.4-10.8C96.6,183.2,96.5,182.8,96.5,182.3z M435.5,169.5c0-10.2-6.5-17.4-15-18c-3-0.2-5.9,0.7-8.6,1.9
	c-6.1,2.9-9.2,9.5-7.4,16.1c1.4,4.8,4,8.8,8.7,11.1c5.7,2.8,11.2,1.8,16.4-1.5C433.6,176.4,435.4,172.6,435.5,169.5z M88.5,157.4
	c0,1.6-0.5,3.2-0.7,4.8c-0.4,2.7-0.6,5.4,0.3,8c1.1,3.1,3.3,5.2,6.6,5.7c3.4,0.5,5.9-1,7.9-3.7c0.3-0.4,0.5-0.8,0.7-1.2
	c0.4-0.7,0.6-1.5,0.4-2.4c-0.3-1.2-0.4-2.3-0.4-3.6c0.8,0.2,1.5,0.3,2.3,0.5c0.6-1.2,1.2-2.2,1.8-3.3c0.6-1.1,1.2-2.1,1.7-3.2
	c0.5-1,1.4-2,1.4-3.2c-0.3-0.2-0.6-0.4-0.8-0.4c-3.2-0.7-6.1-2.2-9-3.8c-2.5-1.4-5.1-2.8-7.6-4.1c-1.3-0.7-2.7-1.3-4.2-1.4
	c-3.6-0.3-6.4,1.1-8.5,3.8c-1.7,2.1-2.9,4.6-3.6,7.2c-0.3,1.1-0.5,2.3-0.8,3.5c1.7,1.7,3.1,3.6,5.3,4.7c0.3-1.1,0.5-2,0.8-2.8
	c0.6-1.4,1.3-2.9,2.1-4.2c0.4-0.6,1.1-1,1.8-1.3C86.9,156.7,87.7,156.7,88.5,157.4z M340.3,86.7c2.2-3,3.3-6.1,3.4-9.5
	c0-1.2-0.1-2.4-0.4-3.6c-1.6-6.4-9-9.2-13.4-8.7c-3.9,0.4-7,2.2-9.5,5.2c-1.7,2.1-2.9,4.5-3.6,7.1c-0.6,2.1-0.8,4.2-0.4,6.3
	c0.8,4.1,3.1,7.1,6.4,9.4c2.5,1.7,5.3,2.7,8.1,3.5c0.9,0.3,1.6,0.1,2.3-0.6c1.5-1.5,3.1-2.9,4.6-4.4c0.2-0.2,0.3-0.6,0.6-1.1
	c-1.1-0.1-1.9-0.1-2.7-0.1c-2.1-0.1-4-0.6-5.8-1.7c-2.3-1.4-3.5-3.5-3.5-6.2c0-0.4,0.2-0.8,0.3-1.4c2.5,0.6,4.5,1.8,6.6,2.7
	C335.7,84.6,337.9,85.6,340.3,86.7z M283.7,67.5c1.1-3.6,1.2-6.9,0.2-10.2c-1.1-3.7-3.6-6.3-7.3-7.4c-7.3-2.2-13.5,1.1-16.4,7
	c-1.3,2.7-1.7,5.6-1.7,8.7c0,6.3,3.9,11.4,9.9,13.3c3.2,1,6.4,1.2,9.6,1c0.9,0,1.6-0.4,2-1.2c1-2,2.1-3.9,3.1-5.9
	c0.1-0.3,0-0.6,0.1-1.1c-1.5,0.4-2.7,0.8-4,1.1c-1.9,0.5-3.7,0.3-5.5-0.3c-2.7-0.9-4.1-2.6-4.6-5.9c2.4-0.1,4.8,0.2,7.2,0.4
	C278.7,67.2,281.1,67.3,283.7,67.5z M165.5,88.9c0.8-0.5,1.4-0.9,2.1-1.3c2.9-1.6,5.9-3.2,8.8-4.8c0.6-0.3,1.2-0.8,1.7-1.2
	c-1-4.1-3.8-7.9-7.1-9.8c-1.6-0.9-3.3-1.3-5.1-1.3c-7.7-0.1-14.1,7-13.2,14.7c0.5,3.8,2,7.2,4.4,10.1c3,3.6,6.9,5.2,11.6,4.8
	c5-0.4,8.9-2.9,12.5-5.8c0.2-4.2-0.3-7.3-1.3-8.9c-0.5,0.7-1.1,1.3-1.6,1.9c-1.2,1.4-2.6,2.6-4.4,3.4
	C170.9,92.2,168.1,91.7,165.5,88.9z M231.3,50.2c-3.8,0.4-7.6,0.4-11.4,1.2c0.2,0.5,0.3,0.9,0.5,1.2c1.1,2.2,2.4,4.4,3.4,6.7
	c2.6,5.7,5,11.4,7.5,17.1c0.4,0.9,0.9,1.8,1.2,2.7c2.2,0.3,8-0.3,9.9-0.9c0.1-0.4,0.3-0.8,0.4-1.2c0.9-3.4,1.7-6.8,2.6-10.3
	c1.5-5.7,2.7-11.6,5-17.1c0.1-0.2,0-0.5,0-0.9c-1.3-0.5-2.6,0-3.9,0.2c-1.3,0.1-2.8-0.2-4.1,0.7c-0.3,1.7-0.6,3.3-0.9,4.9
	c-0.3,1.6-0.7,3.3-1,4.9c-0.3,1.6-0.6,3.3-1.1,4.9c-0.4,1.5-0.4,3.2-1.4,4.9c-0.9-2.4-1.7-4.4-2.5-6.5c-0.8-2-1.6-4-2.3-6
	C232.5,54.6,232,52.5,231.3,50.2z M201.2,86.2c-0.3-0.5-0.5-0.9-0.8-1.2c-1.2-1.7-2.1-3.5-2.9-5.4c-2.8-7.6-5.6-15.2-8.4-22.8
	c-1-2.7-1.7-5.5-1.9-8.4c0-0.2-0.2-0.4-0.4-0.6c-2.1,0.6-9.2,4.1-11.3,5.6c0.1,0.3,0.2,0.7,0.4,1c1.6,2.1,2.7,4.5,3.6,6.9
	c2.6,7.1,5.2,14.1,7.8,21.2c0.7,2,1.4,4,1.5,6.2c0,0.6,0.3,1.2,0.4,1.8c0.4,0,0.7,0.1,1,0c3.3-1.2,6.6-2.4,9.9-3.6
	C200.5,86.7,200.8,86.5,201.2,86.2z M83.6,235.2c0.3-0.5,0.6-0.9,0.8-1.3c1.2-2.9,1.9-6,2.1-9.2c0.2-2.7-0.4-5.2-2-7.4
	c-1.6-2.3-3.9-3.4-6.6-3.6c-2.4-0.1-4.4,0.7-6.2,2.1c-1.3,1-2.5,2.2-3.8,3.3c-0.8,0.7-1.6,1.3-2.5,1.8c-1.2,0.6-2.2-0.2-2.3-1.5
	c-0.1-1.5,0.6-2.7,1.3-3.9c0.4-0.7,1.2-1.2,1.1-2.1c-1.8-0.8-5-1.2-6.8-0.9c-1.7,2.9-2.3,6-2.4,9.3c0,2.6,0.7,5,2.4,7
	c2.5,3.2,7.3,4.4,11,1.8c1.3-0.9,2.4-2,3.6-3c0.8-0.7,1.6-1.5,2.5-2.2c0.7-0.6,1.4-0.9,2.3-0.9c0.8,0,1.4,0.5,1.6,1.3
	c0.3,1.6,0,3.2-0.9,4.6c-0.5,0.9-1.2,1.6-1.8,2.4c-0.2,0.3-0.4,0.7-0.7,1.2C78.9,234.9,81.3,234.8,83.6,235.2z M419.8,138.1
	c-0.1-0.4-0.1-0.8-0.2-1.3c-1.9-4.9-5.2-8.6-10-10.8c-1.6-0.7-3.3-1.1-5.1-1.2c-6.9-0.6-13.7,5.1-15.4,10.8
	c-0.5,1.8-0.9,3.6-0.7,5.5c0.6,5.2,3.4,9.1,7.4,12.4c1.1-0.3,2.1-0.5,3.1-0.7c0.9-0.2,1.8-0.5,2.7-0.7c0.9-0.2,1.9-0.3,2.8-1.2
	c-0.7-0.5-1.3-0.7-1.8-1.1c-1.1-0.8-2.3-1.6-3.3-2.6c-2.5-2.8-2.5-6.2,0-9.1c1.1-1.2,2.3-2.2,3.8-2.8c4.2-1.9,7.7-0.4,9.5,3.9
	c0.2,0.5,0.3,1.1,0.4,1.6c0.2,0.5,0.4,1,0.6,1.5C415.9,141.3,418,139.9,419.8,138.1z M300,84.3c0.4-2.8,0.6-5.2,1.1-7.5
	c0.6-2.9,1.6-5.7,2.2-8.6c0.4-1.9,1.5-2.8,3.2-3.4c1.6-0.5,3.1-0.5,4.6,0.3c0.5,0.3,1,0.5,1.4,0.7c1.4-1.8,3.1-5.4,3.5-7.6
	c-2.2-1.4-4.3-1.9-6.6-0.2c-0.8,0.6-1.7,1.1-2.6,1.6c-0.4,0.2-0.7,0.7-1.2,0.2c0-1.3,0.8-2.5,0.5-3.8c-2.6-1.2-8.6-2.7-10.9-2.7
	c-0.1,0.5-0.2,1.1-0.2,1.6c0.1,2.3-0.3,4.4-0.9,6.6c-1,3.9-2,7.7-3.1,11.6c-0.6,2.3-1.4,4.6-2.7,6.7c-0.2,0.3-0.2,0.7-0.4,1
	c0.3,0.2,0.5,0.5,0.7,0.6C292.4,82.4,296.1,83.5,300,84.3z M219.5,81.4c-0.2-0.5-0.3-0.9-0.5-1.2c-1.2-1.9-1.9-4-2.4-6.2
	c-0.8-3.3-1.7-6.7-2.5-10c-0.7-3.1-1.4-6.2-1.2-9.4c0-0.3-0.2-0.7-0.2-1c-1.5-0.3-2.8,0.4-4.2,0.6c-1.5,0.3-2.9,0.6-4.3,1.1
	c-1.3,0.4-2.8,0.3-3.7,1.3c0.9,2.5,2,4.8,2.6,7.2c1.2,4.2,2.2,8.5,3.2,12.7c0.5,2,0.9,4,0.8,6.1c0,0.5,0.1,1.1,0.1,1.5
	c0.9,0.5,1.6,0.2,2.3,0C212.8,83.2,216.3,82.7,219.5,81.4z M155.4,421c0.6-0.9,1.1-1.4,1.5-2.1c1.2-1.8,2.3-3.6,3.4-5.4
	c3.7-5.8,7.4-11.6,11-17.4c0.5-0.8,1.2-1.4,1-2.5c-0.7-0.7-1.5-1.3-2.8-1.5c-2.8,4-5.2,8.3-7.9,12.2c-0.6-0.2-0.5-0.6-0.6-0.9
	c-1.8-5.4-7.7-7.9-12.6-5c-4,2.4-6.2,6.1-6.2,10.9c0,5,4.9,8.7,8.7,8.3c0.7-0.1,1.4-0.1,2.2-0.1c-0.1,0.7-0.2,1.3-0.3,2
	C153.6,419.9,154.4,420.4,155.4,421z M324.8,413.6c0.2,0.7,0.4,1.3,0.6,1.7c3.6,7.4,7.2,14.9,10.9,22.3c0.2,0.5,0.6,0.9,0.9,1.3
	c1.2-0.2,2.1-0.6,2.9-1.4c-0.4-1.8-1.4-3.2-2.1-4.8c-0.7-1.7-1.7-3.2-2.4-5.2c0.6,0.1,0.9,0.2,1.3,0.2c5.6,1.4,10.9-2.6,10.8-8.4
	c0-3.9-1.6-7.2-4.6-9.8c-2.7-2.3-5.8-2.6-9.1-1.3c-2.3,0.9-3.8,2.6-4.6,4.9c-0.1,0.2-0.3,0.4-0.5,0.6c-0.4-0.5-0.9-1-1.3-1.6
	c-0.5,0.2-0.9,0.3-1.3,0.5C325.8,413,325.4,413.3,324.8,413.6z M375.7,383.1c-0.9,0-1.6-0.1-2.2,0c-4.4,0.5-8.2,5.1-7.5,9.5
	c0.8,4.7,3.5,8.2,8,9.9c4.9,1.9,10.2-1.1,11.5-6.2c0.1-0.5,0.2-1.1,0.3-1.8c0.6,0.4,1.1,0.7,1.7,1c0.9-0.6,1.8-1.1,2.3-2.1
	c-0.2-0.3-0.3-0.7-0.5-1c-3.7-4.3-7.4-8.6-11.1-12.9c-0.2-0.2-0.5-0.3-0.9-0.5c-0.7,0.6-1.5,1.3-2.2,1.9
	C375.3,381.7,375.4,382.3,375.7,383.1z M254.6,429.7c-0.5-0.4-0.7-0.6-1-0.8c-5.1-4-12-1.9-13.9,4.2c-0.9,2.8-1,5.7,0,8.5
	c0.4,1.2,1.1,2.4,2,3.3c2.8,3.3,8.3,3.7,11.4,1.2c0.4-0.3,0.9-0.7,1.4-1.1c0.2,0.7,0.4,1.3,0.5,1.9c1.1,0.3,2,0.4,3,0
	c0.1-0.3,0.3-0.6,0.3-0.8c0.2-5.5,0.4-11,0.5-16.5c0-0.5-0.2-1-0.4-1.5c-1.1-0.3-2.1-0.4-3.1,0C255,428.5,254.9,428.9,254.6,429.7z
	 M182.4,424.2c1.6-2.1,2-4.3,1.8-6.7c-0.6-6.4-7.7-9.3-12.2-7.8c-4,1.4-6.2,4.4-7.2,8.3c-1.8,7,4.2,13.5,11.3,12.3
	c1.6-0.3,3.3-0.7,4.4-2.3c-0.3-0.5-0.5-1-0.8-1.5c-0.2-0.3-0.5-0.5-0.8-0.9c-0.8,0.3-1.5,0.7-2.3,1c-2.5,0.8-4.8,0.5-6.7-1.4
	c-1-1-1.5-2.1-1.5-3.5c0-1.2,0-2.4,1-3.4C173.8,420.1,177.9,422.4,182.4,424.2z M365.8,402.1c-0.1-0.5-0.1-0.9-0.4-1.2
	c-0.8-1-1.6-2.1-2.6-2.9c-2.7-2.2-5.7-2.7-8.9-1.3c-3.3,1.5-5.7,3.9-6,7.7c-0.4,5,1.9,8.6,6,11.1c1.6,1,3.4,1.5,5.4,1.2
	c3.2-0.5,5.8-2,7.6-4.7c1.3-1.9,1.9-4,1.4-6.2c-1.7-0.3-1.7-0.3-3.2,0.2c-0.2,1.5-0.2,3.3-1.3,4.7c-1.1,1.4-2.5,2.2-4.2,2.5
	c-1.1,0.2-2.2-0.1-3.2-0.6c-1.1-0.6-2-1.3-2.5-2.6C357.9,407.4,361.8,404.8,365.8,402.1z M220.4,435.4c1,0,1.7,0,2.4,0.1
	c2.9,0.4,5.9,1,8.8,1.4c1,0.1,2,0.4,3,0c1.3-3.7,0.2-7.8-2.7-10.1c-4.3-3.4-11-2.4-14,2.2c-1.9,3-2.4,6.3-1.5,9.6
	c1.9,7.5,11.2,8.9,15.7,5c0.7-0.6,1.5-1.1,1.6-2.2c-0.5-0.8-1.2-1.5-2.2-1.8c-0.9,0.7-1.7,1.5-2.7,2.1c-2.2,1.2-4.5,1.2-6.6-0.4
	C220.4,440,219.7,438,220.4,435.4z M323.6,425c-0.1-1.3-0.7-2.4-1.3-3.4c-2.1-3.5-5.4-5-9.5-4.3c-4.7,0.8-7.9,4.6-7.9,9.4
	c0,2.7,0.8,5.2,2.4,7.3c2.2,3,5.2,4.4,9,3.8c4-0.6,6.9-2.6,8.3-6.5c0.2-0.6,0.2-1.2,0.2-2c-1-0.3-1.8-0.5-2.8-0.8
	c-0.4,0.8-0.6,1.5-1,2.2c-0.5,0.8-0.9,1.7-1.6,2.3c-1.6,1.5-3.6,2.1-5.7,1.4c-2.1-0.6-3.5-2-4-4.4c2.4-0.8,4.7-1.6,6.9-2.4
	C319.1,426.8,321.5,426.4,323.6,425z M121.1,372.3c-5.7,0.1-10.5,4.6-10.4,10.5c0.1,5.6,4.2,10.3,10.6,10.4
	c5.8,0.1,10.4-4.5,10.4-10.2C131.7,376.8,126.9,372.4,121.1,372.3z M376.9,369c1.3,2.1,3.6,3.2,4.8,5.4c-0.6,0.8-1.2,1.6-1.7,2.3
	c0.4,1,1,1.7,2.1,2c0.7-0.6,1.5-1.2,2.4-1.9c2,1.9,3.8,3.7,5.7,5.5c1.9,1.7,3.5,3.8,5.7,5.2c1.1-0.6,1.8-1.4,2.3-2.5
	c-1.6-2.2-3.7-3.7-5.5-5.6c-1.8-1.9-3.8-3.5-5.5-5.5c0.7-0.9,1.2-1.7,1.8-2.5c-0.6-0.9-1.1-1.7-2.2-1.8c-0.7,0.6-1.4,1.2-2.2,1.8
	c-2.1-1.3-3.4-3.5-5.5-4.7C378.2,367.1,377.4,367.9,376.9,369z M265.1,430.7c1,5.2,0.6,10.4,1.5,15.5c1.7,0.5,1.7,0.5,3.5-0.2
	c-0.1-2.5-0.1-5.1-0.4-7.6c-0.3-2.6-0.5-5.2-0.2-7.8c1-0.3,1.9-0.5,2.7-0.8c0.4-1,0.3-1.9-0.3-2.7c-0.9-0.1-1.8-0.2-2.8-0.3
	c-0.7-2.3-0.2-4.7-1.1-6.9c-1.1-0.3-2.2-0.4-3.2,0.4c0,2.3,0,4.6,0,6.9c-1,0.2-1.9,0.4-2.7,0.6c-0.3,1.5-0.3,1.5,0.2,2.8
	C263.2,430.6,264.1,430.7,265.1,430.7z M204.4,52.6c4.1,0.1,6.3-3.4,6.3-6.1c0-3.4-2.7-6-6-6.1c-3.9-0.1-6.3,2.8-6.4,6
	C198.2,49.9,201,52.6,204.4,52.6z M377.3,129.2c3.4,0,6.2-2.9,6.1-6.3c-0.1-3.3-3-5.9-6.1-5.9c-3.5,0-6.2,2.9-6.2,6.1
	C371,126.5,373.9,129.2,377.3,129.2z M301,421.7c-0.4-0.1-1-0.3-1.5-0.3c-2.4,0.3-4.2,1.5-5.2,3.7c-0.1,0.2-0.2,0.5-0.4,0.8
	c-0.5-1-0.9-1.6-1.2-2.2c-1.1,0.1-2,0-2.7,0.9c0,0.3,0,0.7,0.1,1.1c1.2,5.4,2.5,10.9,3.8,16.3c0.1,0.3,0.3,0.5,0.4,0.8
	c1.1,0,2.2,0,3.1-0.9c-0.1-0.5-0.1-1.1-0.2-1.6c-0.6-2.5-1.2-5.1-1.7-7.6c-0.2-1.2-0.3-2.4-0.2-3.6c0.1-1.9,1.2-3.3,3.1-3.8
	c0.8-0.2,1.6-0.4,2.3-0.6C301.1,423.7,301.4,422.8,301,421.7z M148.2,393.1c-2-2.7-2.7-3.1-7.6-3.2c0.3-0.6,0.5-1.2,0.8-1.8
	c-0.8-0.7-1.3-1.6-2.6-1.6c-0.3,0.4-0.7,0.8-1.1,1.2c-3.4,4.3-6.8,8.6-10.2,12.9c-0.1,0.1-0.1,0.3-0.1,0.5c1,1.4,1,1.4,2.7,2
	c0.6-0.6,1.2-1.3,1.7-2c1.5-1.8,2.8-3.7,4.4-5.4c0.9-1,2-1.9,3.2-2.7c1.4-0.9,2.9-0.7,4.2,0.2c0.7,0.5,1.3,1,1.9,1.5
	C147,394.3,147,394.3,148.2,393.1z M188.1,435.5c0.3-0.8,0.6-1.5,0.9-2.2c0.8-2.2,1.5-4.4,2.3-6.6c0.5-1.3,1.2-2.5,2-3.6
	c1.2-1.5,2.8-2,4.7-1.3c0.7,0.3,1.4,0.5,2,0.7c1.4-1.2,1.3-1.2,1.7-2.5c-2-1.7-3.7-2-5.9-1.2c-0.6,0.2-1.2,0.5-1.8,0.7
	c-0.1,0-0.3-0.1-0.5-0.1c0.1-0.6,0.1-1.2,0.2-1.8c-0.9-0.6-1.7-1.1-2.8-0.8c-1.1,1.8-1.6,3.9-2.3,5.9c-0.7,1.9-1.4,3.8-2,5.8
	c-0.6,2-1.6,3.9-1.9,6C185.9,435.2,186.8,435.6,188.1,435.5z M276.2,438.1c2.4-0.3,4.8-0.7,7.2-1c2.2-0.2,2.5-0.8,2-2.9
	c-0.1-0.3-0.4-0.6-0.6-1c-1.6,0.2-3.2,0.3-4.7,0.6c-1.5,0.3-3.2,0-4.6,1C275.3,435.9,275.4,436.9,276.2,438.1z M200.7,431.5
	c2,1,6.4,2.2,9.2,2.5c0.5-0.9,1-1.9,0.8-3c-0.9-1-2.1-0.9-3.2-1.3c-1-0.3-2-0.5-3-0.8c-1.1-0.3-2.1-0.8-3.3-0.3
	C200.9,429.5,200.3,430.4,200.7,431.5z"/>
<path class="st0" d="M254,405.7c-87.4-0.4-157.5-70.9-157.2-158.1c0.3-88.6,72.7-157.1,157.7-157c85.2,0.1,157.3,69.1,157.2,157.7
	C411.6,335.1,341.5,405.5,254,405.7z M254.2,397.2c82.1-0.1,148.8-66.2,149.1-148.6c0.2-83.5-67.4-149.5-149-149.5
	c-81.6,0-148.8,65.8-149.1,148.6C104.9,330.3,171.6,397.1,254.2,397.2z"/>
<path class="st0" d="M425.3,234.9c-1.2-3.2-1.5-6.6-2.3-9.8c-0.2-0.8-0.2-1.6-0.2-2.4c0.5-0.1,0.7-0.3,1-0.2c2.3,0.4,4.5,0,6.7-0.4
	c3-0.5,6-1.3,9-1.9c0.5-0.1,0.9-0.2,1.4-0.3c2.5-0.8,3.2-2.8,1.9-5c-0.3-0.5-0.7-0.9-1.3-0.8c-0.6,0.1-1.3,0.1-1.9,0.3
	c-2.5,0.5-5.1,1.1-7.6,1.6c-3.3,0.7-6.5,1.4-9.5,3.3c-1.4-2-1.3-4.2-1.8-6.2c-0.5-2-1.1-3.9-1-6.2c0.6-0.1,1.1-0.2,1.6-0.2
	c2.4,0.1,4.8-0.1,7.2-0.7c2.6-0.6,5.3-1.1,7.9-1.7c0.4-0.1,0.7-0.2,1.1-0.3c2.4-0.7,3.5-2.4,2-5.2c-0.2-0.3-0.5-0.5-0.8-0.9
	c-3,0.6-6,1.2-9,1.9c-2,0.4-4,0.9-6,1.4c-1.6,0.5-3.1,1.2-4.7,1.9c-0.2-0.2-0.4-0.4-0.5-0.7c-0.7-3.2-1.4-6.3-2.1-9.5
	c-0.1-0.6-0.1-1.2-0.2-1.8c0.3-0.2,0.5-0.3,0.6-0.3c3.3,0.3,6.5-0.4,9.7-1c3.3-0.7,6.5-1.4,9.8-2.1c2.4-0.5,4.7-1.2,6.8-2.4
	c0.3-0.2,0.7-0.2,1.1-0.4c0.2,0.3,0.4,0.5,0.5,0.8c0.7,3,1.3,6,2,9c0.1,0.3,0,0.7,0,1.3c-1.1,0.4-2.2,0.8-3.3,1.1
	c-0.1,0.7,0.4,0.9,0.7,1.1c1,0.7,2,1.4,3,2c1,0.6,1.6,1.5,1.9,2.7c0.8,3.6,0.5,6.9-2.7,9.3c-0.1,0.1-0.2,0.3-0.4,0.5
	c0.4,0.4,0.8,0.7,1.2,1.1c0.8,0.5,1.5,1.1,2.3,1.5c3,1.5,3.5,4.2,3.4,7c-0.2,3-1.7,5.3-4.6,6.5c-0.9,0.4-1.9,0.7-2.9,0.9
	c-3.5,0.8-7.1,1.5-10.6,2.3c-2.7,0.6-5.4,1.2-7.9,2.6C426.2,234.8,425.8,234.8,425.3,234.9z"/>
<path class="st0" d="M91.1,133.7c1.2-2.3,5.4-7.4,7.3-9c0.7,0.4,1.5,0.9,2.5,1.5c-0.2-1.3-0.3-2.4-0.5-3.5c-0.2-1,0.1-1.8,0.7-2.6
	c2-2.8,4.7-4.5,8.2-4.6c1.7-0.1,3.3,0,5,0.6c5.3,1.9,9.4,5.2,11.7,10.4c2.5,5.6,1.1,11.1-3.5,15.1c-0.4,0.4-0.8,0.7-1.3,1.1
	c2.1,2.3,4.8,3.2,7.5,4.4c-0.1,0.4-0.2,0.8-0.4,1.1c-2.4,3-4.8,5.9-7.2,8.9c-0.1,0.1-0.3,0.2-0.6,0.4c-0.3-0.3-0.7-0.7-1-1.1
	c-1.4-2.1-3.2-3.9-5.1-5.5c-4.8-3.9-9.7-7.9-14.5-11.8C97.2,137,94.5,134.9,91.1,133.7z M115.3,138.2c1.4-0.6,2.1-1.5,2.4-2.6
	c0.3-1.2,0.3-2.4-0.3-3.5c-1.7-3.3-4.4-5.5-7.9-6.5c-1.9-0.6-3.5,0.4-4.2,2.3c-0.4,1.1-0.3,1.9,0.7,2.7
	C109.1,133.2,112.2,135.7,115.3,138.2z"/>
<path class="st0" d="M129.6,92.1c-2-3.1-4.5-5.2-7.2-7.2c0.6-1.4,1.8-2.2,2.7-3.2c1-1.1,2-2.2,3.1-3.2c1-1,1.8-2.1,3.4-3
	c0.1,0.2,0.2,0.5,0.3,0.7c1.1,2.9,2.9,5.4,4.8,7.8c4.9,6.1,9.9,12.1,14.8,18.1c1.4,1.7,2.9,3.2,4.7,4.4c0.4,0.3,0.7,0.6,1.1,0.9
	c-0.2,0.3-0.2,0.6-0.4,0.8c-2.6,2.1-5.1,4.3-7.8,6.5c-0.7-0.4-1.3-0.8-2-1.3c-0.1,0.9-0.3,1.6-0.3,2.4c-0.1,1.3-0.7,2.2-1.7,3
	c-2.9,2.1-6.1,3.1-9.7,2.7c-2.4-0.3-4.5-1.2-6.3-2.7c-5.5-4.6-7.6-12.5-5.1-19.3c0.7-2,1.9-3.8,3.4-5.4
	C128.1,93.4,128.8,92.8,129.6,92.1z M134.1,97.4c-3.3,1.4-4,2.7-3.2,5.7c0.1,0.5,0.3,1.1,0.6,1.6c1.3,2.6,3.2,4.8,5.5,6.6
	c0.7,0.5,1.6,0.9,2.5,1.2c1.3,0.4,2.8-0.3,3.6-1.5c0.7-1.1,0.6-1.9-0.5-3.3c-2.2-2.7-4.4-5.3-6.5-8
	C135.4,98.9,134.8,98.2,134.1,97.4z"/>
<path class="st0" d="M363.5,116.6c-0.3,0-0.5,0.1-0.7,0c-0.4-0.2-0.8-0.4-1.2-0.7c-2.4-1.7-4.9-3.4-7.3-5.1c0.2-0.8,0.4-1.5,0.7-2.4
	c-1,0.2-1.9,0.3-2.7,0.5c-1,0.2-1.8,0-2.6-0.6c-6.5-4.6-7.5-12.4-3.4-18.1c3.8-5.2,8.8-7.8,15.2-7.7c2.5,0,4.7,0.8,6.9,2
	c0.7,0.4,1.4,0.8,2.3,1.4c2.4-2.4,3.7-5.5,4.9-8.7c2.2,0.5,3.9,1.8,5.8,2.8c1.9,1,3.8,1.9,5.4,3c0.2,0.9-0.3,1.1-0.6,1.4
	c-1.9,1.4-3.4,3.2-4.8,5.1c-5,7.1-10,14.1-14.9,21.2c-1,1.4-1.6,3.1-2.4,4.7C363.9,115.7,363.7,116.2,363.5,116.6z M366.8,91.7
	c-2.1-2.8-3.9-3.1-6.4-1.6c-0.3,0.2-0.6,0.4-0.9,0.7c-2.4,2.1-4.2,4.7-5.3,7.7c-0.2,0.7-0.4,1.4-0.4,2.2c0,1.7,1.1,3,2.8,3.3
	c0.8,0.2,1.5,0,2-0.6c0.4-0.5,0.8-1,1.2-1.6c1.8-2.6,3.6-5.2,5.4-7.8C365.8,93.3,366.2,92.5,366.8,91.7z"/>
<path class="st0" d="M96.5,182.3c0,0.5,0.1,0.9,0,1.2c-1.1,3.5-2.2,7.1-3.4,10.8c-0.6-0.2-1.1-0.2-1.4-0.5c-1.9-1.3-3.9-2.2-6-2.9
	c-2.9-0.9-5.8-1.9-8.8-2.8c-0.7-0.2-1.4-0.4-2.2-0.4c-1.6-0.1-2.7,0.7-3,2.3c-0.1,0.7,0,1.4,0,2.3c3.2,1.4,6.6,2.2,9.8,3.3
	c3.2,1.1,6.6,1.9,10,2.1c-0.1,2.1-2.3,9.2-3.7,11.9c-0.4-0.1-0.9-0.2-1.2-0.4c-2-1.4-4.3-2.3-6.6-3c-3.7-1.2-7.4-2.4-11.2-3.6
	c-2.4-0.8-4.8-1.4-7.4-1.4c-0.3,0-0.5-0.1-0.9-0.2c-0.3-1.3,0.4-2.3,0.7-3.4c0.4-1.3,0.8-2.5,1.2-3.7c0.4-1.1,0.8-2.3,1.2-3.3
	c1.6-0.5,2.8,0.7,4.4,0.6c-0.2-0.5-0.3-0.9-0.5-1.3c-0.5-0.9-0.9-1.8-1.5-2.7c-1.2-1.7-1.1-3.4-0.3-5.3c1.8-4.4,5.3-6.3,9.8-5.1
	c3.4,0.9,6.8,2.1,10.1,3.1c1.2,0.4,2.3,0.7,3.5,1.1c1.9,0.6,3.8,1,5.7,1.1C95.4,182,96,182.2,96.5,182.3z"/>
<path class="st0" d="M435.5,169.5c-0.1,3.1-1.9,6.9-5.9,9.5c-5.2,3.4-10.7,4.3-16.4,1.5c-4.7-2.3-7.3-6.2-8.7-11.1
	c-1.9-6.5,1.2-13.2,7.4-16.1c2.7-1.3,5.6-2.2,8.6-1.9C429,152.1,435.6,159.3,435.5,169.5z M412.7,172.2c4.2,1.3,8.7,0,11.4-3.3
	c1.7-2,2.6-4.3,2.6-6.9c0-1.6-0.7-2.2-2.3-2c-3.8,0.4-7.2,1.8-9.7,4.9C413.1,166.9,412.1,169.3,412.7,172.2z"/>
<path class="st0" d="M88.5,157.4c-0.8-0.7-1.7-0.8-2.4-0.4c-0.7,0.3-1.4,0.7-1.8,1.3c-0.8,1.3-1.5,2.8-2.1,4.2
	c-0.4,0.8-0.5,1.8-0.8,2.8c-2.3-1.1-3.6-3-5.3-4.7c0.3-1.2,0.5-2.3,0.8-3.5c0.8-2.6,1.9-5,3.6-7.2c2.2-2.7,5-4.1,8.5-3.8
	c1.5,0.1,2.9,0.7,4.2,1.4c2.5,1.4,5.1,2.7,7.6,4.1c2.8,1.6,5.7,3.1,9,3.8c0.3,0.1,0.5,0.2,0.8,0.4c0,1.3-0.9,2.2-1.4,3.2
	c-0.5,1.1-1.1,2.1-1.7,3.2c-0.6,1.1-1.2,2.1-1.8,3.3c-0.8-0.2-1.5-0.3-2.3-0.5c0,1.3,0.1,2.5,0.4,3.6c0.2,0.9,0,1.7-0.4,2.4
	c-0.2,0.4-0.5,0.8-0.7,1.2c-2,2.7-4.5,4.2-7.9,3.7c-3.3-0.5-5.5-2.6-6.6-5.7c-0.9-2.6-0.7-5.3-0.3-8C88.1,160.6,88.5,159,88.5,157.4
	z M95.1,160.9c-0.9,0.8-1.3,1.8-1.7,2.8c-0.1,0.3-0.1,0.8,0.1,1.1c0.9,1.9,3.6,2.3,4.7,0.5c0.4-0.7,0.9-1.4,0.8-2.4
	C97.8,162,96.6,161.2,95.1,160.9z"/>
<path class="st0" d="M340.3,86.7c-2.5-1.1-4.7-2.1-6.9-3c-2.1-0.9-4.1-2.1-6.6-2.7c-0.1,0.5-0.3,0.9-0.3,1.4c0,2.7,1.1,4.8,3.5,6.2
	c1.8,1.1,3.7,1.6,5.8,1.7c0.8,0,1.6,0.1,2.7,0.1c-0.3,0.5-0.3,0.9-0.6,1.1c-1.5,1.5-3.1,2.9-4.6,4.4c-0.7,0.6-1.4,0.8-2.3,0.6
	c-2.9-0.8-5.7-1.8-8.1-3.5c-3.4-2.3-5.6-5.3-6.4-9.4c-0.4-2.2-0.2-4.3,0.4-6.3c0.7-2.6,1.9-5,3.6-7.1c2.5-3,5.6-4.8,9.5-5.2
	c4.4-0.5,11.9,2.3,13.4,8.7c0.3,1.2,0.4,2.4,0.4,3.6C343.7,80.6,342.5,83.6,340.3,86.7z M329.1,74.7c1.8,1.2,3.7,1.9,5.5,2.6
	c1-1.7,1.3-2.5,0.9-3.4c-0.3-0.6-0.8-1.3-1.3-1.7C332.5,71,330.8,71.8,329.1,74.7z"/>
<path class="st0" d="M283.7,67.5c-2.6-0.2-5-0.3-7.4-0.6c-2.4-0.3-4.7-0.5-7.2-0.4c0.5,3.3,1.9,5.1,4.6,5.9c1.8,0.6,3.6,0.7,5.5,0.3
	c1.2-0.3,2.5-0.7,4-1.1c0,0.5,0.1,0.8-0.1,1.1c-1,2-2.1,4-3.1,5.9c-0.4,0.8-1.1,1.2-2,1.2c-3.3,0.2-6.5,0-9.6-1
	c-6.1-1.9-9.9-7-9.9-13.3c0-3,0.4-5.9,1.7-8.7c2.9-5.9,9-9.2,16.4-7c3.8,1.1,6.2,3.7,7.3,7.4C284.9,60.5,284.8,63.8,283.7,67.5z
	 M274.9,60.6c0.7-1.4,0.7-1.5,0.6-2.1c-0.2-1.4-0.9-2.3-2.1-2.6c-1.4-0.3-2.6,0.1-3.4,1.3c-0.5,0.8-0.9,1.6-0.8,2.6
	c0.3,0.1,0.5,0.3,0.8,0.3C271.7,60.3,273.3,60.4,274.9,60.6z"/>
<path class="st0" d="M165.5,88.9c2.7,2.8,5.4,3.4,8.5,2c1.7-0.8,3.1-2,4.4-3.4c0.5-0.6,1.1-1.3,1.6-1.9c1,1.5,1.4,4.6,1.3,8.9
	c-3.6,2.9-7.6,5.4-12.5,5.8c-4.7,0.4-8.6-1.2-11.6-4.8c-2.4-2.9-3.9-6.3-4.4-10.1c-0.9-7.7,5.4-14.8,13.2-14.7
	c1.8,0,3.5,0.4,5.1,1.3c3.3,1.8,6.1,5.6,7.1,9.8c-0.5,0.4-1.1,0.8-1.7,1.2c-2.9,1.6-5.9,3.2-8.8,4.8
	C166.9,87.9,166.3,88.3,165.5,88.9z M161.9,83.3c2.8-1,4.1-1.7,5.4-3.1c-1.4-2.5-3-3.3-4.8-2.1c-0.6,0.4-1.1,1-1.3,1.7
	C160.8,81,161.2,82.2,161.9,83.3z"/>
<path class="st0" d="M231.3,50.2c0.7,2.3,1.3,4.4,2,6.5c0.7,2,1.5,4,2.3,6c0.8,2.1,1.6,4.1,2.5,6.5c1.1-1.7,1-3.4,1.4-4.9
	c0.4-1.6,0.7-3.3,1.1-4.9c0.3-1.6,0.7-3.3,1-4.9c0.3-1.6,0.6-3.3,0.9-4.9c1.3-0.9,2.7-0.6,4.1-0.7c1.3-0.1,2.5-0.6,3.9-0.2
	c0,0.3,0.1,0.6,0,0.9c-2.3,5.5-3.5,11.4-5,17.1c-0.9,3.4-1.7,6.8-2.6,10.3c-0.1,0.4-0.3,0.9-0.4,1.2c-1.9,0.6-7.6,1.2-9.9,0.9
	c-0.4-0.8-0.8-1.7-1.2-2.7c-2.5-5.7-4.9-11.4-7.5-17.1c-1-2.3-2.3-4.5-3.4-6.7c-0.2-0.3-0.3-0.7-0.5-1.2
	C223.7,50.6,227.4,50.6,231.3,50.2z"/>
<path class="st0" d="M201.2,86.2c-0.4,0.3-0.6,0.5-0.9,0.7c-3.3,1.2-6.6,2.4-9.9,3.6c-0.2,0.1-0.5,0-1,0c-0.1-0.6-0.4-1.2-0.4-1.8
	c-0.1-2.2-0.8-4.2-1.5-6.2c-2.6-7.1-5.2-14.1-7.8-21.2c-0.9-2.4-1.9-4.8-3.6-6.9c-0.2-0.3-0.3-0.7-0.4-1c2.1-1.5,9.2-5,11.3-5.6
	c0.1,0.2,0.4,0.4,0.4,0.6c0.2,2.9,0.9,5.7,1.9,8.4c2.8,7.6,5.6,15.2,8.4,22.8c0.7,1.9,1.6,3.7,2.9,5.4
	C200.7,85.3,200.9,85.7,201.2,86.2z"/>
<path class="st0" d="M83.6,235.2c-2.4-0.3-4.8-0.3-7.3-1.1c0.3-0.5,0.4-0.9,0.7-1.2c0.6-0.8,1.3-1.6,1.8-2.4
	c0.9-1.4,1.1-2.9,0.9-4.6c-0.1-0.8-0.7-1.3-1.6-1.3c-0.9,0-1.6,0.3-2.3,0.9c-0.8,0.7-1.6,1.5-2.5,2.2c-1.2,1-2.3,2.1-3.6,3
	c-3.7,2.6-8.5,1.4-11-1.8c-1.6-2.1-2.4-4.4-2.4-7c0-3.3,0.7-6.5,2.4-9.3c1.9-0.3,5,0.1,6.8,0.9c0.1,0.9-0.8,1.4-1.1,2.1
	c-0.7,1.2-1.3,2.5-1.3,3.9c0.1,1.3,1.1,2.1,2.3,1.5c0.9-0.4,1.7-1.1,2.5-1.8c1.3-1.1,2.5-2.3,3.8-3.3c1.8-1.4,3.8-2.3,6.2-2.1
	c2.8,0.1,5,1.3,6.6,3.6c1.6,2.2,2.2,4.7,2,7.4c-0.2,3.2-0.9,6.3-2.1,9.2C84.3,234.3,84,234.6,83.6,235.2z"/>
<path class="st0" d="M419.8,138.1c-1.8,1.8-3.9,3.2-6.1,4.2c-0.2-0.5-0.4-1-0.6-1.5c-0.2-0.5-0.2-1.1-0.4-1.6
	c-1.8-4.3-5.3-5.8-9.5-3.9c-1.5,0.7-2.7,1.6-3.8,2.8c-2.5,2.8-2.6,6.3,0,9.1c0.9,1,2.1,1.8,3.3,2.6c0.5,0.4,1.1,0.7,1.8,1.1
	c-0.9,0.9-1.9,1-2.8,1.2c-0.9,0.2-1.8,0.5-2.7,0.7c-1,0.2-2,0.5-3.1,0.7c-3.9-3.3-6.8-7.2-7.4-12.4c-0.2-1.9,0.1-3.7,0.7-5.5
	c1.6-5.6,8.4-11.3,15.4-10.8c1.8,0.1,3.5,0.5,5.1,1.2c4.8,2.2,8,5.9,10,10.8C419.7,137.3,419.7,137.8,419.8,138.1z"/>
<path class="st0" d="M300,84.3c-3.9-0.8-7.5-1.9-11.2-2.9c-0.2-0.1-0.4-0.3-0.7-0.6c0.1-0.3,0.2-0.7,0.4-1c1.3-2.1,2.1-4.4,2.7-6.7
	c1-3.9,2-7.7,3.1-11.6c0.6-2.2,0.9-4.4,0.9-6.6c0-0.5,0.1-1.1,0.2-1.6c2.3,0,8.2,1.5,10.9,2.7c0.3,1.3-0.6,2.5-0.5,3.8
	c0.5,0.5,0.8,0,1.2-0.2c0.9-0.5,1.8-1,2.6-1.6c2.3-1.7,4.5-1.2,6.6,0.2c-0.4,2.3-2.1,5.9-3.5,7.6c-0.5-0.2-1-0.5-1.4-0.7
	c-1.5-0.8-3-0.8-4.6-0.3c-1.7,0.6-2.9,1.4-3.2,3.4c-0.6,2.9-1.6,5.7-2.2,8.6C300.6,79.2,300.4,81.6,300,84.3z"/>
<path class="st0" d="M219.5,81.4c-3.2,1.3-6.7,1.8-9.9,2.7c-0.7,0.2-1.4,0.5-2.3,0c0-0.4-0.2-1-0.1-1.5c0.1-2.1-0.3-4.1-0.8-6.1
	c-1-4.2-2-8.5-3.2-12.7c-0.7-2.4-1.7-4.7-2.6-7.2c0.9-1,2.4-0.9,3.7-1.3c1.4-0.5,2.9-0.8,4.3-1.1c1.3-0.3,2.6-1,4.2-0.6
	c0.1,0.3,0.3,0.7,0.2,1c-0.2,3.2,0.4,6.3,1.2,9.4c0.8,3.3,1.6,6.7,2.5,10c0.6,2.2,1.3,4.3,2.4,6.2C219.2,80.5,219.3,80.9,219.5,81.4
	z"/>
<path class="st0" d="M155.4,421c-1-0.6-1.8-1.1-2.6-1.6c0.1-0.7,0.2-1.3,0.3-2c-0.8,0-1.5,0.1-2.2,0.1c-3.8,0.4-8.7-3.4-8.7-8.3
	c0-4.8,2.2-8.5,6.2-10.9c4.8-2.9,10.8-0.4,12.6,5c0.1,0.3,0,0.8,0.6,0.9c2.8-3.9,5.2-8.2,7.9-12.2c1.3,0.2,2.1,0.8,2.8,1.5
	c0.2,1.1-0.5,1.8-1,2.5c-3.7,5.8-7.4,11.6-11,17.4c-1.1,1.8-2.3,3.6-3.4,5.4C156.5,419.6,156.1,420.2,155.4,421z M158.7,407.8
	c0.1-3.3-1.2-5-3.4-6.1c-1.9-0.9-3.8-1-5.5,0.3c-2.2,1.7-3.4,3.9-3.5,6.7c-0.2,4.4,5.1,7,8.4,5.1
	C157.2,412.4,158.6,410.1,158.7,407.8z"/>
<path class="st0" d="M324.8,413.6c0.6-0.4,1-0.7,1.4-0.9c0.4-0.2,0.8-0.3,1.3-0.5c0.5,0.5,0.9,1,1.3,1.6c0.2-0.2,0.4-0.4,0.5-0.6
	c0.8-2.3,2.4-4,4.6-4.9c3.3-1.3,6.4-1,9.1,1.3c3,2.5,4.6,5.8,4.6,9.8c0,5.7-5.2,9.8-10.8,8.4c-0.3-0.1-0.7-0.1-1.3-0.2
	c0.7,2,1.6,3.5,2.4,5.2c0.7,1.6,1.7,3.1,2.1,4.8c-0.8,0.8-1.7,1.3-2.9,1.4c-0.3-0.4-0.7-0.8-0.9-1.3c-3.6-7.4-7.2-14.9-10.9-22.3
	C325.2,414.9,325.1,414.4,324.8,413.6z M343.8,418.8c-0.1-2-1.2-4.2-3-5.9c-1.7-1.6-3.7-1.9-5.9-1c-2.2,1-3.7,2.6-3.7,5.1
	c0,2.7,1.1,5.1,3.4,6.7c1.9,1.4,4,1.3,6.1,0.3C342.6,423.1,343.8,421.6,343.8,418.8z"/>
<path class="st0" d="M375.7,383.1c-0.3-0.9-0.4-1.4-0.7-2.1c0.8-0.6,1.5-1.3,2.2-1.9c0.4,0.2,0.7,0.3,0.9,0.5
	c3.7,4.3,7.4,8.6,11.1,12.9c0.2,0.3,0.4,0.6,0.5,1c-0.5,1-1.3,1.6-2.3,2.1c-0.5-0.3-1.1-0.7-1.7-1c-0.1,0.7-0.1,1.2-0.3,1.8
	c-1.2,5.1-6.6,8.1-11.5,6.2c-4.5-1.7-7.2-5.2-8-9.9c-0.7-4.4,3.1-9,7.5-9.5C374.2,383.1,374.8,383.1,375.7,383.1z M376.1,386.1
	c-4.7,0-7.4,4.6-5.3,8.5c0.8,1.5,1.9,2.7,3.4,3.6c1.5,0.9,3.1,1.2,4.8,0.5c3.8-1.5,5.2-5.5,2.9-8.9c-0.7-1-1.6-1.8-2.5-2.6
	C378.5,386.4,377.2,386.1,376.1,386.1z"/>
<path class="st0" d="M254.6,429.7c0.3-0.7,0.5-1.1,0.7-1.6c1-0.4,1.9-0.3,3.1,0c0.1,0.5,0.4,1,0.4,1.5c-0.1,5.5-0.3,11-0.5,16.5
	c0,0.3-0.2,0.5-0.3,0.8c-1,0.4-1.9,0.4-3,0c-0.2-0.6-0.3-1.2-0.5-1.9c-0.6,0.4-1,0.7-1.4,1.1c-3.1,2.6-8.6,2.1-11.4-1.2
	c-0.8-1-1.5-2.1-2-3.3c-1-2.8-0.9-5.7,0-8.5c2-6.2,8.8-8.2,13.9-4.2C253.8,429.1,254.1,429.3,254.6,429.7z M254.7,437.6
	C254.7,437.6,254.7,437.6,254.7,437.6c0-0.4,0-0.7,0-1.1c-0.2-3.9-3.1-6.2-7-5.8c-2.6,0.3-4,2.2-4.5,4c-0.4,1.6-0.4,3.3,0,5
	c0.5,2.1,1.7,3.4,3.8,4c4,1.1,7.3-1.2,7.7-5.3C254.7,438.2,254.7,437.9,254.7,437.6z"/>
<path class="st0" d="M182.4,424.2c-4.4-1.8-8.6-4-13-5.9c-1.1,1-1.1,2.2-1,3.4c0.1,1.4,0.6,2.5,1.5,3.5c1.9,1.9,4.2,2.2,6.7,1.4
	c0.8-0.3,1.5-0.6,2.3-1c0.3,0.4,0.6,0.6,0.8,0.9c0.3,0.5,0.5,1,0.8,1.5c-1.1,1.6-2.7,2-4.4,2.3c-7.1,1.2-13.1-5.3-11.3-12.3
	c1-3.9,3.2-6.9,7.2-8.3c4.5-1.5,11.6,1.4,12.2,7.8C184.4,419.9,184,422.1,182.4,424.2z M180,419.6c0.8-1.5,0.7-2.7,0.1-3.8
	c-0.6-1.3-1.8-2.1-3.1-2.6c-1.3-0.5-2.7-0.6-4.1-0.1c-0.9,0.4-1.8,0.9-2.2,2.2C173.8,416.9,176.8,418.2,180,419.6z"/>
<path class="st0" d="M365.8,402.1c-4,2.6-7.9,5.2-11.9,7.9c0.5,1.3,1.4,2,2.5,2.6c1,0.5,2.1,0.8,3.2,0.6c1.7-0.3,3.1-1.1,4.2-2.5
	c1.1-1.4,1.1-3.1,1.3-4.7c1.4-0.5,1.4-0.5,3.2-0.2c0.5,2.3-0.1,4.3-1.4,6.2c-1.8,2.7-4.4,4.2-7.6,4.7c-1.9,0.3-3.8-0.2-5.4-1.2
	c-4.1-2.5-6.4-6.2-6-11.1c0.3-3.8,2.7-6.2,6-7.7c3.2-1.4,6.2-0.9,8.9,1.3c1,0.8,1.8,1.9,2.6,2.9
	C365.6,401.2,365.6,401.6,365.8,402.1z M352.1,407.3c1.6-1,3-1.9,4.4-2.8c1.4-1,3-1.7,4.2-3c-2-2.1-4-2.4-6.3-1.1
	C351.8,401.8,351,403.9,352.1,407.3z"/>
<path class="st0" d="M220.4,435.4c-0.7,2.6,0,4.5,1.9,5.9c2.1,1.5,4.3,1.6,6.6,0.4c1-0.5,1.8-1.3,2.7-2.1c1,0.3,1.7,1,2.2,1.8
	c-0.1,1.1-1,1.6-1.6,2.2c-4.5,3.8-13.8,2.5-15.7-5c-0.9-3.4-0.4-6.7,1.5-9.6c3-4.6,9.7-5.6,14-2.2c2.9,2.3,4,6.3,2.7,10.1
	c-1,0.5-2,0.2-3,0c-2.9-0.4-5.9-0.9-8.8-1.4C222.1,435.4,221.3,435.5,220.4,435.4z M220.8,431.7c1.2,0.8,2.3,0.6,3.4,0.8
	c1.2,0.2,2.4,0.4,3.6,0.6c1.1,0.2,2.1,0.6,3.2,0.2c0.4-1.2,0-2.1-0.6-2.9c-0.8-1.1-2-1.6-3.3-2c-1.3-0.3-2.6-0.3-3.8,0.4
	C222.2,429.3,221.3,430.2,220.8,431.7z"/>
<path class="st0" d="M323.6,425c-2.1,1.4-4.5,1.8-6.7,2.6c-2.3,0.8-4.6,1.6-6.9,2.4c0.5,2.4,1.9,3.7,4,4.4c2.1,0.7,4.1,0.1,5.7-1.4
	c0.7-0.6,1.1-1.5,1.6-2.3c0.4-0.6,0.6-1.3,1-2.2c1,0.3,1.8,0.5,2.8,0.8c-0.1,0.8,0,1.4-0.2,2c-1.4,3.9-4.4,5.9-8.3,6.5
	c-3.8,0.6-6.8-0.8-9-3.8c-1.6-2.1-2.4-4.6-2.4-7.3c0-4.8,3.2-8.6,7.9-9.4c4.1-0.7,7.3,0.8,9.5,4.3
	C322.9,422.6,323.5,423.7,323.6,425z M318.8,423.3c-1.7-2.8-3.7-3.5-6.7-2.3c-1.2,0.5-2.3,1.3-2.9,2.5c-0.5,1-1,2-0.3,3.1
	C311.1,426.3,316.5,424.5,318.8,423.3z"/>
<path class="st0" d="M121.1,372.3c5.7,0.1,10.6,4.5,10.6,10.8c0,5.7-4.6,10.3-10.4,10.2c-6.3-0.1-10.5-4.8-10.6-10.4
	C110.7,376.8,115.4,372.3,121.1,372.3z M121.6,376.1c-3.7-0.2-7,3.3-7,6.8c-0.1,3.8,3.2,6.5,6.2,6.6c4.2,0.1,7.2-3.8,7.2-6.9
	C127.9,378.9,124.7,375.9,121.6,376.1z"/>
<path class="st0" d="M376.9,369c0.5-1.1,1.3-1.9,2.3-2.4c2.1,1.2,3.4,3.4,5.5,4.7c0.7-0.6,1.4-1.2,2.2-1.8c1.1,0.2,1.6,0.9,2.2,1.8
	c-0.6,0.8-1.1,1.6-1.8,2.5c1.8,2,3.7,3.7,5.5,5.5c1.8,1.9,3.9,3.4,5.5,5.6c-0.5,1.1-1.3,1.9-2.3,2.5c-2.2-1.5-3.8-3.5-5.7-5.2
	c-1.9-1.8-3.7-3.6-5.7-5.5c-0.9,0.7-1.7,1.3-2.4,1.9c-1.1-0.3-1.7-0.9-2.1-2c0.5-0.7,1.1-1.4,1.7-2.3
	C380.5,372.2,378.2,371.1,376.9,369z"/>
<path class="st0" d="M265.1,430.7c-1-0.1-1.9-0.1-2.8-0.2c-0.5-1.4-0.5-1.4-0.2-2.8c0.8-0.2,1.7-0.4,2.7-0.6c0-2.4,0-4.7,0-6.9
	c1-0.8,2.1-0.7,3.2-0.4c0.9,2.2,0.4,4.7,1.1,6.9c1,0.1,1.9,0.2,2.8,0.3c0.7,0.9,0.7,1.7,0.3,2.7c-0.9,0.3-1.8,0.5-2.7,0.8
	c-0.3,2.6,0,5.2,0.2,7.8c0.3,2.6,0.3,5.2,0.4,7.6c-1.8,0.7-1.8,0.7-3.5,0.2C265.7,441.2,266.1,435.9,265.1,430.7z"/>
<path class="st0" d="M204.4,52.6c-3.5,0-6.2-2.8-6.1-6.3c0.1-3.1,2.5-6.1,6.4-6c3.3,0.1,5.9,2.8,6,6.1
	C210.8,49.3,208.6,52.7,204.4,52.6z"/>
<path class="st0" d="M377.3,129.2c-3.4,0-6.3-2.7-6.3-6.1c0-3.2,2.7-6.2,6.2-6.1c3.1,0,6,2.6,6.1,5.9
	C383.5,126.2,380.7,129.1,377.3,129.2z"/>
<path class="st0" d="M301,421.7c0.4,1.1,0.1,2-0.4,3c-0.7,0.2-1.5,0.4-2.3,0.6c-1.9,0.5-3,1.9-3.1,3.8c-0.1,1.2,0,2.4,0.2,3.6
	c0.5,2.6,1.1,5.1,1.7,7.6c0.1,0.5,0.1,1.1,0.2,1.6c-0.9,0.9-2,0.9-3.1,0.9c-0.2-0.3-0.4-0.5-0.4-0.8c-1.3-5.4-2.5-10.9-3.8-16.3
	c-0.1-0.4,0-0.7-0.1-1.1c0.7-0.9,1.7-0.8,2.7-0.9c0.3,0.6,0.7,1.2,1.2,2.2c0.2-0.3,0.3-0.6,0.4-0.8c1.1-2.2,2.8-3.4,5.2-3.7
	C300,421.4,300.6,421.6,301,421.7z"/>
<path class="st0" d="M148.2,393.1c-1.2,1.2-1.2,1.2-2.7,1.7c-0.6-0.5-1.2-1.1-1.9-1.5c-1.3-0.9-2.8-1.1-4.2-0.2
	c-1.1,0.8-2.3,1.6-3.2,2.7c-1.5,1.7-2.9,3.6-4.4,5.4c-0.6,0.7-1.2,1.4-1.7,2c-1.7-0.6-1.7-0.6-2.7-2c0-0.2,0-0.4,0.1-0.5
	c3.4-4.3,6.8-8.6,10.2-12.9c0.3-0.4,0.7-0.8,1.1-1.2c1.3,0,1.8,0.9,2.6,1.6c-0.3,0.7-0.6,1.2-0.8,1.8
	C145.5,390,146.3,390.3,148.2,393.1z"/>
<path class="st0" d="M188.1,435.5c-1.3,0.1-2.3-0.2-3.2-1c0.3-2.1,1.2-4,1.9-6c0.6-1.9,1.3-3.9,2-5.8c0.7-2,1.2-4.1,2.3-5.9
	c1.1-0.2,1.9,0.2,2.8,0.8c-0.1,0.6-0.1,1.2-0.2,1.8c0.2,0.1,0.4,0.2,0.5,0.1c0.6-0.2,1.2-0.5,1.8-0.7c2.2-0.8,3.8-0.4,5.9,1.2
	c-0.4,1.3-0.4,1.3-1.7,2.5c-0.6-0.2-1.3-0.4-2-0.7c-1.9-0.8-3.5-0.3-4.7,1.3c-0.8,1.1-1.5,2.3-2,3.6c-0.9,2.1-1.6,4.4-2.3,6.6
	C188.8,434,188.5,434.7,188.1,435.5z"/>
<path class="st0" d="M276.2,438.1c-0.9-1.2-0.9-2.2-0.7-3.3c1.4-1,3.1-0.7,4.6-1c1.5-0.3,3.1-0.4,4.7-0.6c0.3,0.4,0.5,0.7,0.6,1
	c0.5,2.1,0.2,2.7-2,2.9C281,437.4,278.7,437.8,276.2,438.1z"/>
<path class="st0" d="M200.7,431.5c-0.4-1.1,0.2-1.9,0.5-2.9c1.2-0.5,2.3,0.1,3.3,0.3c1,0.2,2,0.4,3,0.8c1,0.4,2.2,0.3,3.2,1.3
	c0.2,1.1-0.3,2.1-0.8,3C207.1,433.7,202.7,432.5,200.7,431.5z"/>
<path d="M254.2,397.2c-82.5-0.2-149.2-66.9-149-149.6c0.3-82.8,67.5-148.6,149.1-148.6c81.6,0,149.2,66,149,149.5
	C403,331,336.3,397.1,254.2,397.2z M304.2,172.5c-0.5-1.4-0.9-2.6-1.4-3.8c-1.9-4.5-5.2-7.1-10-8c-3.3-0.6-6.1,0.3-8.3,2.7
	c-1.9,2.1-3.5,4.4-4.6,7c-3.7,8.6-9,16-15.5,22.7c-5.6,5.7-11.9,10.5-18.6,14.7c-3.1,2-6.4,3.9-9.5,5.9
	c-7.3,4.6-12.8,10.7-16.4,18.6c-3.5,8-8.2,15.3-13.7,22c-4.2,5.1-7.8,10.6-10.8,16.6c-2.2,4.4-4.3,8.9-6.5,13.3
	c-1.6,3.2-3.1,6.3-4.8,9.4c-3.2,5.8-7.8,10.2-13.7,13.2c-3.3,1.7-6.7,3.2-10.2,4.5c-1.5,0.6-2.3,1.4-2.7,2.8c-0.8,2.7-0.7,5.3-0.2,8
	c0.8,4.7,2.7,9.1,5,13.3c4.9,8.7,11.4,15.9,19.3,21.8c14.8,11.2,31.4,15.8,49.8,14.1c0.7-0.1,1.5,0.1,2.2,0.2
	c2.2,0.3,4.4,0.7,6.6,0.8c10,0.7,19.9-0.4,29.6-3.1c10.1-2.8,19.5-7.2,28.5-12.6c8-4.8,15.6-10.1,23.2-15.6c5.5-3.9,9.7-9,12.6-15.1
	c1.8-3.8,3.5-7.6,5.1-11.5c1.9-4.7,3.4-9.5,4.3-14.4c1.4-7.2,1.4-14.3-2.2-20.9c-0.5-1-0.5-1.9-0.1-2.9c0.4-0.8,0.8-1.7,1.1-2.6
	c1.7-4.4,2.7-8.9,2.5-13.6c-0.3-4.9-1.4-9.6-4.8-13.4c-2.1-2.4-1.7-2.5-0.6-4.9c1.2-2.6,2.5-5.2,3.6-7.9c1.6-3.7,2.2-7.5,1.4-11.5
	c-0.6-2.9-1.7-5.6-3.5-7.8c-1.4-1.8-1.7-3.4-0.7-5.4c0.2-0.4,0.3-0.9,0.5-1.3c2.9-8.2,5.9-16.5,8.8-24.7c0.8-2.3,1.4-4.6,1.8-7
	c0.7-3.7,0.4-7.4-0.9-11c-1.4-3.8-3.9-6.5-7.6-8.1c-4.4-1.8-8.8-0.7-11.7,3.1c-0.6,0.7-1.1,1.5-1.5,2.3c-2.6,4.3-5.2,8.6-7.9,12.9
	c-0.3,0.5-0.7,1-1.1,1.5C313.1,171.1,310.6,171.5,304.2,172.5z M278.2,126.1c0.1,0.3,0.1,0.8,0.2,1.2c1.6,6.9,3.2,13.8,4.8,20.6
	c0.1,0.4,0.2,0.9,0.4,1.3c0.4,0.9,1.4,1.3,2.3,1c0.8-0.3,1.3-1,1.3-1.9c0-0.5-0.1-0.9-0.3-1.4c-1.6-6.8-3.1-13.6-4.7-20.4
	c-0.1-0.5-0.2-0.9-0.3-1.3c-0.4-1-1.2-1.5-2.2-1.4C278.8,124.1,278.2,124.8,278.2,126.1z M307.5,156.3c0.3-0.1,0.8-0.3,1.2-0.6
	c0.4-0.4,0.7-0.9,1-1.3c3.7-5.8,7.3-11.7,11-17.5c0.3-0.5,0.6-1,0.8-1.5c0.4-0.8,0.1-1.7-0.5-2.2c-0.7-0.6-1.9-0.5-2.5,0.2
	c-0.3,0.3-0.6,0.7-0.8,1.1c-3.8,6-7.5,12-11.2,18c-0.3,0.5-0.6,1.1-0.8,1.8C305.4,155.3,306.2,156.3,307.5,156.3z M271.6,162.9
	c-0.1-0.2-0.2-0.7-0.5-1c-0.3-0.4-0.7-0.6-1.1-0.9c-6.1-3.9-12.3-7.7-18.4-11.5c-0.3-0.2-0.6-0.4-1-0.5c-0.8-0.3-1.7-0.1-2.2,0.6
	c-0.5,0.8-0.4,1.8,0.3,2.5c0.3,0.2,0.6,0.5,0.9,0.7c6.1,3.8,12.1,7.6,18.2,11.4c0.5,0.3,1.2,0.6,1.8,0.7
	C270.6,165.1,271.6,164.2,271.6,162.9z"/>
<path class="st1" d="M115.3,138.2c-3.2-2.6-6.2-5.1-9.3-7.6c-0.9-0.8-1.1-1.6-0.7-2.7c0.7-1.9,2.3-2.8,4.2-2.3
	c3.5,1,6.3,3.2,7.9,6.5c0.6,1.1,0.6,2.3,0.3,3.5C117.4,136.8,116.7,137.6,115.3,138.2z"/>
<path class="st1" d="M134.1,97.4c0.7,0.8,1.3,1.5,1.9,2.2c2.2,2.7,4.4,5.3,6.5,8c1.1,1.3,1.2,2.2,0.5,3.3c-0.8,1.2-2.3,1.9-3.6,1.5
	c-0.9-0.3-1.8-0.6-2.5-1.2c-2.3-1.7-4.2-3.9-5.5-6.6c-0.2-0.5-0.5-1-0.6-1.6C130.1,100.1,130.8,98.8,134.1,97.4z"/>
<path class="st1" d="M366.8,91.7c-0.6,0.9-1.1,1.6-1.6,2.4c-1.8,2.6-3.6,5.2-5.4,7.8c-0.4,0.5-0.7,1.1-1.2,1.6
	c-0.5,0.6-1.2,0.8-2,0.6c-1.7-0.4-2.8-1.6-2.8-3.3c0-0.7,0.1-1.5,0.4-2.2c1.1-3,2.9-5.6,5.3-7.7c0.3-0.2,0.6-0.5,0.9-0.7
	C362.9,88.6,364.7,88.9,366.8,91.7z"/>
<path class="st1" d="M412.7,172.2c-0.6-2.9,0.4-5.3,2.1-7.3c2.5-3.1,5.9-4.4,9.7-4.9c1.6-0.2,2.2,0.4,2.3,2c0,2.6-0.9,4.9-2.6,6.9
	C421.4,172.2,416.9,173.5,412.7,172.2z"/>
<path class="st1" d="M95.1,160.9c1.5,0.4,2.7,1.1,3.9,2c0.1,1-0.3,1.7-0.8,2.4c-1.1,1.9-3.8,1.4-4.7-0.5c-0.1-0.3-0.2-0.8-0.1-1.1
	C93.8,162.7,94.2,161.7,95.1,160.9z"/>
<path class="st1" d="M329.1,74.7c1.7-2.9,3.4-3.7,5.1-2.5c0.6,0.4,1,1.1,1.3,1.7c0.4,0.9,0.1,1.7-0.9,3.4
	C332.8,76.6,330.9,75.9,329.1,74.7z"/>
<path class="st1" d="M274.9,60.6c-1.6-0.2-3.3-0.3-4.9-0.5c-0.3,0-0.5-0.2-0.8-0.3c-0.1-1,0.2-1.8,0.8-2.6c0.8-1.2,1.9-1.6,3.4-1.3
	c1.2,0.3,1.9,1.2,2.1,2.6C275.6,59.1,275.6,59.2,274.9,60.6z"/>
<path class="st1" d="M161.9,83.3c-0.8-1.1-1.1-2.3-0.7-3.6c0.2-0.6,0.8-1.3,1.3-1.7c1.7-1.1,3.3-0.4,4.8,2.1
	C166,81.6,164.7,82.3,161.9,83.3z"/>
<path class="st1" d="M158.7,407.8c-0.2,2.3-1.5,4.6-4.1,6.1c-3.2,1.9-8.6-0.7-8.4-5.1c0.1-2.8,1.4-5,3.5-6.7
	c1.7-1.3,3.6-1.3,5.5-0.3C157.5,402.9,158.8,404.6,158.7,407.8z"/>
<path class="st1" d="M343.8,418.8c0,2.8-1.1,4.3-3.2,5.3c-2.1,1-4.2,1-6.1-0.3c-2.3-1.6-3.3-4-3.4-6.7c0-2.5,1.4-4.1,3.7-5.1
	c2.2-1,4.2-0.6,5.9,1C342.6,414.6,343.6,416.7,343.8,418.8z"/>
<path class="st1" d="M376.1,386.1c1.1,0,2.4,0.3,3.4,1.2c0.9,0.8,1.8,1.6,2.5,2.6c2.3,3.4,0.9,7.4-2.9,8.9c-1.7,0.7-3.3,0.4-4.8-0.5
	c-1.5-0.9-2.6-2.1-3.4-3.6C368.7,390.8,371.4,386.1,376.1,386.1z"/>
<path class="st1" d="M254.7,437.6c0,0.3,0,0.6,0,0.8c-0.3,4.1-3.7,6.4-7.7,5.3c-2.1-0.6-3.3-2-3.8-4c-0.4-1.6-0.4-3.3,0-5
	c0.5-1.8,1.8-3.7,4.5-4c3.9-0.5,6.7,1.8,7,5.8C254.7,436.8,254.7,437.2,254.7,437.6C254.7,437.6,254.7,437.6,254.7,437.6z"/>
<path class="st1" d="M180,419.6c-3.2-1.4-6.2-2.8-9.2-4.3c0.3-1.3,1.2-1.8,2.2-2.2c1.3-0.5,2.7-0.5,4.1,0.1c1.3,0.5,2.5,1.3,3.1,2.6
	C180.7,417,180.8,418.2,180,419.6z"/>
<path class="st1" d="M352.1,407.3c-1-3.4-0.3-5.5,2.3-7c2.3-1.3,4.3-1,6.3,1.1c-1.2,1.3-2.8,2-4.2,3
	C355.1,405.4,353.7,406.3,352.1,407.3z"/>
<path class="st1" d="M220.8,431.7c0.4-1.6,1.4-2.4,2.6-3c1.2-0.6,2.5-0.7,3.8-0.4c1.3,0.3,2.5,0.8,3.3,2c0.6,0.9,1,1.8,0.6,2.9
	c-1.1,0.4-2.2,0-3.2-0.2c-1.2-0.2-2.4-0.3-3.6-0.6C223.2,432.3,222,432.5,220.8,431.7z"/>
<path class="st1" d="M318.8,423.3c-2.2,1.2-7.7,3-9.8,3.3c-0.7-1.1-0.2-2.1,0.3-3.1c0.6-1.2,1.6-2,2.9-2.5
	C315,419.8,317,420.5,318.8,423.3z"/>
<path class="st1" d="M121.6,376.1c3.1-0.2,6.3,2.8,6.3,6.4c0,3.2-3,7-7.2,6.9c-2.9-0.1-6.2-2.7-6.2-6.6
	C114.6,379.4,117.9,375.9,121.6,376.1z"/>
<path class="st0" d="M304.2,172.5c6.4-1,8.9-1.4,16.2,4c0.4-0.5,0.8-1,1.1-1.5c2.6-4.3,5.2-8.6,7.9-12.9c0.5-0.8,1-1.6,1.5-2.3
	c2.9-3.8,7.3-4.9,11.7-3.1c3.7,1.6,6.2,4.3,7.6,8.1c1.3,3.6,1.6,7.3,0.9,11c-0.4,2.4-1.1,4.7-1.8,7c-2.9,8.3-5.9,16.5-8.8,24.7
	c-0.2,0.4-0.3,0.9-0.5,1.3c-1,2-0.7,3.6,0.7,5.4c1.8,2.3,2.9,4.9,3.5,7.8c0.8,4,0.1,7.8-1.4,11.5c-1.1,2.7-2.4,5.2-3.6,7.9
	c-1.1,2.4-1.5,2.5,0.6,4.9c3.4,3.8,4.6,8.5,4.8,13.4c0.2,4.7-0.7,9.3-2.5,13.6c-0.3,0.9-0.7,1.7-1.1,2.6c-0.4,1-0.4,1.9,0.1,2.9
	c3.6,6.7,3.6,13.7,2.2,20.9c-1,4.9-2.4,9.8-4.3,14.4c-1.6,3.9-3.3,7.7-5.1,11.5c-2.9,6.1-7.1,11.1-12.6,15.1
	c-7.5,5.5-15.2,10.8-23.2,15.6c-9,5.4-18.4,9.8-28.5,12.6c-9.7,2.7-19.5,3.8-29.6,3.1c-2.2-0.2-4.4-0.6-6.6-0.8
	c-0.7-0.1-1.5-0.2-2.2-0.2c-18.4,1.8-35.1-2.9-49.8-14.1c-7.9-6-14.4-13.2-19.3-21.8c-2.3-4.2-4.2-8.5-5-13.3
	c-0.5-2.7-0.6-5.4,0.2-8c0.4-1.5,1.3-2.3,2.7-2.8c3.5-1.3,6.9-2.8,10.2-4.5c5.9-3,10.5-7.4,13.7-13.2c1.7-3.1,3.3-6.3,4.8-9.4
	c2.2-4.4,4.3-8.9,6.5-13.3c3-5.9,6.6-11.4,10.8-16.6c5.6-6.7,10.2-14,13.7-22c3.5-7.9,9.1-14,16.4-18.6c3.2-2,6.4-3.9,9.5-5.9
	c6.7-4.2,13-9,18.6-14.7c6.5-6.6,11.8-14.1,15.5-22.7c1.1-2.6,2.7-4.9,4.6-7c2.3-2.5,5-3.4,8.3-2.7c4.8,0.9,8.1,3.6,10,8
	C303.3,169.9,303.7,171.2,304.2,172.5z M298.8,215.1c-0.4,0.2-0.6,0.3-0.7,0.4c-9.4,8.8-19.7,16.6-29.6,24.6
	c-5.2,4.2-11.1,6.8-17.7,7.6c-4.9,0.6-9.7,0.2-14.4-1.2c-2.4-0.7-4.6-1.9-6.5-3.7c-0.9-0.8-0.8-1.8,0.1-2.7c0.7-0.6,1.5-0.8,2.3-0.6
	c0.8,0.2,1.6,0.5,2.4,0.8c3.5,1.3,7.1,2.3,10.8,2.8c1.6,0.2,3.3,0.2,5,0c3.8-0.3,7.2-1.7,10.4-3.7c1.3-0.8,2.5-1.7,3.6-2.6
	c8.8-7,17.6-14,26.4-21.1c1.1-0.9,2.1-1.9,3.1-2.8c1.1-1,1.9-2.3,2.2-3.8c0.4-1.8,0.8-3.6,1.1-5.5c0.5-4,1-7.9,1.5-11.9
	c0.5-3.9,1.1-7.7,1.6-11.6c0.5-3.7-0.2-7.2-2-10.5c-0.8-1.5-1.9-2.8-3.3-3.8c-3.1-2.2-6.1-1.7-8.2,1.4c-0.8,1.1-1.4,2.4-1.9,3.7
	c-3.1,8.1-7.7,15.3-13.5,21.7c-5.6,6.2-11.9,11.5-18.8,16.2c-3.7,2.5-7.5,4.9-11.3,7.3c-7.7,4.8-13.6,11.3-17.3,19.6
	c-3.3,7.3-7.4,14-12.4,20.2c-3.1,3.9-5.9,7.9-8.4,12.2c-2.3,4-4.4,8-6.6,12c-3.2,5.8-6.4,11.6-9.6,17.3c-3,5.4-7.3,9.4-12.9,12
	c-3.1,1.5-6.3,2.8-9.5,4.1c-0.8,0.4-1.7,0.7-2.4,1c-0.9,2-0.9,3.8-0.6,5.7c0.7,4.9,2.6,9.3,5.1,13.5c8.4,14,20.3,23.8,35.7,29.5
	c4.6,1.7,9.3,2.6,14.1,3.3c0.4,0,0.7,0.1,1.1,0.1c0.3,0,0.8,0.2,0.9-0.5c-0.6-0.4-1.3-0.9-2-1.4c-6.4-4.3-10.8-10.2-13.4-17.4
	c-0.9-2.4-1.4-4.8-1.5-7.4c0-0.6,0.1-1.3,0.3-1.9c0.2-0.6,0.7-0.8,1.3-0.7c1.3,0.2,2.2,0.8,2.6,2.2c0.9,2.6,2,5.2,2.9,7.9
	c2.4,7.1,7.1,12.4,13.6,15.9c5.1,2.7,10.5,4.3,16.2,5c7,0.7,14,0.4,20.9-0.7c9.4-1.5,18.4-4.6,27-8.9c12.2-6.1,23.4-13.8,34.4-21.8
	c3.7-2.7,6.7-6.3,8.6-10.5c3.1-6.7,5.9-13.5,8.2-20.5c1.7-5.3,2.4-10.7,2-16.3c-0.1-1.5-0.3-3-0.6-4.4c-0.7-3.3-2.6-5.8-5.7-7.2
	c-1.9-0.8-3.8-1.5-5.8-2c-4.3-1.1-8.7-1.3-13-1.5c-5.4-0.3-10.8,0.2-16.1,1.5c-3.7,0.9-7.2,2.6-10.7,4.1c-4.7,2-9.4,4-14.5,5.1
	c-3.2,0.7-4.6,3-4.1,6.3c0.4,2.4,1.6,4.3,3.8,5.6c6.4,3.9,13.3,4.5,20.5,3.3c3.8-0.6,7.3-2.1,11-3.2c1.7-0.6,3.4-1.1,5.1-1.6
	c1-0.3,2-0.3,3,0c1.2,0.4,1.5,1.4,0.7,2.4c-0.6,0.7-1.3,1.3-1.9,2c0.3,0.3,0.5,0.5,0.8,0.6c2.1,0.9,4.2,1.4,6.5,1.4
	c2.2-0.1,4.5,0,6.7,0c1.3,0,2.5,0.2,3.5,1.2c-1.5,1.9-1.5,1.9-3.5,2.2c-3.7,0.5-7.4,0.6-11.1,0.1c-0.4-0.1-0.9,0-1.5,0
	c0.2,0.5,0.3,0.9,0.5,1.2c1.6,2.7,3.6,5.2,6,7.4c1,0.9,2.2,1.8,3.3,2.6c1,0.7,1.6,1.5,1.5,2.7c-0.8,0.8-1.7,1.1-2.8,0.7
	c-2.3-0.8-4.5-1.8-6.1-3.7c-1.1-1.3-2.3-2.4-3.4-3.7c-2.3-2.6-4-5.6-5-9c-0.1-0.4-0.3-0.8-0.5-1.2c-0.5,0.1-0.9,0.2-1.2,0.3
	c-3.5,1.2-7,1.9-10.6,2.2c-5.9,0.5-11.7,0.2-17.5-1.3c-3.6-0.9-6.8-2.6-9.4-5.2c-0.4-0.4-0.8-0.7-1.4-1.1c-0.7,0.8-1.3,1.4-1.9,2.1
	c-3,3.4-6.4,6.3-10.2,8.7c-9.8,6.1-20.5,8.5-31.9,8.8c-1.7,0-3.5-0.6-5.2-1.1c-1.1-0.3-1.6-1.3-1.5-2.1c0.2-0.8,0.9-1.2,1.6-1.3
	c0.7-0.2,1.5-0.3,2.2-0.3c1.8-0.1,3.5-0.1,5.3-0.2c2-0.1,4.1-0.1,6.1-0.3c12.7-1.5,23.2-7.1,31.5-16.8c1.2-1.5,2.2-3,2.2-5
	c0-0.9,0.2-1.9,0.6-2.7c1.2-3.3,3.7-5.1,7.1-5.6c3.6-0.5,7-1.7,10.4-3.2c3.2-1.4,6.5-2.9,9.7-4.4c0.3-0.1,0.6-0.4,1.2-0.8
	c-0.7,0-1,0-1.4,0.1c-4.5,0.6-8.9,1.7-13.4,2.8c-3.8,0.9-7.6,1.9-11.5,2.2c-5.3,0.4-10.2-0.8-14.6-3.7c-3.8-2.5-6.1-6-6.9-10.4
	c-0.8-4.2,0.5-7.7,3.7-10.5c1.4-1.2,3.1-2.1,4.9-2.7c7-2.3,13.9-4.8,21-6.9c14.4-4.1,29.2-5.8,44.2-5.3c4.5,0.2,8.9,1,13.1,2.5
	c0.5,0.2,1,0.3,1.5,0.4c0.2-0.3,0.4-0.4,0.5-0.5c1.6-3.8,3.2-7.5,4.7-11.4c1.4-3.7,0.9-7.3-1.1-10.7c-0.8-1.3-1.6-2.5-2.6-3.7
	c-1.9-2.4-3.9-4.7-5.9-7.1c-5.2-6.2-9.1-13.2-10.7-21.2c-0.5-2.3-1.4-4.4-2.6-6.5c-1.5-2.6-3.7-3.9-6.6-4c-2.5-0.1-3.4,0.5-3.8,3
	c-1,7.6-2.3,15.1-2.9,22.7c-0.5,6.6,1,12.6,4.6,18c1.8,2.7,4,5.2,6.4,7.4c1.7,1.6,3.4,3.2,5.1,4.8c0.5,0.5,1,1.1,1.4,1.7
	c0.5,0.9,0.1,1.7-0.9,1.9c-1,0.2-1.8-0.1-2.7-0.4c-2.8-1.1-5.2-2.8-7.4-4.9c-3.9-3.7-6.9-8.1-9.4-12.8
	C299.8,216.9,299.3,216.1,298.8,215.1z M336.7,274.2c0.2-0.4,0.5-0.7,0.5-1.1c0.7-2.5,1.4-5,1.9-7.6c0.7-3.2,0.8-6.5,0-9.7
	c-1-4.2-3.1-7.5-6.8-9.8c-2-1.3-4.1-2.2-6.5-2.5c-3-0.4-6.1-0.8-9.2-1c-4.3-0.3-8.6,0-12.8,0.4c-7,0.5-13.9,1.5-20.7,3.1
	c-8.8,2-17.2,5.4-25.8,8.1c-1.4,0.4-2.7,1.2-3.8,2.2c-2.1,2-3.1,4.4-2.6,7.3c0.3,1.8,1.2,3.3,2.4,4.7c1.9,2.1,4.3,3.5,7,4.3
	c3,0.9,6.1,0.9,9.1,0.3c2-0.3,4-0.8,6-1.3c4.7-1.1,9.4-2.4,14.1-3.2c5.8-1,11.5-0.8,17,1.5c1.2,0.5,2.3,0.6,3.5,0.6
	c3.4,0.1,6.9,0.2,10.3,0.4c4.7,0.3,9.2,1,13.7,2.6C335,273.8,335.8,274,336.7,274.2z M335.2,207.1c0.4-1,0.7-1.6,0.9-2.2
	c2.3-6.7,4.7-13.3,7-20c0.8-2.5,1.6-4.9,2.4-7.4c0.6-2,1-4,0.9-6c-0.2-4.1-1.8-7.6-5-10.2c-1.9-1.5-3.7-1.5-5.5,0.2
	c-0.8,0.8-1.5,1.6-2.1,2.6c-3.2,5.3-6.3,10.7-9.5,16.1c-0.8,1.3-0.9,2.6-0.5,4c0.7,2.7,1.3,5.4,2.2,8.1
	C327.7,197.8,330.9,202.5,335.2,207.1z"/>
<path class="st0" d="M278.2,126.1c0-1.3,0.6-2,1.5-2.2c1-0.2,1.8,0.3,2.2,1.4c0.2,0.4,0.2,0.9,0.3,1.3c1.6,6.8,3.1,13.6,4.7,20.4
	c0.1,0.5,0.2,0.9,0.3,1.4c0.1,0.9-0.4,1.7-1.3,1.9c-1,0.3-1.9-0.1-2.3-1c-0.2-0.4-0.3-0.9-0.4-1.3c-1.6-6.9-3.2-13.7-4.8-20.6
	C278.3,126.9,278.3,126.4,278.2,126.1z"/>
<path class="st0" d="M307.5,156.3c-1.3-0.1-2.2-1-1.9-2.1c0.1-0.6,0.4-1.2,0.8-1.8c3.7-6,7.5-12,11.2-18c0.2-0.4,0.5-0.8,0.8-1.1
	c0.7-0.7,1.8-0.8,2.5-0.2c0.7,0.5,0.9,1.4,0.5,2.2c-0.2,0.5-0.5,1-0.8,1.5c-3.6,5.8-7.3,11.7-11,17.5c-0.3,0.5-0.6,1-1,1.3
	C308.4,156,307.8,156.2,307.5,156.3z"/>
<path class="st0" d="M271.6,162.9c0,1.3-0.9,2.2-2,2c-0.6-0.1-1.2-0.4-1.8-0.7c-6.1-3.8-12.1-7.6-18.2-11.4
	c-0.3-0.2-0.6-0.4-0.9-0.7c-0.7-0.7-0.9-1.7-0.3-2.5c0.5-0.7,1.4-1,2.2-0.6c0.3,0.1,0.7,0.3,1,0.5c6.1,3.8,12.3,7.7,18.4,11.5
	c0.4,0.2,0.8,0.5,1.1,0.9C271.4,162.2,271.5,162.7,271.6,162.9z"/>
<path d="M298.8,215.1c0.5,1,0.9,1.8,1.4,2.6c2.5,4.7,5.5,9.1,9.4,12.8c2.2,2.1,4.6,3.8,7.4,4.9c0.9,0.3,1.8,0.6,2.7,0.4
	c1-0.2,1.4-1,0.9-1.9c-0.4-0.6-0.9-1.2-1.4-1.7c-1.7-1.6-3.4-3.2-5.1-4.8c-2.4-2.2-4.6-4.6-6.4-7.4c-3.6-5.5-5.1-11.5-4.6-18
	c0.6-7.6,1.9-15.1,2.9-22.7c0.3-2.5,1.2-3.1,3.8-3c2.9,0.1,5.1,1.4,6.6,4c1.2,2,2.1,4.2,2.6,6.5c1.7,8,5.5,15,10.7,21.2
	c2,2.4,4,4.7,5.9,7.1c0.9,1.2,1.8,2.4,2.6,3.7c2,3.4,2.5,7,1.1,10.7c-1.4,3.8-3.1,7.6-4.7,11.4c-0.1,0.2-0.2,0.3-0.5,0.5
	c-0.5-0.1-1-0.3-1.5-0.4c-4.2-1.5-8.6-2.3-13.1-2.5c-15-0.5-29.8,1.1-44.2,5.3c-7.1,2-14,4.5-21,6.9c-1.8,0.6-3.4,1.5-4.9,2.7
	c-3.2,2.8-4.5,6.3-3.7,10.5c0.8,4.4,3.1,7.9,6.9,10.4c4.4,2.9,9.3,4.1,14.6,3.7c3.9-0.3,7.7-1.3,11.5-2.2c4.4-1.1,8.8-2.2,13.4-2.8
	c0.3,0,0.7,0,1.4-0.1c-0.6,0.4-0.8,0.7-1.2,0.8c-3.2,1.5-6.4,2.9-9.7,4.4c-3.3,1.5-6.7,2.7-10.4,3.2c-3.4,0.5-5.8,2.3-7.1,5.6
	c-0.3,0.9-0.6,1.8-0.6,2.7c0,2-1,3.5-2.2,5c-8.3,9.7-18.8,15.3-31.5,16.8c-2,0.2-4.1,0.2-6.1,0.3c-1.8,0.1-3.5,0.1-5.3,0.2
	c-0.7,0-1.5,0.2-2.2,0.3c-0.8,0.2-1.4,0.5-1.6,1.3c-0.2,0.8,0.4,1.8,1.5,2.1c1.7,0.5,3.4,1.1,5.2,1.1c11.4-0.2,22.1-2.7,31.9-8.8
	c3.8-2.4,7.2-5.3,10.2-8.7c0.6-0.7,1.2-1.4,1.9-2.1c0.5,0.4,1,0.8,1.4,1.1c2.7,2.6,5.8,4.3,9.4,5.2c5.7,1.5,11.6,1.9,17.5,1.3
	c3.6-0.3,7.2-1.1,10.6-2.2c0.3-0.1,0.7-0.2,1.2-0.3c0.2,0.5,0.4,0.8,0.5,1.2c0.9,3.4,2.7,6.3,5,9c1.1,1.3,2.3,2.4,3.4,3.7
	c1.7,1.9,3.8,2.9,6.1,3.7c1.1,0.4,2,0.2,2.8-0.7c0.1-1.3-0.5-2-1.5-2.7c-1.1-0.8-2.2-1.7-3.3-2.6c-2.4-2.1-4.3-4.6-6-7.4
	c-0.2-0.3-0.3-0.7-0.5-1.2c0.6,0,1-0.1,1.5,0c3.7,0.5,7.4,0.4,11.1-0.1c1.9-0.3,1.9-0.3,3.5-2.2c-1-1-2.2-1.2-3.5-1.2
	c-2.2-0.1-4.5-0.1-6.7,0c-2.3,0.1-4.4-0.5-6.5-1.4c-0.2-0.1-0.4-0.3-0.8-0.6c0.7-0.7,1.4-1.3,1.9-2c0.8-1,0.5-2-0.7-2.4
	c-1-0.3-2-0.3-3,0c-1.7,0.5-3.4,1-5.1,1.6c-3.6,1.2-7.2,2.6-11,3.2c-7.2,1.2-14.1,0.6-20.5-3.3c-2.1-1.3-3.4-3.1-3.8-5.6
	c-0.5-3.2,0.9-5.6,4.1-6.3c5-1.1,9.8-3,14.5-5.1c3.5-1.5,7-3.1,10.7-4.1c5.3-1.3,10.7-1.8,16.1-1.5c4.4,0.2,8.8,0.4,13,1.5
	c2,0.5,3.9,1.2,5.8,2c3.1,1.4,5,3.8,5.7,7.2c0.3,1.5,0.5,2.9,0.6,4.4c0.4,5.5-0.3,11-2,16.3c-2.3,7-5.1,13.8-8.2,20.5
	c-2,4.2-4.9,7.7-8.6,10.5c-11,8-22.2,15.7-34.4,21.8c-8.6,4.3-17.5,7.3-27,8.9c-6.9,1.1-13.9,1.5-20.9,0.7c-5.7-0.6-11.1-2.2-16.2-5
	c-6.6-3.6-11.2-8.8-13.6-15.9c-0.9-2.6-2-5.2-2.9-7.9c-0.5-1.3-1.4-1.9-2.6-2.2c-0.7-0.1-1.1,0.2-1.3,0.7c-0.2,0.6-0.3,1.3-0.3,1.9
	c0,2.5,0.6,5,1.5,7.4c2.6,7.2,7,13.1,13.4,17.4c0.7,0.5,1.4,0.9,2,1.4c-0.1,0.7-0.5,0.5-0.9,0.5c-0.4,0-0.7,0-1.1-0.1
	c-4.8-0.6-9.6-1.6-14.1-3.3c-15.4-5.6-27.2-15.5-35.7-29.5c-2.5-4.2-4.4-8.6-5.1-13.5c-0.3-1.9-0.3-3.7,0.6-5.7
	c0.7-0.3,1.5-0.6,2.4-1c3.2-1.4,6.4-2.6,9.5-4.1c5.5-2.6,9.9-6.6,12.9-12c3.2-5.8,6.4-11.5,9.6-17.3c2.2-4,4.3-8,6.6-12
	c2.5-4.3,5.3-8.3,8.4-12.2c5-6.2,9.1-12.9,12.4-20.2c3.7-8.3,9.6-14.8,17.3-19.6c3.8-2.4,7.6-4.8,11.3-7.3
	c6.9-4.7,13.2-10,18.8-16.2c5.8-6.4,10.4-13.6,13.5-21.7c0.5-1.3,1.1-2.6,1.9-3.7c2.1-3.1,5.1-3.6,8.2-1.4c1.4,1,2.4,2.3,3.3,3.8
	c1.8,3.3,2.5,6.8,2,10.5c-0.5,3.9-1.1,7.7-1.6,11.6c-0.5,4-1,7.9-1.5,11.9c-0.3,1.8-0.7,3.7-1.1,5.5c-0.3,1.5-1.1,2.8-2.2,3.8
	c-1,1-2,1.9-3.1,2.8c-8.8,7-17.6,14.1-26.4,21.1c-1.2,0.9-2.4,1.8-3.6,2.6c-3.2,2-6.6,3.4-10.4,3.7c-1.7,0.1-3.4,0.2-5,0
	c-3.7-0.4-7.3-1.5-10.8-2.8c-0.8-0.3-1.6-0.6-2.4-0.8c-0.8-0.2-1.7,0-2.3,0.6c-0.9,0.8-1,1.8-0.1,2.7c1.9,1.8,4.1,3,6.5,3.7
	c4.7,1.4,9.5,1.7,14.4,1.2c6.6-0.8,12.6-3.4,17.7-7.6c10-8.1,20.2-15.9,29.6-24.6C298.2,215.4,298.4,215.3,298.8,215.1z"/>
<path d="M336.7,274.2c-0.9-0.3-1.7-0.4-2.4-0.7c-4.4-1.6-9-2.3-13.7-2.6c-3.4-0.2-6.9-0.3-10.3-0.4c-1.2,0-2.4-0.2-3.5-0.6
	c-5.5-2.3-11.3-2.5-17-1.5c-4.8,0.8-9.4,2.1-14.1,3.2c-2,0.5-4,0.9-6,1.3c-3.1,0.5-6.1,0.6-9.1-0.3c-2.7-0.8-5.1-2.2-7-4.3
	c-1.2-1.3-2.1-2.9-2.4-4.7c-0.5-2.9,0.5-5.3,2.6-7.3c1.1-1,2.4-1.8,3.8-2.2c8.6-2.7,17-6,25.8-8.1c6.8-1.6,13.7-2.5,20.7-3.1
	c4.3-0.3,8.5-0.7,12.8-0.4c3.1,0.2,6.1,0.5,9.2,1c2.3,0.3,4.5,1.2,6.5,2.5c3.6,2.3,5.8,5.7,6.8,9.8c0.7,3.2,0.6,6.5,0,9.7
	c-0.5,2.5-1.2,5.1-1.9,7.6C337.1,273.5,336.9,273.8,336.7,274.2z"/>
<path d="M335.2,207.1c-4.3-4.6-7.5-9.3-9.2-14.9c-0.8-2.7-1.4-5.4-2.2-8.1c-0.4-1.4-0.2-2.7,0.5-4c3.2-5.3,6.3-10.7,9.5-16.1
	c0.6-0.9,1.3-1.8,2.1-2.6c1.8-1.7,3.6-1.7,5.5-0.2c3.2,2.6,4.8,6.1,5,10.2c0.1,2.1-0.3,4.1-0.9,6c-0.8,2.5-1.5,5-2.4,7.4
	c-2.3,6.7-4.6,13.3-7,20C335.9,205.5,335.6,206.1,335.2,207.1z"/>
<path d="M405,348.2c3.1-0.2,6.3,2.8,6.3,6.4c0,3.2-3,7-7.2,6.9c-2.9-0.1-6.2-2.7-6.2-6.6C398.1,351.5,401.3,348,405,348.2z"/>
<path d="M100.5,355.9c3.1-0.2,6.3,2.8,6.3,6.4c0,3.2-3,7-7.2,6.9c-2.9-0.1-6.2-2.7-6.2-6.6C93.5,359.2,96.8,355.6,100.5,355.9z"/>
</svg>
