<?xml version="1.0" encoding="utf-8"?>
<!-- Generator: Adobe Illustrator 26.0.1, SVG Export Plug-In . SVG Version: 6.00 Build 0)  -->
<svg version="1.1" id="Layer_1" xmlns="http://www.w3.org/2000/svg" xmlns:xlink="http://www.w3.org/1999/xlink" x="0px" y="0px"
	 viewBox="0 0 504 495" style="enable-background:new 0 0 504 495;" xml:space="preserve">
<style type="text/css">
	.st0{fill:#FFFFFF;}
	.st1{fill:#F25D35;}
</style>
<path d="M252,482.9C122.2,483,16.4,377.3,16.8,246.9c0.4-129,105.1-235,236.1-234.6c130.2,0.4,234.7,106.2,234.5,235.6
	C487.2,378.4,381.2,483.1,252,482.9z M252,473.3c123.6,0.2,225.5-99.8,225.8-225.2c0.3-124.6-100.2-225.7-224.7-226.3
	c-125.6-0.6-226.7,101-226.8,225.6C26.3,372.8,128,473.4,252,473.3z"/>
<path class="st0" d="M252,473.3C128,473.4,26.3,372.8,26.4,247.5C26.4,122.9,127.5,21.3,253.1,21.9c124.5,0.6,225,101.7,224.7,226.3
	C477.5,373.5,375.7,473.5,252,473.3z M252.1,465c119.9,0.2,217.2-97.3,217.4-217c0.2-119.3-96.3-217.4-216.7-217.8
	c-121.1-0.4-218,97.9-218.1,217.2C34.6,367.2,131.9,465.2,252.1,465z"/>
<path class="st1" d="M252.1,465c-120.2,0.2-217.5-97.8-217.4-217.6c0.1-119.3,97.1-217.6,218.1-217.2
	c120.4,0.4,216.9,98.5,216.7,217.8C469.3,367.6,372,465.2,252.1,465z M251.9,405.1c87.6-0.1,157.6-70.6,157.7-157.3
	c0.1-88.7-72-157.6-157.2-157.7c-85-0.1-157.4,68.3-157.7,157C94.3,334.2,164.5,404.8,251.9,405.1z M423.2,234.4
	c0.5-0.1,0.9-0.2,1.2-0.3c2.5-1.4,5.2-2.1,7.9-2.6c3.5-0.7,7.1-1.5,10.6-2.3c1-0.2,2-0.5,2.9-0.9c2.9-1.2,4.4-3.4,4.6-6.5
	c0.2-2.9-0.3-5.6-3.4-7c-0.8-0.4-1.6-1-2.3-1.5c-0.4-0.3-0.8-0.7-1.2-1.1c0.2-0.3,0.3-0.4,0.4-0.5c3.2-2.4,3.6-5.7,2.7-9.3
	c-0.3-1.1-0.8-2-1.9-2.7c-1-0.6-2-1.3-3-2c-0.3-0.2-0.9-0.4-0.7-1.1c1.1-0.4,2.2-0.7,3.3-1.1c0-0.5,0.1-0.9,0-1.3c-0.6-3-1.3-6-2-9
	c-0.1-0.3-0.3-0.5-0.5-0.8c-0.4,0.1-0.7,0.2-1.1,0.4c-2.1,1.2-4.4,1.9-6.8,2.4c-3.3,0.7-6.5,1.4-9.8,2.1c-3.2,0.7-6.4,1.3-9.7,1
	c-0.2,0-0.3,0.2-0.6,0.3c0,0.6,0,1.2,0.2,1.8c0.7,3.2,1.4,6.4,2.1,9.5c0.1,0.2,0.3,0.4,0.5,0.7c1.6-0.6,3.1-1.4,4.7-1.9
	c2-0.6,4-1,6-1.4c3-0.7,6-1.3,9-1.9c0.3,0.3,0.7,0.6,0.8,0.9c1.5,2.8,0.4,4.5-2,5.2c-0.4,0.1-0.7,0.2-1.1,0.3
	c-2.6,0.6-5.3,1.1-7.9,1.7c-2.4,0.5-4.8,0.8-7.2,0.7c-0.5,0-1.1,0.1-1.6,0.2c-0.1,2.2,0.6,4.2,1,6.2c0.5,2,0.4,4.2,1.8,6.2
	c3-1.9,6.2-2.6,9.5-3.3c2.5-0.5,5.1-1.1,7.6-1.6c0.6-0.1,1.3-0.2,1.9-0.3c0.6-0.1,1,0.3,1.3,0.8c1.3,2.3,0.6,4.2-1.9,5
	c-0.4,0.1-0.9,0.2-1.4,0.3c-3,0.6-6,1.4-9,1.9c-2.2,0.4-4.4,0.8-6.7,0.4c-0.2,0-0.5,0.1-1,0.2c0.1,0.8,0,1.7,0.2,2.4
	C421.7,227.8,422,231.2,423.2,234.4z M89,133.2c3.4,1.2,6,3.2,8.6,5.4c4.8,3.9,9.6,7.9,14.5,11.8c2,1.6,3.7,3.3,5.1,5.5
	c0.3,0.4,0.7,0.7,1,1.1c0.3-0.2,0.5-0.3,0.6-0.4c2.4-2.9,4.8-5.9,7.2-8.9c0.2-0.3,0.2-0.7,0.4-1.1c-2.7-1.2-5.4-2.2-7.5-4.4
	c0.5-0.4,0.9-0.8,1.3-1.1c4.6-4,6-9.5,3.5-15.1c-2.3-5.2-6.4-8.5-11.7-10.4c-1.6-0.6-3.3-0.7-5-0.6c-3.5,0.2-6.2,1.8-8.2,4.6
	c-0.6,0.8-0.8,1.6-0.7,2.6c0.2,1.1,0.3,2.2,0.5,3.5c-1-0.6-1.8-1-2.5-1.5C94.4,125.7,90.2,130.9,89,133.2z M127.5,91.5
	c-0.8,0.8-1.6,1.3-2.2,2c-1.5,1.5-2.7,3.3-3.4,5.4c-2.5,6.7-0.3,14.6,5.1,19.3c1.8,1.5,3.9,2.4,6.3,2.7c3.6,0.4,6.8-0.6,9.7-2.7
	c1.1-0.8,1.6-1.7,1.7-3c0.1-0.7,0.2-1.4,0.3-2.4c0.7,0.5,1.3,0.8,2,1.3c2.7-2.2,5.2-4.3,7.8-6.5c0.2-0.2,0.3-0.5,0.4-0.8
	c-0.4-0.3-0.7-0.6-1.1-0.9c-1.8-1.2-3.3-2.7-4.7-4.4c-5-6-9.9-12.1-14.8-18.1c-1.9-2.4-3.7-4.9-4.8-7.8c-0.1-0.3-0.2-0.5-0.3-0.7
	c-1.6,0.9-2.4,2-3.4,3c-1.1,1-2.1,2.1-3.1,3.2c-0.9,1-2.1,1.8-2.7,3.2C123,86.3,125.5,88.4,127.5,91.5z M361.4,116.1
	c0.2-0.4,0.4-0.9,0.6-1.4c0.8-1.6,1.4-3.2,2.4-4.7c4.9-7.1,9.9-14.2,14.9-21.2c1.3-1.9,2.9-3.6,4.8-5.1c0.3-0.3,0.8-0.5,0.6-1.4
	c-1.6-1.1-3.5-2-5.4-3c-1.9-1-3.5-2.3-5.8-2.8c-1.2,3.2-2.5,6.2-4.9,8.7c-0.9-0.5-1.6-1-2.3-1.4c-2.2-1.2-4.4-1.9-6.9-2
	c-6.4-0.1-11.5,2.5-15.2,7.7c-4.1,5.7-3.1,13.5,3.4,18.1c0.8,0.6,1.6,0.8,2.6,0.6c0.8-0.2,1.6-0.3,2.7-0.5c-0.3,0.9-0.4,1.6-0.7,2.4
	c2.5,1.7,4.9,3.4,7.3,5.1c0.4,0.3,0.8,0.5,1.2,0.7C360.9,116.1,361.1,116.1,361.4,116.1z M94.4,181.8c-0.6-0.1-1.1-0.3-1.6-0.3
	c-2,0-3.9-0.5-5.7-1.1c-1.2-0.4-2.3-0.7-3.5-1.1c-3.4-1.1-6.7-2.2-10.1-3.1c-4.6-1.2-8.1,0.7-9.8,5.1c-0.7,1.8-0.9,3.6,0.3,5.3
	c0.6,0.8,1,1.8,1.5,2.7c0.2,0.4,0.3,0.8,0.5,1.3c-1.6,0.1-2.8-1.1-4.4-0.6c-0.4,1.1-0.8,2.2-1.2,3.3c-0.4,1.2-0.8,2.5-1.2,3.7
	c-0.3,1.1-1,2.2-0.7,3.4c0.4,0.1,0.6,0.2,0.9,0.2c2.5,0,5,0.6,7.4,1.4c3.7,1.2,7.4,2.4,11.2,3.6c2.3,0.7,4.5,1.6,6.6,3
	c0.4,0.2,0.8,0.3,1.2,0.4c1.4-2.7,3.6-9.7,3.7-11.9c-3.4-0.2-6.8-1-10-2.1c-3.2-1.1-6.6-1.9-9.8-3.3c0-0.8-0.1-1.6,0-2.3
	c0.3-1.6,1.3-2.4,3-2.3c0.7,0,1.5,0.2,2.2,0.4c2.9,0.9,5.8,1.9,8.8,2.8c2.1,0.7,4.2,1.6,6,2.9c0.3,0.2,0.8,0.3,1.4,0.5
	c1.2-3.7,2.3-7.2,3.4-10.8C94.5,182.6,94.4,182.2,94.4,181.8z M433.4,168.9c0-10.2-6.5-17.4-15-18c-3-0.2-5.9,0.7-8.6,1.9
	c-6.1,2.9-9.2,9.5-7.4,16.1c1.4,4.8,4,8.8,8.7,11.1c5.7,2.8,11.2,1.8,16.4-1.5C431.4,175.8,433.3,172,433.4,168.9z M86.4,156.9
	c0,1.6-0.5,3.2-0.7,4.8c-0.4,2.7-0.6,5.4,0.3,8c1.1,3.1,3.3,5.2,6.6,5.7c3.4,0.5,5.9-1,7.9-3.7c0.3-0.4,0.5-0.8,0.7-1.2
	c0.4-0.7,0.6-1.5,0.4-2.4c-0.3-1.2-0.4-2.3-0.4-3.6c0.8,0.2,1.5,0.3,2.3,0.5c0.6-1.2,1.2-2.2,1.8-3.3c0.6-1.1,1.2-2.1,1.7-3.2
	c0.5-1,1.4-2,1.4-3.2c-0.3-0.2-0.6-0.4-0.8-0.4c-3.2-0.7-6.1-2.2-9-3.8c-2.5-1.4-5.1-2.8-7.6-4.1c-1.3-0.7-2.7-1.3-4.2-1.4
	c-3.6-0.3-6.4,1.1-8.5,3.8c-1.7,2.1-2.9,4.6-3.6,7.2c-0.3,1.1-0.5,2.3-0.8,3.5c1.7,1.7,3.1,3.6,5.3,4.7c0.3-1.1,0.5-2,0.8-2.8
	c0.6-1.4,1.3-2.9,2.1-4.2c0.4-0.6,1.1-1,1.8-1.3C84.8,156.1,85.6,156.2,86.4,156.9z M338.2,86.1c2.2-3,3.3-6.1,3.4-9.5
	c0-1.2-0.1-2.4-0.4-3.6c-1.6-6.4-9-9.2-13.4-8.7c-3.9,0.4-7,2.2-9.5,5.2c-1.7,2.1-2.9,4.5-3.6,7.1c-0.6,2.1-0.8,4.2-0.4,6.3
	c0.8,4.1,3.1,7.1,6.4,9.4c2.5,1.7,5.3,2.7,8.1,3.5c0.9,0.3,1.6,0.1,2.3-0.6c1.5-1.5,3.1-2.9,4.6-4.4c0.2-0.2,0.3-0.6,0.6-1.1
	c-1.1-0.1-1.9-0.1-2.7-0.1c-2.1-0.1-4-0.6-5.8-1.7c-2.3-1.4-3.5-3.5-3.5-6.2c0-0.4,0.2-0.8,0.3-1.4c2.5,0.6,4.5,1.8,6.6,2.7
	C333.5,84.1,335.7,85,338.2,86.1z M281.6,66.9c1.1-3.6,1.2-6.9,0.2-10.2c-1.1-3.7-3.6-6.3-7.3-7.4c-7.3-2.2-13.5,1.1-16.4,7
	c-1.3,2.7-1.7,5.6-1.7,8.7c0,6.3,3.9,11.4,9.9,13.3c3.2,1,6.4,1.2,9.6,1c0.9,0,1.6-0.4,2-1.2c1-2,2.1-3.9,3.1-5.9
	c0.1-0.3,0-0.6,0.1-1.1c-1.5,0.4-2.7,0.8-4,1.1c-1.9,0.5-3.7,0.3-5.5-0.3c-2.7-0.9-4.1-2.6-4.6-5.9c2.4-0.1,4.8,0.2,7.2,0.4
	C276.5,66.6,278.9,66.7,281.6,66.9z M163.3,88.3c0.8-0.5,1.4-0.9,2.1-1.3c2.9-1.6,5.9-3.2,8.8-4.8c0.6-0.3,1.2-0.8,1.7-1.2
	c-1-4.1-3.8-7.9-7.1-9.8c-1.6-0.9-3.3-1.3-5.1-1.3c-7.7-0.1-14.1,7-13.2,14.7c0.5,3.8,2,7.2,4.4,10.1c3,3.6,6.9,5.2,11.6,4.8
	c5-0.4,8.9-2.9,12.5-5.8c0.2-4.2-0.3-7.3-1.3-8.9c-0.5,0.7-1.1,1.3-1.6,1.9c-1.2,1.4-2.6,2.6-4.4,3.4
	C168.8,91.7,166,91.1,163.3,88.3z M229.1,49.7c-3.8,0.4-7.6,0.4-11.4,1.2c0.2,0.5,0.3,0.9,0.5,1.2c1.1,2.2,2.4,4.4,3.4,6.7
	c2.6,5.7,5,11.4,7.5,17.1c0.4,0.9,0.9,1.8,1.2,2.7c2.2,0.3,8-0.3,9.9-0.9c0.1-0.4,0.3-0.8,0.4-1.2c0.9-3.4,1.7-6.8,2.6-10.3
	c1.5-5.7,2.7-11.6,5-17.1c0.1-0.2,0-0.5,0-0.9c-1.3-0.5-2.6,0-3.9,0.2c-1.3,0.1-2.8-0.2-4.1,0.7c-0.3,1.7-0.6,3.3-0.9,4.9
	c-0.3,1.6-0.7,3.3-1,4.9c-0.3,1.6-0.6,3.3-1.1,4.9c-0.4,1.5-0.4,3.2-1.4,4.9c-0.9-2.4-1.7-4.4-2.5-6.5c-0.8-2-1.6-4-2.3-6
	C230.4,54.1,229.8,52,229.1,49.7z M199,85.6c-0.3-0.5-0.5-0.9-0.8-1.2c-1.2-1.7-2.1-3.5-2.9-5.4c-2.8-7.6-5.6-15.2-8.4-22.8
	c-1-2.7-1.7-5.5-1.9-8.4c0-0.2-0.2-0.4-0.4-0.6c-2.1,0.6-9.2,4.1-11.3,5.6c0.1,0.3,0.2,0.7,0.4,1c1.6,2.1,2.7,4.5,3.6,6.9
	c2.6,7.1,5.2,14.1,7.8,21.2c0.7,2,1.4,4,1.5,6.2c0,0.6,0.3,1.2,0.4,1.8c0.4,0,0.7,0.1,1,0c3.3-1.2,6.6-2.4,9.9-3.6
	C198.4,86.2,198.7,85.9,199,85.6z M81.5,234.6c0.3-0.5,0.6-0.9,0.8-1.3c1.2-2.9,1.9-6,2.1-9.2c0.2-2.7-0.4-5.2-2-7.4
	c-1.6-2.3-3.9-3.4-6.6-3.6c-2.4-0.1-4.4,0.7-6.2,2.1c-1.3,1-2.5,2.2-3.8,3.3c-0.8,0.7-1.6,1.3-2.5,1.8c-1.2,0.6-2.2-0.2-2.3-1.5
	c-0.1-1.5,0.6-2.7,1.3-3.9c0.4-0.7,1.2-1.2,1.1-2.1c-1.8-0.8-5-1.2-6.8-0.9c-1.7,2.9-2.3,6-2.4,9.3c0,2.6,0.7,5,2.4,7
	c2.5,3.2,7.3,4.4,11,1.8c1.3-0.9,2.4-2,3.6-3c0.8-0.7,1.6-1.5,2.5-2.2c0.7-0.6,1.4-0.9,2.3-0.9c0.8,0,1.4,0.5,1.6,1.3
	c0.3,1.6,0,3.2-0.9,4.6c-0.5,0.9-1.2,1.6-1.8,2.4c-0.2,0.3-0.4,0.7-0.7,1.2C76.7,234.3,79.2,234.3,81.5,234.6z M417.7,137.6
	c-0.1-0.4-0.1-0.8-0.2-1.3c-1.9-4.9-5.2-8.6-10-10.8c-1.6-0.7-3.3-1.1-5.1-1.2c-6.9-0.6-13.7,5.1-15.4,10.8
	c-0.5,1.8-0.9,3.6-0.7,5.5c0.6,5.2,3.4,9.1,7.4,12.4c1.1-0.3,2.1-0.5,3.1-0.7c0.9-0.2,1.8-0.5,2.7-0.7c0.9-0.2,1.9-0.3,2.8-1.2
	c-0.7-0.5-1.3-0.7-1.8-1.1c-1.1-0.8-2.3-1.6-3.3-2.6c-2.5-2.8-2.5-6.2,0-9.1c1.1-1.2,2.3-2.2,3.8-2.8c4.2-1.9,7.7-0.4,9.5,3.9
	c0.2,0.5,0.3,1.1,0.4,1.6c0.2,0.5,0.4,1,0.6,1.5C413.8,140.8,415.9,139.3,417.7,137.6z M297.8,83.8c0.4-2.8,0.6-5.2,1.1-7.5
	c0.6-2.9,1.6-5.7,2.2-8.6c0.4-1.9,1.5-2.8,3.2-3.4c1.6-0.5,3.1-0.5,4.6,0.3c0.5,0.3,1,0.5,1.4,0.7c1.4-1.8,3.1-5.4,3.5-7.6
	c-2.2-1.4-4.3-1.9-6.6-0.2c-0.8,0.6-1.7,1.1-2.6,1.6c-0.4,0.2-0.7,0.7-1.2,0.2c0-1.3,0.8-2.5,0.5-3.8c-2.6-1.2-8.6-2.7-10.9-2.7
	c-0.1,0.5-0.2,1.1-0.2,1.6c0.1,2.3-0.3,4.4-0.9,6.6c-1,3.9-2,7.7-3.1,11.6c-0.6,2.3-1.4,4.6-2.7,6.7c-0.2,0.3-0.2,0.7-0.4,1
	c0.3,0.2,0.5,0.5,0.7,0.6C290.3,81.9,294,83,297.8,83.8z M217.4,80.9c-0.2-0.5-0.3-0.9-0.5-1.2c-1.2-1.9-1.9-4-2.4-6.2
	c-0.8-3.3-1.7-6.7-2.5-10c-0.7-3.1-1.4-6.2-1.2-9.4c0-0.3-0.2-0.7-0.2-1c-1.5-0.3-2.8,0.4-4.2,0.6c-1.5,0.3-2.9,0.6-4.3,1.1
	c-1.3,0.4-2.8,0.3-3.7,1.3c0.9,2.5,2,4.8,2.6,7.2c1.2,4.2,2.2,8.5,3.2,12.7c0.5,2,0.9,4,0.8,6.1c0,0.5,0.1,1.1,0.1,1.5
	c0.9,0.5,1.6,0.2,2.3,0C210.7,82.6,214.1,82.2,217.4,80.9z M153.3,420.5c0.6-0.9,1.1-1.4,1.5-2.1c1.2-1.8,2.3-3.6,3.4-5.4
	c3.7-5.8,7.4-11.6,11-17.4c0.5-0.8,1.2-1.4,1-2.5c-0.7-0.7-1.5-1.3-2.8-1.5c-2.8,4-5.2,8.3-7.9,12.2c-0.6-0.2-0.5-0.6-0.6-0.9
	c-1.8-5.4-7.7-7.9-12.6-5c-4,2.4-6.2,6.1-6.2,10.9c0,5,4.9,8.7,8.7,8.3c0.7-0.1,1.4-0.1,2.2-0.1c-0.1,0.7-0.2,1.3-0.3,2
	C151.5,419.4,152.3,419.9,153.3,420.5z M322.7,413.1c0.2,0.7,0.4,1.3,0.6,1.7c3.6,7.4,7.2,14.9,10.9,22.3c0.2,0.5,0.6,0.9,0.9,1.3
	c1.2-0.2,2.1-0.6,2.9-1.4c-0.4-1.8-1.4-3.2-2.1-4.8c-0.7-1.7-1.7-3.2-2.4-5.2c0.6,0.1,0.9,0.2,1.3,0.2c5.6,1.4,10.9-2.6,10.8-8.4
	c0-3.9-1.6-7.2-4.6-9.8c-2.7-2.3-5.8-2.6-9.1-1.3c-2.3,0.9-3.8,2.6-4.6,4.9c-0.1,0.2-0.3,0.4-0.5,0.6c-0.4-0.5-0.9-1-1.3-1.6
	c-0.5,0.2-0.9,0.3-1.3,0.5C323.7,412.5,323.3,412.7,322.7,413.1z M373.6,382.6c-0.9,0-1.6-0.1-2.2,0c-4.4,0.5-8.2,5.1-7.5,9.5
	c0.8,4.7,3.5,8.2,8,9.9c4.9,1.9,10.2-1.1,11.5-6.2c0.1-0.5,0.2-1.1,0.3-1.8c0.6,0.4,1.1,0.7,1.7,1c0.9-0.6,1.8-1.1,2.3-2.1
	c-0.2-0.3-0.3-0.7-0.5-1c-3.7-4.3-7.4-8.6-11.1-12.9c-0.2-0.2-0.5-0.3-0.9-0.5c-0.7,0.6-1.5,1.3-2.2,1.9
	C373.1,381.2,373.3,381.7,373.6,382.6z M252.4,429.1c-0.5-0.4-0.7-0.6-1-0.8c-5.1-4-12-1.9-13.9,4.2c-0.9,2.8-1,5.7,0,8.5
	c0.4,1.2,1.1,2.4,2,3.3c2.8,3.3,8.3,3.7,11.4,1.2c0.4-0.3,0.9-0.7,1.4-1.1c0.2,0.7,0.4,1.3,0.5,1.9c1.1,0.3,2,0.4,3,0
	c0.1-0.3,0.3-0.6,0.3-0.8c0.2-5.5,0.4-11,0.5-16.5c0-0.5-0.2-1-0.4-1.5c-1.1-0.3-2.1-0.4-3.1,0C252.9,428,252.7,428.4,252.4,429.1z
	 M180.3,423.6c1.6-2.1,2-4.3,1.8-6.7c-0.6-6.4-7.7-9.3-12.2-7.8c-4,1.4-6.2,4.4-7.2,8.3c-1.8,7,4.2,13.5,11.3,12.3
	c1.6-0.3,3.3-0.7,4.4-2.3c-0.3-0.5-0.5-1-0.8-1.5c-0.2-0.3-0.5-0.5-0.8-0.9c-0.8,0.3-1.5,0.7-2.3,1c-2.5,0.8-4.8,0.5-6.7-1.4
	c-1-1-1.5-2.1-1.5-3.5c0-1.2,0-2.4,1-3.4C171.7,419.6,175.8,421.9,180.3,423.6z M363.7,401.6c-0.1-0.5-0.1-0.9-0.4-1.2
	c-0.8-1-1.6-2.1-2.6-2.9c-2.7-2.2-5.7-2.7-8.9-1.3c-3.3,1.5-5.7,3.9-6,7.7c-0.4,5,1.9,8.6,6,11.1c1.6,1,3.4,1.5,5.4,1.2
	c3.2-0.5,5.8-2,7.6-4.7c1.3-1.9,1.9-4,1.4-6.2c-1.7-0.3-1.7-0.3-3.2,0.2c-0.2,1.5-0.2,3.3-1.3,4.7c-1.1,1.4-2.5,2.2-4.2,2.5
	c-1.1,0.2-2.2-0.1-3.2-0.6c-1.1-0.6-2-1.3-2.5-2.6C355.8,406.8,359.7,404.2,363.7,401.6z M218.3,434.9c1,0,1.7,0,2.4,0.1
	c2.9,0.4,5.9,1,8.8,1.4c1,0.1,2,0.4,3,0c1.3-3.7,0.2-7.8-2.7-10.1c-4.3-3.4-11-2.4-14,2.2c-1.9,3-2.4,6.3-1.5,9.6
	c1.9,7.5,11.2,8.9,15.7,5c0.7-0.6,1.5-1.1,1.6-2.2c-0.5-0.8-1.2-1.5-2.2-1.8c-0.9,0.7-1.7,1.5-2.7,2.1c-2.2,1.2-4.5,1.2-6.6-0.4
	C218.3,439.4,217.6,437.5,218.3,434.9z M321.4,424.5c-0.1-1.3-0.7-2.4-1.3-3.4c-2.1-3.5-5.4-5-9.5-4.3c-4.7,0.8-7.9,4.6-7.9,9.4
	c0,2.7,0.8,5.2,2.4,7.3c2.2,3,5.2,4.4,9,3.8c4-0.6,6.9-2.6,8.3-6.5c0.2-0.6,0.2-1.2,0.2-2c-1-0.3-1.8-0.5-2.8-0.8
	c-0.4,0.8-0.6,1.5-1,2.2c-0.5,0.8-0.9,1.7-1.6,2.3c-1.6,1.5-3.6,2.1-5.7,1.4c-2.1-0.6-3.5-2-4-4.4c2.4-0.8,4.7-1.6,6.9-2.4
	C317,426.2,319.4,425.8,321.4,424.5z M119,371.7c-5.7,0.1-10.5,4.6-10.4,10.5c0.1,5.6,4.2,10.3,10.6,10.4
	c5.8,0.1,10.4-4.5,10.4-10.2C129.6,376.2,124.7,371.8,119,371.7z M374.8,368.4c1.3,2.1,3.6,3.2,4.8,5.4c-0.6,0.8-1.2,1.6-1.7,2.3
	c0.4,1,1,1.7,2.1,2c0.7-0.6,1.5-1.2,2.4-1.9c2,1.9,3.8,3.7,5.7,5.5c1.9,1.7,3.5,3.8,5.7,5.2c1.1-0.6,1.8-1.4,2.3-2.5
	c-1.6-2.2-3.7-3.7-5.5-5.6c-1.8-1.9-3.8-3.5-5.5-5.5c0.7-0.9,1.2-1.7,1.8-2.5c-0.6-0.9-1.1-1.7-2.2-1.8c-0.7,0.6-1.4,1.2-2.2,1.8
	c-2.1-1.3-3.4-3.5-5.5-4.7C376.1,366.6,375.3,367.4,374.8,368.4z M263,430.2c1,5.2,0.6,10.4,1.5,15.5c1.7,0.5,1.7,0.5,3.5-0.2
	c-0.1-2.5-0.1-5.1-0.4-7.6c-0.3-2.6-0.5-5.2-0.2-7.8c1-0.3,1.9-0.5,2.7-0.8c0.4-1,0.3-1.9-0.3-2.7c-0.9-0.1-1.8-0.2-2.8-0.3
	c-0.7-2.3-0.2-4.7-1.1-6.9c-1.1-0.3-2.2-0.4-3.2,0.4c0,2.3,0,4.6,0,6.9c-1,0.2-1.9,0.4-2.7,0.6c-0.3,1.5-0.3,1.5,0.2,2.8
	C261.1,430.1,262,430.1,263,430.2z M202.3,52.1c4.1,0.1,6.3-3.4,6.3-6.1c0-3.4-2.7-6-6-6.1c-3.9-0.1-6.3,2.8-6.4,6
	C196.1,49.3,198.9,52.1,202.3,52.1z M375.2,128.6c3.4,0,6.2-2.9,6.1-6.3c-0.1-3.3-3-5.9-6.1-5.9c-3.5,0-6.2,2.9-6.2,6.1
	C368.9,125.9,371.8,128.7,375.2,128.6z M298.9,421.2c-0.4-0.1-1-0.3-1.5-0.3c-2.4,0.3-4.2,1.5-5.2,3.7c-0.1,0.2-0.2,0.5-0.4,0.8
	c-0.5-1-0.9-1.6-1.2-2.2c-1.1,0.1-2,0-2.7,0.9c0,0.3,0,0.7,0.1,1.1c1.2,5.4,2.5,10.9,3.8,16.3c0.1,0.3,0.3,0.5,0.4,0.8
	c1.1,0,2.2,0,3.1-0.9c-0.1-0.5-0.1-1.1-0.2-1.6c-0.6-2.5-1.2-5.1-1.7-7.6c-0.2-1.2-0.3-2.4-0.2-3.6c0.1-1.9,1.2-3.3,3.1-3.8
	c0.8-0.2,1.6-0.4,2.3-0.6C299,423.2,299.2,422.3,298.9,421.2z M146.1,392.5c-2-2.7-2.7-3.1-7.6-3.2c0.3-0.6,0.5-1.2,0.8-1.8
	c-0.8-0.7-1.3-1.6-2.6-1.6c-0.3,0.4-0.7,0.8-1.1,1.2c-3.4,4.3-6.8,8.6-10.2,12.9c-0.1,0.1-0.1,0.3-0.1,0.5c1,1.4,1,1.4,2.7,2
	c0.6-0.6,1.2-1.3,1.7-2c1.5-1.8,2.8-3.7,4.4-5.4c0.9-1,2-1.9,3.2-2.7c1.4-0.9,2.9-0.7,4.2,0.2c0.7,0.5,1.3,1,1.9,1.5
	C144.9,393.8,144.9,393.8,146.1,392.5z M186,434.9c0.3-0.8,0.6-1.5,0.9-2.2c0.8-2.2,1.5-4.4,2.3-6.6c0.5-1.3,1.2-2.5,2-3.6
	c1.2-1.5,2.8-2,4.7-1.3c0.7,0.3,1.4,0.5,2,0.7c1.4-1.2,1.3-1.2,1.7-2.5c-2-1.7-3.7-2-5.9-1.2c-0.6,0.2-1.2,0.5-1.8,0.7
	c-0.1,0-0.3-0.1-0.5-0.1c0.1-0.6,0.1-1.2,0.2-1.8c-0.9-0.6-1.7-1.1-2.8-0.8c-1.1,1.8-1.6,3.9-2.3,5.9c-0.7,1.9-1.4,3.8-2,5.8
	c-0.6,2-1.6,3.9-1.9,6C183.8,434.7,184.7,435,186,434.9z M274.1,437.6c2.4-0.3,4.8-0.7,7.2-1c2.2-0.2,2.5-0.8,2-2.9
	c-0.1-0.3-0.4-0.6-0.6-1c-1.6,0.2-3.2,0.3-4.7,0.6c-1.5,0.3-3.2,0-4.6,1C273.2,435.4,273.2,436.3,274.1,437.6z M198.5,430.9
	c2,1,6.4,2.2,9.2,2.5c0.5-0.9,1-1.9,0.8-3c-0.9-1-2.1-0.9-3.2-1.3c-1-0.3-2-0.5-3-0.8c-1.1-0.3-2.1-0.8-3.3-0.3
	C198.8,429,198.1,429.9,198.5,430.9z"/>
<path class="st0" d="M251.9,405.1c-87.4-0.4-157.5-70.9-157.2-158.1C95,158.4,167.3,90,252.3,90.1c85.2,0.1,157.3,69.1,157.2,157.7
	C409.5,334.5,339.4,405,251.9,405.1z M252,396.7c82.1-0.1,148.8-66.2,149.1-148.6c0.2-83.5-67.4-149.5-149-149.5
	c-81.6,0-148.8,65.8-149.1,148.6C102.8,329.8,169.5,396.5,252,396.7z"/>
<path class="st0" d="M423.2,234.4c-1.2-3.2-1.5-6.6-2.3-9.8c-0.2-0.8-0.2-1.6-0.2-2.4c0.5-0.1,0.7-0.3,1-0.2c2.3,0.4,4.5,0,6.7-0.4
	c3-0.5,6-1.3,9-1.9c0.5-0.1,0.9-0.2,1.4-0.3c2.5-0.8,3.2-2.8,1.9-5c-0.3-0.5-0.7-0.9-1.3-0.8c-0.6,0.1-1.3,0.1-1.9,0.3
	c-2.5,0.5-5.1,1.1-7.6,1.6c-3.3,0.7-6.5,1.4-9.5,3.3c-1.4-2-1.3-4.2-1.8-6.2c-0.5-2-1.1-3.9-1-6.2c0.6-0.1,1.1-0.2,1.6-0.2
	c2.4,0.1,4.8-0.1,7.2-0.7c2.6-0.6,5.3-1.1,7.9-1.7c0.4-0.1,0.7-0.2,1.1-0.3c2.4-0.7,3.5-2.4,2-5.2c-0.2-0.3-0.5-0.5-0.8-0.9
	c-3,0.6-6,1.2-9,1.9c-2,0.4-4,0.9-6,1.4c-1.6,0.5-3.1,1.2-4.7,1.9c-0.2-0.2-0.4-0.4-0.5-0.7c-0.7-3.2-1.4-6.3-2.1-9.5
	c-0.1-0.6-0.1-1.2-0.2-1.8c0.3-0.2,0.5-0.3,0.6-0.3c3.3,0.3,6.5-0.4,9.7-1c3.3-0.7,6.5-1.4,9.8-2.1c2.4-0.5,4.7-1.2,6.8-2.4
	c0.3-0.2,0.7-0.2,1.1-0.4c0.2,0.3,0.4,0.5,0.5,0.8c0.7,3,1.3,6,2,9c0.1,0.3,0,0.7,0,1.3c-1.1,0.4-2.2,0.8-3.3,1.1
	c-0.1,0.7,0.4,0.9,0.7,1.1c1,0.7,2,1.4,3,2c1,0.6,1.6,1.5,1.9,2.7c0.8,3.6,0.5,6.9-2.7,9.3c-0.1,0.1-0.2,0.3-0.4,0.5
	c0.4,0.4,0.8,0.7,1.2,1.1c0.8,0.5,1.5,1.1,2.3,1.5c3,1.5,3.5,4.2,3.4,7c-0.2,3-1.7,5.3-4.6,6.5c-0.9,0.4-1.9,0.7-2.9,0.9
	c-3.5,0.8-7.1,1.5-10.6,2.3c-2.7,0.6-5.4,1.2-7.9,2.6C424.1,234.2,423.7,234.3,423.2,234.4z"/>
<path class="st0" d="M89,133.2c1.2-2.3,5.4-7.4,7.3-9c0.7,0.4,1.5,0.9,2.5,1.5c-0.2-1.3-0.3-2.4-0.5-3.5c-0.2-1,0.1-1.8,0.7-2.6
	c2-2.8,4.7-4.5,8.2-4.6c1.7-0.1,3.3,0,5,0.6c5.3,1.9,9.4,5.2,11.7,10.4c2.5,5.6,1.1,11.1-3.5,15.1c-0.4,0.4-0.8,0.7-1.3,1.1
	c2.1,2.3,4.8,3.2,7.5,4.4c-0.1,0.4-0.2,0.8-0.4,1.1c-2.4,3-4.8,5.9-7.2,8.9c-0.1,0.1-0.3,0.2-0.6,0.4c-0.3-0.3-0.7-0.7-1-1.1
	c-1.4-2.1-3.2-3.9-5.1-5.5c-4.8-3.9-9.7-7.9-14.5-11.8C95,136.4,92.4,134.3,89,133.2z M113.2,137.7c1.4-0.6,2.1-1.5,2.4-2.6
	c0.3-1.2,0.3-2.4-0.3-3.5c-1.7-3.3-4.4-5.5-7.9-6.5c-1.9-0.6-3.5,0.4-4.2,2.3c-0.4,1.1-0.3,1.9,0.7,2.7
	C107,132.6,110.1,135.1,113.2,137.7z"/>
<path class="st0" d="M127.5,91.5c-2-3.1-4.5-5.2-7.2-7.2c0.6-1.4,1.8-2.2,2.7-3.2c1-1.1,2-2.2,3.1-3.2c1-1,1.8-2.1,3.4-3
	c0.1,0.2,0.2,0.5,0.3,0.7c1.1,2.9,2.9,5.4,4.8,7.8c4.9,6.1,9.9,12.1,14.8,18.1c1.4,1.7,2.9,3.2,4.7,4.4c0.4,0.3,0.7,0.6,1.1,0.9
	c-0.2,0.3-0.2,0.6-0.4,0.8c-2.6,2.1-5.1,4.3-7.8,6.5c-0.7-0.4-1.3-0.8-2-1.3c-0.1,0.9-0.3,1.6-0.3,2.4c-0.1,1.3-0.7,2.2-1.7,3
	c-2.9,2.1-6.1,3.1-9.7,2.7c-2.4-0.3-4.5-1.2-6.3-2.7c-5.5-4.6-7.6-12.5-5.1-19.3c0.7-2,1.9-3.8,3.4-5.4
	C125.9,92.8,126.7,92.3,127.5,91.5z M132,96.8c-3.3,1.4-4,2.7-3.2,5.7c0.1,0.5,0.3,1.1,0.6,1.6c1.3,2.6,3.2,4.8,5.5,6.6
	c0.7,0.5,1.6,0.9,2.5,1.2c1.3,0.4,2.8-0.3,3.6-1.5c0.7-1.1,0.6-1.9-0.5-3.3c-2.2-2.7-4.4-5.3-6.5-8C133.3,98.3,132.7,97.7,132,96.8z
	"/>
<path class="st0" d="M361.4,116.1c-0.3,0-0.5,0.1-0.7,0c-0.4-0.2-0.8-0.4-1.2-0.7c-2.4-1.7-4.9-3.4-7.3-5.1c0.2-0.8,0.4-1.5,0.7-2.4
	c-1,0.2-1.9,0.3-2.7,0.5c-1,0.2-1.8,0-2.6-0.6c-6.5-4.6-7.5-12.4-3.4-18.1c3.8-5.2,8.8-7.8,15.2-7.7c2.5,0,4.7,0.8,6.9,2
	c0.7,0.4,1.4,0.8,2.3,1.4c2.4-2.4,3.7-5.5,4.9-8.7c2.2,0.5,3.9,1.8,5.8,2.8c1.9,1,3.8,1.9,5.4,3c0.2,0.9-0.3,1.1-0.6,1.4
	c-1.9,1.4-3.4,3.2-4.8,5.1c-5,7.1-10,14.1-14.9,21.2c-1,1.4-1.6,3.1-2.4,4.7C361.8,115.1,361.6,115.6,361.4,116.1z M364.7,91.2
	c-2.1-2.8-3.9-3.1-6.4-1.6c-0.3,0.2-0.6,0.4-0.9,0.7c-2.4,2.1-4.2,4.7-5.3,7.7c-0.2,0.7-0.4,1.4-0.4,2.2c0,1.7,1.1,3,2.8,3.3
	c0.8,0.2,1.5,0,2-0.6c0.4-0.5,0.8-1,1.2-1.6c1.8-2.6,3.6-5.2,5.4-7.8C363.6,92.8,364.1,92,364.7,91.2z"/>
<path class="st0" d="M94.4,181.8c0,0.5,0.1,0.9,0,1.2c-1.1,3.5-2.2,7.1-3.4,10.8c-0.6-0.2-1.1-0.2-1.4-0.5c-1.9-1.3-3.9-2.2-6-2.9
	c-2.9-0.9-5.8-1.9-8.8-2.8c-0.7-0.2-1.4-0.4-2.2-0.4c-1.6-0.1-2.7,0.7-3,2.3c-0.1,0.7,0,1.4,0,2.3c3.2,1.4,6.6,2.2,9.8,3.3
	c3.2,1.1,6.6,1.9,10,2.1c-0.1,2.1-2.3,9.2-3.7,11.9c-0.4-0.1-0.9-0.2-1.2-0.4c-2-1.4-4.3-2.3-6.6-3c-3.7-1.2-7.4-2.4-11.2-3.6
	c-2.4-0.8-4.8-1.4-7.4-1.4c-0.3,0-0.5-0.1-0.9-0.2c-0.3-1.3,0.4-2.3,0.7-3.4c0.4-1.3,0.8-2.5,1.2-3.7c0.4-1.1,0.8-2.3,1.2-3.3
	c1.6-0.5,2.8,0.7,4.4,0.6c-0.2-0.5-0.3-0.9-0.5-1.3c-0.5-0.9-0.9-1.8-1.5-2.7c-1.2-1.7-1.1-3.4-0.3-5.3c1.8-4.4,5.3-6.3,9.8-5.1
	c3.4,0.9,6.8,2.1,10.1,3.1c1.2,0.4,2.3,0.7,3.5,1.1c1.9,0.6,3.8,1,5.7,1.1C93.3,181.5,93.8,181.7,94.4,181.8z"/>
<path class="st0" d="M433.4,168.9c-0.1,3.1-1.9,6.9-5.9,9.5c-5.2,3.4-10.7,4.3-16.4,1.5c-4.7-2.3-7.3-6.2-8.7-11.1
	c-1.9-6.5,1.2-13.2,7.4-16.1c2.7-1.3,5.6-2.2,8.6-1.9C426.9,151.5,433.4,158.8,433.4,168.9z M410.6,171.6c4.2,1.3,8.7,0,11.4-3.3
	c1.7-2,2.6-4.3,2.6-6.9c0-1.6-0.7-2.2-2.3-2c-3.8,0.4-7.2,1.8-9.7,4.9C411,166.4,410,168.7,410.6,171.6z"/>
<path class="st0" d="M86.4,156.9c-0.8-0.7-1.7-0.8-2.4-0.4c-0.7,0.3-1.4,0.7-1.8,1.3c-0.8,1.3-1.5,2.8-2.1,4.2
	c-0.4,0.8-0.5,1.8-0.8,2.8c-2.3-1.1-3.6-3-5.3-4.7c0.3-1.2,0.5-2.3,0.8-3.5c0.8-2.6,1.9-5,3.6-7.2c2.2-2.7,5-4.1,8.5-3.8
	c1.5,0.1,2.9,0.7,4.2,1.4c2.5,1.4,5.1,2.7,7.6,4.1c2.8,1.6,5.7,3.1,9,3.8c0.3,0.1,0.5,0.2,0.8,0.4c0,1.3-0.9,2.2-1.4,3.2
	c-0.5,1.1-1.1,2.1-1.7,3.2c-0.6,1.1-1.2,2.1-1.8,3.3c-0.8-0.2-1.5-0.3-2.3-0.5c0,1.3,0.1,2.5,0.4,3.6c0.2,0.9,0,1.7-0.4,2.4
	c-0.2,0.4-0.5,0.8-0.7,1.2c-2,2.7-4.5,4.2-7.9,3.7c-3.3-0.5-5.5-2.6-6.6-5.7c-0.9-2.6-0.7-5.3-0.3-8
	C85.9,160.1,86.4,158.5,86.4,156.9z M93,160.3c-0.9,0.8-1.3,1.8-1.7,2.8c-0.1,0.3-0.1,0.8,0.1,1.1c0.9,1.9,3.6,2.3,4.7,0.5
	c0.4-0.7,0.9-1.4,0.8-2.4C95.7,161.5,94.5,160.7,93,160.3z"/>
<path class="st0" d="M338.2,86.1c-2.5-1.1-4.7-2.1-6.9-3c-2.1-0.9-4.1-2.1-6.6-2.7c-0.1,0.5-0.3,0.9-0.3,1.4c0,2.7,1.1,4.8,3.5,6.2
	c1.8,1.1,3.7,1.6,5.8,1.7c0.8,0,1.6,0.1,2.7,0.1c-0.3,0.5-0.3,0.9-0.6,1.1c-1.5,1.5-3.1,2.9-4.6,4.4c-0.7,0.6-1.4,0.8-2.3,0.6
	c-2.9-0.8-5.7-1.8-8.1-3.5c-3.4-2.3-5.6-5.3-6.4-9.4c-0.4-2.2-0.2-4.3,0.4-6.3c0.7-2.6,1.9-5,3.6-7.1c2.5-3,5.6-4.8,9.5-5.2
	c4.4-0.5,11.9,2.3,13.4,8.7c0.3,1.2,0.4,2.4,0.4,3.6C341.6,80,340.4,83.1,338.2,86.1z M327,74.2c1.8,1.2,3.7,1.9,5.5,2.6
	c1-1.7,1.3-2.5,0.9-3.4c-0.3-0.6-0.8-1.3-1.3-1.7C330.3,70.5,328.6,71.3,327,74.2z"/>
<path class="st0" d="M281.6,66.9c-2.6-0.2-5-0.3-7.4-0.6c-2.4-0.3-4.7-0.5-7.2-0.4c0.5,3.3,1.9,5.1,4.6,5.9c1.8,0.6,3.6,0.7,5.5,0.3
	c1.2-0.3,2.5-0.7,4-1.1c0,0.5,0.1,0.8-0.1,1.1c-1,2-2.1,4-3.1,5.9c-0.4,0.8-1.1,1.2-2,1.2c-3.3,0.2-6.5,0-9.6-1
	c-6.1-1.9-9.9-7-9.9-13.3c0-3,0.4-5.9,1.7-8.7c2.9-5.9,9-9.2,16.4-7c3.8,1.1,6.2,3.7,7.3,7.4C282.7,60,282.7,63.3,281.6,66.9z
	 M272.8,60c0.7-1.4,0.7-1.5,0.6-2.1c-0.2-1.4-0.9-2.3-2.1-2.6c-1.4-0.3-2.6,0.1-3.4,1.3c-0.5,0.8-0.9,1.6-0.8,2.6
	c0.3,0.1,0.5,0.3,0.8,0.3C269.5,59.7,271.2,59.9,272.8,60z"/>
<path class="st0" d="M163.3,88.3c2.7,2.8,5.4,3.4,8.5,2c1.7-0.8,3.1-2,4.4-3.4c0.5-0.6,1.1-1.3,1.6-1.9c1,1.5,1.4,4.6,1.3,8.9
	c-3.6,2.9-7.6,5.4-12.5,5.8c-4.7,0.4-8.6-1.2-11.6-4.8c-2.4-2.9-3.9-6.3-4.4-10.1c-0.9-7.7,5.4-14.8,13.2-14.7
	c1.8,0,3.5,0.4,5.1,1.3c3.3,1.8,6.1,5.6,7.1,9.8c-0.5,0.4-1.1,0.8-1.7,1.2c-2.9,1.6-5.9,3.2-8.8,4.8
	C164.8,87.4,164.2,87.8,163.3,88.3z M159.8,82.8c2.8-1,4.1-1.7,5.4-3.1c-1.4-2.5-3-3.3-4.8-2.1c-0.6,0.4-1.1,1-1.3,1.7
	C158.7,80.5,159.1,81.7,159.8,82.8z"/>
<path class="st0" d="M229.1,49.7c0.7,2.3,1.3,4.4,2,6.5c0.7,2,1.5,4,2.3,6c0.8,2.1,1.6,4.1,2.5,6.5c1.1-1.7,1-3.4,1.4-4.9
	c0.4-1.6,0.7-3.3,1.1-4.9c0.3-1.6,0.7-3.3,1-4.9c0.3-1.6,0.6-3.3,0.9-4.9c1.3-0.9,2.7-0.6,4.1-0.7c1.3-0.1,2.5-0.6,3.9-0.2
	c0,0.3,0.1,0.6,0,0.9c-2.3,5.5-3.5,11.4-5,17.1c-0.9,3.4-1.7,6.8-2.6,10.3c-0.1,0.4-0.3,0.9-0.4,1.2c-1.9,0.6-7.6,1.2-9.9,0.9
	c-0.4-0.8-0.8-1.7-1.2-2.7c-2.5-5.7-4.9-11.4-7.5-17.1c-1-2.3-2.3-4.5-3.4-6.7c-0.2-0.3-0.3-0.7-0.5-1.2
	C221.6,50,225.3,50.1,229.1,49.7z"/>
<path class="st0" d="M199,85.6c-0.4,0.3-0.6,0.5-0.9,0.7c-3.3,1.2-6.6,2.4-9.9,3.6c-0.2,0.1-0.5,0-1,0c-0.1-0.6-0.4-1.2-0.4-1.8
	c-0.1-2.2-0.8-4.2-1.5-6.2c-2.6-7.1-5.2-14.1-7.8-21.2c-0.9-2.4-1.9-4.8-3.6-6.9c-0.2-0.3-0.3-0.7-0.4-1c2.1-1.5,9.2-5,11.3-5.6
	c0.1,0.2,0.4,0.4,0.4,0.6c0.2,2.9,0.9,5.7,1.9,8.4c2.8,7.6,5.6,15.2,8.4,22.8c0.7,1.9,1.6,3.7,2.9,5.4
	C198.6,84.8,198.8,85.2,199,85.6z"/>
<path class="st0" d="M81.5,234.6c-2.4-0.3-4.8-0.3-7.3-1.1c0.3-0.5,0.4-0.9,0.7-1.2c0.6-0.8,1.3-1.6,1.8-2.4
	c0.9-1.4,1.1-2.9,0.9-4.6c-0.1-0.8-0.7-1.3-1.6-1.3c-0.9,0-1.6,0.3-2.3,0.9c-0.8,0.7-1.6,1.5-2.5,2.2c-1.2,1-2.3,2.1-3.6,3
	c-3.7,2.6-8.5,1.4-11-1.8c-1.6-2.1-2.4-4.4-2.4-7c0-3.3,0.7-6.5,2.4-9.3c1.9-0.3,5,0.1,6.8,0.9c0.1,0.9-0.8,1.4-1.1,2.1
	c-0.7,1.2-1.3,2.5-1.3,3.9c0.1,1.3,1.1,2.1,2.3,1.5c0.9-0.4,1.7-1.1,2.5-1.8c1.3-1.1,2.5-2.3,3.8-3.3c1.8-1.4,3.8-2.3,6.2-2.1
	c2.8,0.1,5,1.3,6.6,3.6c1.6,2.2,2.2,4.7,2,7.4c-0.2,3.2-0.9,6.3-2.1,9.2C82.1,233.7,81.8,234.1,81.5,234.6z"/>
<path class="st0" d="M417.7,137.6c-1.8,1.8-3.9,3.2-6.1,4.2c-0.2-0.5-0.4-1-0.6-1.5c-0.2-0.5-0.2-1.1-0.4-1.6
	c-1.8-4.3-5.3-5.8-9.5-3.9c-1.5,0.7-2.7,1.6-3.8,2.8c-2.5,2.8-2.6,6.3,0,9.1c0.9,1,2.1,1.8,3.3,2.6c0.5,0.4,1.1,0.7,1.8,1.1
	c-0.9,0.9-1.9,1-2.8,1.2c-0.9,0.2-1.8,0.5-2.7,0.7c-1,0.2-2,0.5-3.1,0.7c-3.9-3.3-6.8-7.2-7.4-12.4c-0.2-1.9,0.1-3.7,0.7-5.5
	c1.6-5.6,8.4-11.3,15.4-10.8c1.8,0.1,3.5,0.5,5.1,1.2c4.8,2.2,8,5.9,10,10.8C417.6,136.7,417.6,137.2,417.7,137.6z"/>
<path class="st0" d="M297.8,83.8c-3.9-0.8-7.5-1.9-11.2-2.9c-0.2-0.1-0.4-0.3-0.7-0.6c0.1-0.3,0.2-0.7,0.4-1
	c1.3-2.1,2.1-4.4,2.7-6.7c1-3.9,2-7.7,3.1-11.6c0.6-2.2,0.9-4.4,0.9-6.6c0-0.5,0.1-1.1,0.2-1.6c2.3,0,8.2,1.5,10.9,2.7
	c0.3,1.3-0.6,2.5-0.5,3.8c0.5,0.5,0.8,0,1.2-0.2c0.9-0.5,1.8-1,2.6-1.6c2.3-1.7,4.5-1.2,6.6,0.2c-0.4,2.3-2.1,5.9-3.5,7.6
	c-0.5-0.2-1-0.5-1.4-0.7c-1.5-0.8-3-0.8-4.6-0.3c-1.7,0.6-2.9,1.4-3.2,3.4c-0.6,2.9-1.6,5.7-2.2,8.6C298.4,78.6,298.2,81,297.8,83.8
	z"/>
<path class="st0" d="M217.4,80.9c-3.2,1.3-6.7,1.8-9.9,2.7c-0.7,0.2-1.4,0.5-2.3,0c0-0.4-0.2-1-0.1-1.5c0.1-2.1-0.3-4.1-0.8-6.1
	c-1-4.2-2-8.5-3.2-12.7c-0.7-2.4-1.7-4.7-2.6-7.2c0.9-1,2.4-0.9,3.7-1.3c1.4-0.5,2.9-0.8,4.3-1.1c1.3-0.3,2.6-1,4.2-0.6
	c0.1,0.3,0.3,0.7,0.2,1c-0.2,3.2,0.4,6.3,1.2,9.4c0.8,3.3,1.6,6.7,2.5,10c0.6,2.2,1.3,4.3,2.4,6.2C217.1,79.9,217.2,80.3,217.4,80.9
	z"/>
<path class="st0" d="M153.3,420.5c-1-0.6-1.8-1.1-2.6-1.6c0.1-0.7,0.2-1.3,0.3-2c-0.8,0-1.5,0.1-2.2,0.1c-3.8,0.4-8.7-3.4-8.7-8.3
	c0-4.8,2.2-8.5,6.2-10.9c4.8-2.9,10.8-0.4,12.6,5c0.1,0.3,0,0.8,0.6,0.9c2.8-3.9,5.2-8.2,7.9-12.2c1.3,0.2,2.1,0.8,2.8,1.5
	c0.2,1.1-0.5,1.8-1,2.5c-3.7,5.8-7.4,11.6-11,17.4c-1.1,1.8-2.3,3.6-3.4,5.4C154.4,419,153.9,419.6,153.3,420.5z M156.6,407.3
	c0.1-3.3-1.2-5-3.4-6.1c-1.9-0.9-3.8-1-5.5,0.3c-2.2,1.7-3.4,3.9-3.5,6.7c-0.2,4.4,5.1,7,8.4,5.1
	C155.1,411.9,156.5,409.6,156.6,407.3z"/>
<path class="st0" d="M322.7,413.1c0.6-0.4,1-0.7,1.4-0.9c0.4-0.2,0.8-0.3,1.3-0.5c0.5,0.5,0.9,1,1.3,1.6c0.2-0.2,0.4-0.4,0.5-0.6
	c0.8-2.3,2.4-4,4.6-4.9c3.3-1.3,6.4-1,9.1,1.3c3,2.5,4.6,5.8,4.6,9.8c0,5.7-5.2,9.8-10.8,8.4c-0.3-0.1-0.7-0.1-1.3-0.2
	c0.7,2,1.6,3.5,2.4,5.2c0.7,1.6,1.7,3.1,2.1,4.8c-0.8,0.8-1.7,1.3-2.9,1.4c-0.3-0.4-0.7-0.8-0.9-1.3c-3.6-7.4-7.2-14.9-10.9-22.3
	C323.1,414.4,322.9,413.8,322.7,413.1z M341.6,418.2c-0.1-2-1.2-4.2-3-5.9c-1.7-1.6-3.7-1.9-5.9-1c-2.2,1-3.7,2.6-3.7,5.1
	c0,2.7,1.1,5.1,3.4,6.7c1.9,1.4,4,1.3,6.1,0.3C340.5,422.6,341.6,421,341.6,418.2z"/>
<path class="st0" d="M373.6,382.6c-0.3-0.9-0.4-1.4-0.7-2.1c0.8-0.6,1.5-1.3,2.2-1.9c0.4,0.2,0.7,0.3,0.9,0.5
	c3.7,4.3,7.4,8.6,11.1,12.9c0.2,0.3,0.4,0.6,0.5,1c-0.5,1-1.3,1.6-2.3,2.1c-0.5-0.3-1.1-0.7-1.7-1c-0.1,0.7-0.1,1.2-0.3,1.8
	c-1.2,5.1-6.6,8.1-11.5,6.2c-4.5-1.7-7.2-5.2-8-9.9c-0.7-4.4,3.1-9,7.5-9.5C372,382.6,372.7,382.6,373.6,382.6z M374,385.6
	c-4.7,0-7.4,4.6-5.3,8.5c0.8,1.5,1.9,2.7,3.4,3.6c1.5,0.9,3.1,1.2,4.8,0.5c3.8-1.5,5.2-5.5,2.9-8.9c-0.7-1-1.6-1.8-2.5-2.6
	C376.4,385.9,375.1,385.5,374,385.6z"/>
<path class="st0" d="M252.4,429.1c0.3-0.7,0.5-1.1,0.7-1.6c1-0.4,1.9-0.3,3.1,0c0.1,0.5,0.4,1,0.4,1.5c-0.1,5.5-0.3,11-0.5,16.5
	c0,0.3-0.2,0.5-0.3,0.8c-1,0.4-1.9,0.4-3,0c-0.2-0.6-0.3-1.2-0.5-1.9c-0.6,0.4-1,0.7-1.4,1.1c-3.1,2.6-8.6,2.1-11.4-1.2
	c-0.8-1-1.5-2.1-2-3.3c-1-2.8-0.9-5.7,0-8.5c2-6.2,8.8-8.2,13.9-4.2C251.7,428.5,252,428.8,252.4,429.1z M252.6,437.1
	C252.6,437.1,252.6,437.1,252.6,437.1c0-0.4,0-0.7,0-1.1c-0.2-3.9-3.1-6.2-7-5.8c-2.6,0.3-4,2.2-4.5,4c-0.4,1.6-0.4,3.3,0,5
	c0.5,2.1,1.7,3.4,3.8,4c4,1.1,7.3-1.2,7.7-5.3C252.6,437.6,252.6,437.3,252.6,437.1z"/>
<path class="st0" d="M180.3,423.6c-4.4-1.8-8.6-4-13-5.9c-1.1,1-1.1,2.2-1,3.4c0.1,1.4,0.6,2.5,1.5,3.5c1.9,1.9,4.2,2.2,6.7,1.4
	c0.8-0.3,1.5-0.6,2.3-1c0.3,0.4,0.6,0.6,0.8,0.9c0.3,0.5,0.5,1,0.8,1.5c-1.1,1.6-2.7,2-4.4,2.3c-7.1,1.2-13.1-5.3-11.3-12.3
	c1-3.9,3.2-6.9,7.2-8.3c4.5-1.5,11.6,1.4,12.2,7.8C182.3,419.3,181.8,421.6,180.3,423.6z M177.9,419.1c0.8-1.5,0.7-2.7,0.1-3.8
	c-0.6-1.3-1.8-2.1-3.1-2.6c-1.3-0.5-2.7-0.6-4.1-0.1c-0.9,0.4-1.8,0.9-2.2,2.2C171.7,416.3,174.7,417.7,177.9,419.1z"/>
<path class="st0" d="M363.7,401.6c-4,2.6-7.9,5.2-11.9,7.9c0.5,1.3,1.4,2,2.5,2.6c1,0.5,2.1,0.8,3.2,0.6c1.7-0.3,3.1-1.1,4.2-2.5
	c1.1-1.4,1.1-3.1,1.3-4.7c1.4-0.5,1.4-0.5,3.2-0.2c0.5,2.3-0.1,4.3-1.4,6.2c-1.8,2.7-4.4,4.2-7.6,4.7c-1.9,0.3-3.8-0.2-5.4-1.2
	c-4.1-2.5-6.4-6.2-6-11.1c0.3-3.8,2.7-6.2,6-7.7c3.2-1.4,6.2-0.9,8.9,1.3c1,0.8,1.8,1.9,2.6,2.9
	C363.5,400.6,363.5,401.1,363.7,401.6z M349.9,406.8c1.6-1,3-1.9,4.4-2.8c1.4-1,3-1.7,4.2-3c-2-2.1-4-2.4-6.3-1.1
	C349.7,401.3,348.9,403.3,349.9,406.8z"/>
<path class="st0" d="M218.3,434.9c-0.7,2.6,0,4.5,1.9,5.9c2.1,1.5,4.3,1.6,6.6,0.4c1-0.5,1.8-1.3,2.7-2.1c1,0.3,1.7,1,2.2,1.8
	c-0.1,1.1-1,1.6-1.6,2.2c-4.5,3.8-13.8,2.5-15.7-5c-0.9-3.4-0.4-6.7,1.5-9.6c3-4.6,9.7-5.6,14-2.2c2.9,2.3,4,6.3,2.7,10.1
	c-1,0.5-2,0.2-3,0c-2.9-0.4-5.9-0.9-8.8-1.4C220,434.9,219.2,434.9,218.3,434.9z M218.7,431.2c1.2,0.8,2.3,0.6,3.4,0.8
	c1.2,0.2,2.4,0.4,3.6,0.6c1.1,0.2,2.1,0.6,3.2,0.2c0.4-1.2,0-2.1-0.6-2.9c-0.8-1.1-2-1.6-3.3-2c-1.3-0.3-2.6-0.3-3.8,0.4
	C220.1,428.8,219.2,429.6,218.7,431.2z"/>
<path class="st0" d="M321.4,424.5c-2.1,1.4-4.5,1.8-6.7,2.6c-2.3,0.8-4.6,1.6-6.9,2.4c0.5,2.4,1.9,3.7,4,4.4
	c2.1,0.7,4.1,0.1,5.7-1.4c0.7-0.6,1.1-1.5,1.6-2.3c0.4-0.6,0.6-1.3,1-2.2c1,0.3,1.8,0.5,2.8,0.8c-0.1,0.8,0,1.4-0.2,2
	c-1.4,3.9-4.4,5.9-8.3,6.5c-3.8,0.6-6.8-0.8-9-3.8c-1.6-2.1-2.4-4.6-2.4-7.3c0-4.8,3.2-8.6,7.9-9.4c4.1-0.7,7.3,0.8,9.5,4.3
	C320.8,422.1,321.3,423.1,321.4,424.5z M316.6,422.8c-1.7-2.8-3.7-3.5-6.7-2.3c-1.2,0.5-2.3,1.3-2.9,2.5c-0.5,1-1,2-0.3,3.1
	C309,425.8,314.4,424,316.6,422.8z"/>
<path class="st0" d="M119,371.7c5.7,0.1,10.6,4.5,10.6,10.8c0,5.7-4.6,10.3-10.4,10.2c-6.3-0.1-10.5-4.8-10.6-10.4
	C108.5,376.3,113.3,371.8,119,371.7z M119.5,375.6c-3.7-0.2-7,3.3-7,6.8c-0.1,3.8,3.2,6.5,6.2,6.6c4.2,0.1,7.2-3.8,7.2-6.9
	C125.8,378.4,122.6,375.4,119.5,375.6z"/>
<path class="st0" d="M374.8,368.4c0.5-1.1,1.3-1.9,2.3-2.4c2.1,1.2,3.4,3.4,5.5,4.7c0.7-0.6,1.4-1.2,2.2-1.8
	c1.1,0.2,1.6,0.9,2.2,1.8c-0.6,0.8-1.1,1.6-1.8,2.5c1.8,2,3.7,3.7,5.5,5.5c1.8,1.9,3.9,3.4,5.5,5.6c-0.5,1.1-1.3,1.9-2.3,2.5
	c-2.2-1.5-3.8-3.5-5.7-5.2c-1.9-1.8-3.7-3.6-5.7-5.5c-0.9,0.7-1.7,1.3-2.4,1.9c-1.1-0.3-1.7-0.9-2.1-2c0.5-0.7,1.1-1.4,1.7-2.3
	C378.4,371.7,376,370.5,374.8,368.4z"/>
<path class="st0" d="M263,430.2c-1-0.1-1.9-0.1-2.8-0.2c-0.5-1.4-0.5-1.4-0.2-2.8c0.8-0.2,1.7-0.4,2.7-0.6c0-2.4,0-4.7,0-6.9
	c1-0.8,2.1-0.7,3.2-0.4c0.9,2.2,0.4,4.7,1.1,6.9c1,0.1,1.9,0.2,2.8,0.3c0.7,0.9,0.7,1.7,0.3,2.7c-0.9,0.3-1.8,0.5-2.7,0.8
	c-0.3,2.6,0,5.2,0.2,7.8c0.3,2.6,0.3,5.2,0.4,7.6c-1.8,0.7-1.8,0.7-3.5,0.2C263.6,440.6,264,435.4,263,430.2z"/>
<path class="st0" d="M202.3,52.1c-3.5,0-6.2-2.8-6.1-6.3c0.1-3.1,2.5-6.1,6.4-6c3.3,0.1,5.9,2.8,6,6.1
	C208.6,48.7,206.4,52.2,202.3,52.1z"/>
<path class="st0" d="M375.2,128.6c-3.4,0-6.3-2.7-6.3-6.1c0-3.2,2.7-6.2,6.2-6.1c3.1,0,6,2.6,6.1,5.9
	C381.4,125.7,378.6,128.6,375.2,128.6z"/>
<path class="st0" d="M298.9,421.2c0.4,1.1,0.1,2-0.4,3c-0.7,0.2-1.5,0.4-2.3,0.6c-1.9,0.5-3,1.9-3.1,3.8c-0.1,1.2,0,2.4,0.2,3.6
	c0.5,2.6,1.1,5.1,1.7,7.6c0.1,0.5,0.1,1.1,0.2,1.6c-0.9,0.9-2,0.9-3.1,0.9c-0.2-0.3-0.4-0.5-0.4-0.8c-1.3-5.4-2.5-10.9-3.8-16.3
	c-0.1-0.4,0-0.7-0.1-1.1c0.7-0.9,1.7-0.8,2.7-0.9c0.3,0.6,0.7,1.2,1.2,2.2c0.2-0.3,0.3-0.6,0.4-0.8c1.1-2.2,2.8-3.4,5.2-3.7
	C297.9,420.8,298.4,421.1,298.9,421.2z"/>
<path class="st0" d="M146.1,392.5c-1.2,1.2-1.2,1.2-2.7,1.7c-0.6-0.5-1.2-1.1-1.9-1.5c-1.3-0.9-2.8-1.1-4.2-0.2
	c-1.1,0.8-2.3,1.6-3.2,2.7c-1.5,1.7-2.9,3.6-4.4,5.4c-0.6,0.7-1.2,1.4-1.7,2c-1.7-0.6-1.7-0.6-2.7-2c0-0.2,0-0.4,0.1-0.5
	c3.4-4.3,6.8-8.6,10.2-12.9c0.3-0.4,0.7-0.8,1.1-1.2c1.3,0,1.8,0.9,2.6,1.6c-0.3,0.7-0.6,1.2-0.8,1.8
	C143.4,389.5,144.2,389.8,146.1,392.5z"/>
<path class="st0" d="M186,434.9c-1.3,0.1-2.3-0.2-3.2-1c0.3-2.1,1.2-4,1.9-6c0.6-1.9,1.3-3.9,2-5.8c0.7-2,1.2-4.1,2.3-5.9
	c1.1-0.2,1.9,0.2,2.8,0.8c-0.1,0.6-0.1,1.2-0.2,1.8c0.2,0.1,0.4,0.2,0.5,0.1c0.6-0.2,1.2-0.5,1.8-0.7c2.2-0.8,3.8-0.4,5.9,1.2
	c-0.4,1.3-0.4,1.3-1.7,2.5c-0.6-0.2-1.3-0.4-2-0.7c-1.9-0.8-3.5-0.3-4.7,1.3c-0.8,1.1-1.5,2.3-2,3.6c-0.9,2.1-1.6,4.4-2.3,6.6
	C186.6,433.4,186.3,434.1,186,434.9z"/>
<path class="st0" d="M274.1,437.6c-0.9-1.2-0.9-2.2-0.7-3.3c1.4-1,3.1-0.7,4.6-1c1.5-0.3,3.1-0.4,4.7-0.6c0.3,0.4,0.5,0.7,0.6,1
	c0.5,2.1,0.2,2.7-2,2.9C278.9,436.8,276.5,437.2,274.1,437.6z"/>
<path class="st0" d="M198.5,430.9c-0.4-1.1,0.2-1.9,0.5-2.9c1.2-0.5,2.3,0.1,3.3,0.3c1,0.2,2,0.4,3,0.8c1,0.4,2.2,0.3,3.2,1.3
	c0.2,1.1-0.3,2.1-0.8,3C205,433.1,200.6,431.9,198.5,430.9z"/>
<path d="M252,396.7c-82.5-0.2-149.2-66.9-149-149.6c0.3-82.8,67.5-148.6,149.1-148.6c81.6,0,149.2,66,149,149.5
	C400.9,330.5,334.2,396.6,252,396.7z M302.1,172c-0.5-1.4-0.9-2.6-1.4-3.8c-1.9-4.5-5.2-7.1-10-8c-3.3-0.6-6.1,0.3-8.3,2.7
	c-1.9,2.1-3.5,4.4-4.6,7c-3.7,8.6-9,16-15.5,22.7c-5.6,5.7-11.9,10.5-18.6,14.7c-3.1,2-6.4,3.9-9.5,5.9
	c-7.3,4.6-12.8,10.7-16.4,18.6c-3.5,8-8.2,15.3-13.7,22c-4.2,5.1-7.8,10.6-10.8,16.6c-2.2,4.4-4.3,8.9-6.5,13.3
	c-1.6,3.2-3.1,6.3-4.8,9.4c-3.2,5.8-7.8,10.2-13.7,13.2c-3.3,1.7-6.7,3.2-10.2,4.5c-1.5,0.6-2.3,1.4-2.7,2.8c-0.8,2.7-0.7,5.3-0.2,8
	c0.8,4.7,2.7,9.1,5,13.3c4.9,8.7,11.4,15.9,19.3,21.8c14.8,11.2,31.4,15.8,49.8,14.1c0.7-0.1,1.5,0.1,2.2,0.2
	c2.2,0.3,4.4,0.7,6.6,0.8c10,0.7,19.9-0.4,29.6-3.1c10.1-2.8,19.5-7.2,28.5-12.6c8-4.8,15.6-10.1,23.2-15.6c5.5-3.9,9.7-9,12.6-15.1
	c1.8-3.8,3.5-7.6,5.1-11.5c1.9-4.7,3.4-9.5,4.3-14.4c1.4-7.2,1.4-14.3-2.2-20.9c-0.5-1-0.5-1.9-0.1-2.9c0.4-0.8,0.8-1.7,1.1-2.6
	c1.7-4.4,2.7-8.9,2.5-13.6c-0.3-4.9-1.4-9.6-4.8-13.4c-2.1-2.4-1.7-2.5-0.6-4.9c1.2-2.6,2.5-5.2,3.6-7.9c1.6-3.7,2.2-7.5,1.4-11.5
	c-0.6-2.9-1.7-5.6-3.5-7.8c-1.4-1.8-1.7-3.4-0.7-5.4c0.2-0.4,0.3-0.9,0.5-1.3c2.9-8.2,5.9-16.5,8.8-24.7c0.8-2.3,1.4-4.6,1.8-7
	c0.7-3.7,0.4-7.4-0.9-11c-1.4-3.8-3.9-6.5-7.6-8.1c-4.4-1.8-8.8-0.7-11.7,3.1c-0.6,0.7-1.1,1.5-1.5,2.3c-2.6,4.3-5.2,8.6-7.9,12.9
	c-0.3,0.5-0.7,1-1.1,1.5C310.9,170.6,308.5,171,302.1,172z M276.1,125.6c0.1,0.3,0.1,0.8,0.2,1.2c1.6,6.9,3.2,13.8,4.8,20.6
	c0.1,0.4,0.2,0.9,0.4,1.3c0.4,0.9,1.4,1.3,2.3,1c0.8-0.3,1.3-1,1.3-1.9c0-0.5-0.1-0.9-0.3-1.4c-1.6-6.8-3.1-13.6-4.7-20.4
	c-0.1-0.5-0.2-0.9-0.3-1.3c-0.4-1-1.2-1.5-2.2-1.4C276.6,123.5,276.1,124.3,276.1,125.6z M305.4,155.8c0.3-0.1,0.8-0.3,1.2-0.6
	c0.4-0.4,0.7-0.9,1-1.3c3.7-5.8,7.3-11.7,11-17.5c0.3-0.5,0.6-1,0.8-1.5c0.4-0.8,0.1-1.7-0.5-2.2c-0.7-0.6-1.9-0.5-2.5,0.2
	c-0.3,0.3-0.6,0.7-0.8,1.1c-3.8,6-7.5,12-11.2,18c-0.3,0.5-0.6,1.1-0.8,1.8C303.2,154.7,304.1,155.7,305.4,155.8z M269.4,162.3
	c-0.1-0.2-0.2-0.7-0.5-1c-0.3-0.4-0.7-0.6-1.1-0.9c-6.1-3.9-12.3-7.7-18.4-11.5c-0.3-0.2-0.6-0.4-1-0.5c-0.8-0.3-1.7-0.1-2.2,0.6
	c-0.5,0.8-0.4,1.8,0.3,2.5c0.3,0.2,0.6,0.5,0.9,0.7c6.1,3.8,12.1,7.6,18.2,11.4c0.5,0.3,1.2,0.6,1.8,0.7
	C268.5,164.5,269.4,163.7,269.4,162.3z"/>
<path class="st1" d="M113.2,137.7c-3.2-2.6-6.2-5.1-9.3-7.6c-0.9-0.8-1.1-1.6-0.7-2.7c0.7-1.9,2.3-2.8,4.2-2.3
	c3.5,1,6.3,3.2,7.9,6.5c0.6,1.1,0.6,2.3,0.3,3.5C115.3,136.2,114.6,137.1,113.2,137.7z"/>
<path class="st1" d="M132,96.8c0.7,0.8,1.3,1.5,1.9,2.2c2.2,2.7,4.4,5.3,6.5,8c1.1,1.3,1.2,2.2,0.5,3.3c-0.8,1.2-2.3,1.9-3.6,1.5
	c-0.9-0.3-1.8-0.6-2.5-1.2c-2.3-1.7-4.2-3.9-5.5-6.6c-0.2-0.5-0.5-1-0.6-1.6C128,99.5,128.7,98.2,132,96.8z"/>
<path class="st1" d="M364.7,91.2c-0.6,0.9-1.1,1.6-1.6,2.4c-1.8,2.6-3.6,5.2-5.4,7.8c-0.4,0.5-0.7,1.1-1.2,1.6
	c-0.5,0.6-1.2,0.8-2,0.6c-1.7-0.4-2.8-1.6-2.8-3.3c0-0.7,0.1-1.5,0.4-2.2c1.1-3,2.9-5.6,5.3-7.7c0.3-0.2,0.6-0.5,0.9-0.7
	C360.8,88,362.5,88.4,364.7,91.2z"/>
<path class="st1" d="M410.6,171.6c-0.6-2.9,0.4-5.3,2.1-7.3c2.5-3.1,5.9-4.4,9.7-4.9c1.6-0.2,2.2,0.4,2.3,2c0,2.6-0.9,4.9-2.6,6.9
	C419.2,171.7,414.8,173,410.6,171.6z"/>
<path class="st1" d="M93,160.3c1.5,0.4,2.7,1.1,3.9,2c0.1,1-0.3,1.7-0.8,2.4c-1.1,1.9-3.8,1.4-4.7-0.5c-0.1-0.3-0.2-0.8-0.1-1.1
	C91.7,162.1,92.1,161.1,93,160.3z"/>
<path class="st1" d="M327,74.2c1.7-2.9,3.4-3.7,5.1-2.5c0.6,0.4,1,1.1,1.3,1.7c0.4,0.9,0.1,1.7-0.9,3.4
	C330.7,76.1,328.8,75.4,327,74.2z"/>
<path class="st1" d="M272.8,60c-1.6-0.2-3.3-0.3-4.9-0.5c-0.3,0-0.5-0.2-0.8-0.3c-0.1-1,0.2-1.8,0.8-2.6c0.8-1.2,1.9-1.6,3.4-1.3
	c1.2,0.3,1.9,1.2,2.1,2.6C273.5,58.6,273.5,58.6,272.8,60z"/>
<path class="st1" d="M159.8,82.8c-0.8-1.1-1.1-2.3-0.7-3.6c0.2-0.6,0.8-1.3,1.3-1.7c1.7-1.1,3.3-0.4,4.8,2.1
	C163.9,81.1,162.6,81.8,159.8,82.8z"/>
<path class="st1" d="M156.6,407.3c-0.2,2.3-1.5,4.6-4.1,6.1c-3.2,1.9-8.6-0.7-8.4-5.1c0.1-2.8,1.4-5,3.5-6.7
	c1.7-1.3,3.6-1.3,5.5-0.3C155.4,402.3,156.7,404,156.6,407.3z"/>
<path class="st1" d="M341.6,418.2c0,2.8-1.1,4.3-3.2,5.3c-2.1,1-4.2,1-6.1-0.3c-2.3-1.6-3.3-4-3.4-6.7c0-2.5,1.4-4.1,3.7-5.1
	c2.2-1,4.2-0.6,5.9,1C340.5,414.1,341.5,416.2,341.6,418.2z"/>
<path class="st1" d="M374,385.6c1.1,0,2.4,0.3,3.4,1.2c0.9,0.8,1.8,1.6,2.5,2.6c2.3,3.4,0.9,7.4-2.9,8.9c-1.7,0.7-3.3,0.4-4.8-0.5
	c-1.5-0.9-2.6-2.1-3.4-3.6C366.6,390.2,369.3,385.6,374,385.6z"/>
<path class="st1" d="M252.6,437.1c0,0.3,0,0.6,0,0.8c-0.3,4.1-3.7,6.4-7.7,5.3c-2.1-0.6-3.3-2-3.8-4c-0.4-1.6-0.4-3.3,0-5
	c0.5-1.8,1.8-3.7,4.5-4c3.9-0.5,6.7,1.8,7,5.8C252.6,436.3,252.6,436.7,252.6,437.1C252.6,437.1,252.6,437.1,252.6,437.1z"/>
<path class="st1" d="M177.9,419.1c-3.2-1.4-6.2-2.8-9.2-4.3c0.3-1.3,1.2-1.8,2.2-2.2c1.3-0.5,2.7-0.5,4.1,0.1
	c1.3,0.5,2.5,1.3,3.1,2.6C178.5,416.4,178.7,417.6,177.9,419.1z"/>
<path class="st1" d="M349.9,406.8c-1-3.4-0.3-5.5,2.3-7c2.3-1.3,4.3-1,6.3,1.1c-1.2,1.3-2.8,2-4.2,3
	C353,404.9,351.6,405.7,349.9,406.8z"/>
<path class="st1" d="M218.7,431.2c0.4-1.6,1.4-2.4,2.6-3c1.2-0.6,2.5-0.7,3.8-0.4c1.3,0.3,2.5,0.8,3.3,2c0.6,0.9,1,1.8,0.6,2.9
	c-1.1,0.4-2.2,0-3.2-0.2c-1.2-0.2-2.4-0.3-3.6-0.6C221,431.8,219.9,432,218.7,431.2z"/>
<path class="st1" d="M316.6,422.8c-2.2,1.2-7.7,3-9.8,3.3c-0.7-1.1-0.2-2.1,0.3-3.1c0.6-1.2,1.6-2,2.9-2.5
	C312.9,419.3,314.9,420,316.6,422.8z"/>
<path class="st1" d="M119.5,375.6c3.1-0.2,6.3,2.8,6.3,6.4c0,3.2-3,7-7.2,6.9c-2.9-0.1-6.2-2.7-6.2-6.6
	C112.5,378.9,115.7,375.3,119.5,375.6z"/>
<path class="st0" d="M302.1,172c6.4-1,8.9-1.4,16.2,4c0.4-0.5,0.8-1,1.1-1.5c2.6-4.3,5.2-8.6,7.9-12.9c0.5-0.8,1-1.6,1.5-2.3
	c2.9-3.8,7.3-4.9,11.7-3.1c3.7,1.6,6.2,4.3,7.6,8.1c1.3,3.6,1.6,7.3,0.9,11c-0.4,2.4-1.1,4.7-1.8,7c-2.9,8.3-5.9,16.5-8.8,24.7
	c-0.2,0.4-0.3,0.9-0.5,1.3c-1,2-0.7,3.6,0.7,5.4c1.8,2.3,2.9,4.9,3.5,7.8c0.8,4,0.1,7.8-1.4,11.5c-1.1,2.7-2.4,5.2-3.6,7.9
	c-1.1,2.4-1.5,2.5,0.6,4.9c3.4,3.8,4.6,8.5,4.8,13.4c0.2,4.7-0.7,9.3-2.5,13.6c-0.3,0.9-0.7,1.7-1.1,2.6c-0.4,1-0.4,1.9,0.1,2.9
	c3.6,6.7,3.6,13.7,2.2,20.9c-1,4.9-2.4,9.8-4.3,14.4c-1.6,3.9-3.3,7.7-5.1,11.5c-2.9,6.1-7.1,11.1-12.6,15.1
	c-7.5,5.5-15.2,10.8-23.2,15.6c-9,5.4-18.4,9.8-28.5,12.6c-9.7,2.7-19.5,3.8-29.6,3.1c-2.2-0.2-4.4-0.6-6.6-0.8
	c-0.7-0.1-1.5-0.2-2.2-0.2c-18.4,1.8-35.1-2.9-49.8-14.1c-7.9-6-14.4-13.2-19.3-21.8c-2.3-4.2-4.2-8.5-5-13.3
	c-0.5-2.7-0.6-5.4,0.2-8c0.4-1.5,1.3-2.3,2.7-2.8c3.5-1.3,6.9-2.8,10.2-4.5c5.9-3,10.5-7.4,13.7-13.2c1.7-3.1,3.3-6.3,4.8-9.4
	c2.2-4.4,4.3-8.9,6.5-13.3c3-5.9,6.6-11.4,10.8-16.6c5.6-6.7,10.2-14,13.7-22c3.5-7.9,9.1-14,16.4-18.6c3.2-2,6.4-3.9,9.5-5.9
	c6.7-4.2,13-9,18.6-14.7c6.5-6.6,11.8-14.1,15.5-22.7c1.1-2.6,2.7-4.9,4.6-7c2.3-2.5,5-3.4,8.3-2.7c4.8,0.9,8.1,3.6,10,8
	C301.2,169.4,301.6,170.6,302.1,172z M296.7,214.6c-0.4,0.2-0.6,0.3-0.7,0.4c-9.4,8.8-19.7,16.6-29.6,24.6
	c-5.2,4.2-11.1,6.8-17.7,7.6c-4.9,0.6-9.7,0.2-14.4-1.2c-2.4-0.7-4.6-1.9-6.5-3.7c-0.9-0.8-0.8-1.8,0.1-2.7c0.7-0.6,1.5-0.8,2.3-0.6
	c0.8,0.2,1.6,0.5,2.4,0.8c3.5,1.3,7.1,2.3,10.8,2.8c1.6,0.2,3.3,0.2,5,0c3.8-0.3,7.2-1.7,10.4-3.7c1.3-0.8,2.5-1.7,3.6-2.6
	c8.8-7,17.6-14,26.4-21.1c1.1-0.9,2.1-1.9,3.1-2.8c1.1-1,1.9-2.3,2.2-3.8c0.4-1.8,0.8-3.6,1.1-5.5c0.5-4,1-7.9,1.5-11.9
	c0.5-3.9,1.1-7.7,1.6-11.6c0.5-3.7-0.2-7.2-2-10.5c-0.8-1.5-1.9-2.8-3.3-3.8c-3.1-2.2-6.1-1.7-8.2,1.4c-0.8,1.1-1.4,2.4-1.9,3.7
	c-3.1,8.1-7.7,15.3-13.5,21.7c-5.6,6.2-11.9,11.5-18.8,16.2c-3.7,2.5-7.5,4.9-11.3,7.3c-7.7,4.8-13.6,11.3-17.3,19.6
	c-3.3,7.3-7.4,14-12.4,20.2c-3.1,3.9-5.9,7.9-8.4,12.2c-2.3,4-4.4,8-6.6,12c-3.2,5.8-6.4,11.6-9.6,17.3c-3,5.4-7.3,9.4-12.9,12
	c-3.1,1.5-6.3,2.8-9.5,4.1c-0.8,0.4-1.7,0.7-2.4,1c-0.9,2-0.9,3.8-0.6,5.7c0.7,4.9,2.6,9.3,5.1,13.5c8.4,14,20.3,23.8,35.7,29.5
	c4.6,1.7,9.3,2.6,14.1,3.3c0.4,0,0.7,0.1,1.1,0.1c0.3,0,0.8,0.2,0.9-0.5c-0.6-0.4-1.3-0.9-2-1.4c-6.4-4.3-10.8-10.2-13.4-17.4
	c-0.9-2.4-1.4-4.8-1.5-7.4c0-0.6,0.1-1.3,0.3-1.9c0.2-0.6,0.7-0.8,1.3-0.7c1.3,0.2,2.2,0.8,2.6,2.2c0.9,2.6,2,5.2,2.9,7.9
	c2.4,7.1,7.1,12.4,13.6,15.9c5.1,2.7,10.5,4.3,16.2,5c7,0.7,14,0.4,20.9-0.7c9.4-1.5,18.4-4.6,27-8.9c12.2-6.1,23.4-13.8,34.4-21.8
	c3.7-2.7,6.7-6.3,8.6-10.5c3.1-6.7,5.9-13.5,8.2-20.5c1.7-5.3,2.4-10.7,2-16.3c-0.1-1.5-0.3-3-0.6-4.4c-0.7-3.3-2.6-5.8-5.7-7.2
	c-1.9-0.8-3.8-1.5-5.8-2c-4.3-1.1-8.7-1.3-13-1.5c-5.4-0.3-10.8,0.2-16.1,1.5c-3.7,0.9-7.2,2.6-10.7,4.1c-4.7,2-9.4,4-14.5,5.1
	c-3.2,0.7-4.6,3-4.1,6.3c0.4,2.4,1.6,4.3,3.8,5.6c6.4,3.9,13.3,4.5,20.5,3.3c3.8-0.6,7.3-2.1,11-3.2c1.7-0.6,3.4-1.1,5.1-1.6
	c1-0.3,2-0.3,3,0c1.2,0.4,1.5,1.4,0.7,2.4c-0.6,0.7-1.3,1.3-1.9,2c0.3,0.3,0.5,0.5,0.8,0.6c2.1,0.9,4.2,1.4,6.5,1.4
	c2.2-0.1,4.5,0,6.7,0c1.3,0,2.5,0.2,3.5,1.2c-1.5,1.9-1.5,1.9-3.5,2.2c-3.7,0.5-7.4,0.6-11.1,0.1c-0.4-0.1-0.9,0-1.5,0
	c0.2,0.5,0.3,0.9,0.5,1.2c1.6,2.7,3.6,5.2,6,7.4c1,0.9,2.2,1.8,3.3,2.6c1,0.7,1.6,1.5,1.5,2.7c-0.8,0.8-1.7,1.1-2.8,0.7
	c-2.3-0.8-4.5-1.8-6.1-3.7c-1.1-1.3-2.3-2.4-3.4-3.7c-2.3-2.6-4-5.6-5-9c-0.1-0.4-0.3-0.8-0.5-1.2c-0.5,0.1-0.9,0.2-1.2,0.3
	c-3.5,1.2-7,1.9-10.6,2.2c-5.9,0.5-11.7,0.2-17.5-1.3c-3.6-0.9-6.8-2.6-9.4-5.2c-0.4-0.4-0.8-0.7-1.4-1.1c-0.7,0.8-1.3,1.4-1.9,2.1
	c-3,3.4-6.4,6.3-10.2,8.7c-9.8,6.1-20.5,8.5-31.9,8.8c-1.7,0-3.5-0.6-5.2-1.1c-1.1-0.3-1.6-1.3-1.5-2.1c0.2-0.8,0.9-1.2,1.6-1.3
	c0.7-0.2,1.5-0.3,2.2-0.3c1.8-0.1,3.5-0.1,5.3-0.2c2-0.1,4.1-0.1,6.1-0.3c12.7-1.5,23.2-7.1,31.5-16.8c1.2-1.5,2.2-3,2.2-5
	c0-0.9,0.2-1.9,0.6-2.7c1.2-3.3,3.7-5.1,7.1-5.6c3.6-0.5,7-1.7,10.4-3.2c3.2-1.4,6.5-2.9,9.7-4.4c0.3-0.1,0.6-0.4,1.2-0.8
	c-0.7,0-1,0-1.4,0.1c-4.5,0.6-8.9,1.7-13.4,2.8c-3.8,0.9-7.6,1.9-11.5,2.2c-5.3,0.4-10.2-0.8-14.6-3.7c-3.8-2.5-6.1-6-6.9-10.4
	c-0.8-4.2,0.5-7.7,3.7-10.5c1.4-1.2,3.1-2.1,4.9-2.7c7-2.3,13.9-4.8,21-6.9c14.4-4.1,29.2-5.8,44.2-5.3c4.5,0.2,8.9,1,13.1,2.5
	c0.5,0.2,1,0.3,1.5,0.4c0.2-0.3,0.4-0.4,0.5-0.5c1.6-3.8,3.2-7.5,4.7-11.4c1.4-3.7,0.9-7.3-1.1-10.7c-0.8-1.3-1.6-2.5-2.6-3.7
	c-1.9-2.4-3.9-4.7-5.9-7.1c-5.2-6.2-9.1-13.2-10.7-21.2c-0.5-2.3-1.4-4.4-2.6-6.5c-1.5-2.6-3.7-3.9-6.6-4c-2.5-0.1-3.4,0.5-3.8,3
	c-1,7.6-2.3,15.1-2.9,22.7c-0.5,6.6,1,12.6,4.6,18c1.8,2.7,4,5.2,6.4,7.4c1.7,1.6,3.4,3.2,5.1,4.8c0.5,0.5,1,1.1,1.4,1.7
	c0.5,0.9,0.1,1.7-0.9,1.9c-1,0.2-1.8-0.1-2.7-0.4c-2.8-1.1-5.2-2.8-7.4-4.9c-3.9-3.7-6.9-8.1-9.4-12.8
	C297.6,216.3,297.2,215.5,296.7,214.6z M334.6,273.7c0.2-0.4,0.5-0.7,0.5-1.1c0.7-2.5,1.4-5,1.9-7.6c0.7-3.2,0.8-6.5,0-9.7
	c-1-4.2-3.1-7.5-6.8-9.8c-2-1.3-4.1-2.2-6.5-2.5c-3-0.4-6.1-0.8-9.2-1c-4.3-0.3-8.6,0-12.8,0.4c-7,0.5-13.9,1.5-20.7,3.1
	c-8.8,2-17.2,5.4-25.8,8.1c-1.4,0.4-2.7,1.2-3.8,2.2c-2.1,2-3.1,4.4-2.6,7.3c0.3,1.8,1.2,3.3,2.4,4.7c1.9,2.1,4.3,3.5,7,4.3
	c3,0.9,6.1,0.9,9.1,0.3c2-0.3,4-0.8,6-1.3c4.7-1.1,9.4-2.4,14.1-3.2c5.8-1,11.5-0.8,17,1.5c1.2,0.5,2.3,0.6,3.5,0.6
	c3.4,0.1,6.9,0.2,10.3,0.4c4.7,0.3,9.2,1,13.7,2.6C332.9,273.3,333.7,273.5,334.6,273.7z M333.1,206.6c0.4-1,0.7-1.6,0.9-2.2
	c2.3-6.7,4.7-13.3,7-20c0.8-2.5,1.6-4.9,2.4-7.4c0.6-2,1-4,0.9-6c-0.2-4.1-1.8-7.6-5-10.2c-1.9-1.5-3.7-1.5-5.5,0.2
	c-0.8,0.8-1.5,1.6-2.1,2.6c-3.2,5.3-6.3,10.7-9.5,16.1c-0.8,1.3-0.9,2.6-0.5,4c0.7,2.7,1.3,5.4,2.2,8.1
	C325.5,197.3,328.8,202,333.1,206.6z"/>
<path class="st0" d="M276.1,125.6c0-1.3,0.6-2,1.5-2.2c1-0.2,1.8,0.3,2.2,1.4c0.2,0.4,0.2,0.9,0.3,1.3c1.6,6.8,3.1,13.6,4.7,20.4
	c0.1,0.5,0.2,0.9,0.3,1.4c0.1,0.9-0.4,1.7-1.3,1.9c-1,0.3-1.9-0.1-2.3-1c-0.2-0.4-0.3-0.9-0.4-1.3c-1.6-6.9-3.2-13.7-4.8-20.6
	C276.2,126.3,276.1,125.9,276.1,125.6z"/>
<path class="st0" d="M305.4,155.8c-1.3-0.1-2.2-1-1.9-2.1c0.1-0.6,0.4-1.2,0.8-1.8c3.7-6,7.5-12,11.2-18c0.2-0.4,0.5-0.8,0.8-1.1
	c0.7-0.7,1.8-0.8,2.5-0.2c0.7,0.5,0.9,1.4,0.5,2.2c-0.2,0.5-0.5,1-0.8,1.5c-3.6,5.8-7.3,11.7-11,17.5c-0.3,0.5-0.6,1-1,1.3
	C306.2,155.5,305.7,155.6,305.4,155.8z"/>
<path class="st0" d="M269.4,162.3c0,1.3-0.9,2.2-2,2c-0.6-0.1-1.2-0.4-1.8-0.7c-6.1-3.8-12.1-7.6-18.2-11.4
	c-0.3-0.2-0.6-0.4-0.9-0.7c-0.7-0.7-0.9-1.7-0.3-2.5c0.5-0.7,1.4-1,2.2-0.6c0.3,0.1,0.7,0.3,1,0.5c6.1,3.8,12.3,7.7,18.4,11.5
	c0.4,0.2,0.8,0.5,1.1,0.9C269.2,161.6,269.4,162.1,269.4,162.3z"/>
<path d="M296.7,214.6c0.5,1,0.9,1.8,1.4,2.6c2.5,4.7,5.5,9.1,9.4,12.8c2.2,2.1,4.6,3.8,7.4,4.9c0.9,0.3,1.8,0.6,2.7,0.4
	c1-0.2,1.4-1,0.9-1.9c-0.4-0.6-0.9-1.2-1.4-1.7c-1.7-1.6-3.4-3.2-5.1-4.8c-2.4-2.2-4.6-4.6-6.4-7.4c-3.6-5.5-5.1-11.5-4.6-18
	c0.6-7.6,1.9-15.1,2.9-22.7c0.3-2.5,1.2-3.1,3.8-3c2.9,0.1,5.1,1.4,6.6,4c1.2,2,2.1,4.2,2.6,6.5c1.7,8,5.5,15,10.7,21.2
	c2,2.4,4,4.7,5.9,7.1c0.9,1.2,1.8,2.4,2.6,3.7c2,3.4,2.5,7,1.1,10.7c-1.4,3.8-3.1,7.6-4.7,11.4c-0.1,0.2-0.2,0.3-0.5,0.5
	c-0.5-0.1-1-0.3-1.5-0.4c-4.2-1.5-8.6-2.3-13.1-2.5c-15-0.5-29.8,1.1-44.2,5.3c-7.1,2-14,4.5-21,6.9c-1.8,0.6-3.4,1.5-4.9,2.7
	c-3.2,2.8-4.5,6.3-3.7,10.5c0.8,4.4,3.1,7.9,6.9,10.4c4.4,2.9,9.3,4.1,14.6,3.7c3.9-0.3,7.7-1.3,11.5-2.2c4.4-1.1,8.8-2.2,13.4-2.8
	c0.3,0,0.7,0,1.4-0.1c-0.6,0.4-0.8,0.7-1.2,0.8c-3.2,1.5-6.4,2.9-9.7,4.4c-3.3,1.5-6.7,2.7-10.4,3.2c-3.4,0.5-5.8,2.3-7.1,5.6
	c-0.3,0.9-0.6,1.8-0.6,2.7c0,2-1,3.5-2.2,5c-8.3,9.7-18.8,15.3-31.5,16.8c-2,0.2-4.1,0.2-6.1,0.3c-1.8,0.1-3.5,0.1-5.3,0.2
	c-0.7,0-1.5,0.2-2.2,0.3c-0.8,0.2-1.4,0.5-1.6,1.3c-0.2,0.8,0.4,1.8,1.5,2.1c1.7,0.5,3.4,1.1,5.2,1.1c11.4-0.2,22.1-2.7,31.9-8.8
	c3.8-2.4,7.2-5.3,10.2-8.7c0.6-0.7,1.2-1.4,1.9-2.1c0.5,0.4,1,0.8,1.4,1.1c2.7,2.6,5.8,4.3,9.4,5.2c5.7,1.5,11.6,1.9,17.5,1.3
	c3.6-0.3,7.2-1.1,10.6-2.2c0.3-0.1,0.7-0.2,1.2-0.3c0.2,0.5,0.4,0.8,0.5,1.2c0.9,3.4,2.7,6.3,5,9c1.1,1.3,2.3,2.4,3.4,3.7
	c1.7,1.9,3.8,2.9,6.1,3.7c1.1,0.4,2,0.2,2.8-0.7c0.1-1.3-0.5-2-1.5-2.7c-1.1-0.8-2.2-1.7-3.3-2.6c-2.4-2.1-4.3-4.6-6-7.4
	c-0.2-0.3-0.3-0.7-0.5-1.2c0.6,0,1-0.1,1.5,0c3.7,0.5,7.4,0.4,11.1-0.1c1.9-0.3,1.9-0.3,3.5-2.2c-1-1-2.2-1.2-3.5-1.2
	c-2.2-0.1-4.5-0.1-6.7,0c-2.3,0.1-4.4-0.5-6.5-1.4c-0.2-0.1-0.4-0.3-0.8-0.6c0.7-0.7,1.4-1.3,1.9-2c0.8-1,0.5-2-0.7-2.4
	c-1-0.3-2-0.3-3,0c-1.7,0.5-3.4,1-5.1,1.6c-3.6,1.2-7.2,2.6-11,3.2c-7.2,1.2-14.1,0.6-20.5-3.3c-2.1-1.3-3.4-3.1-3.8-5.6
	c-0.5-3.2,0.9-5.6,4.1-6.3c5-1.1,9.8-3,14.5-5.1c3.5-1.5,7-3.1,10.7-4.1c5.3-1.3,10.7-1.8,16.1-1.5c4.4,0.2,8.8,0.4,13,1.5
	c2,0.5,3.9,1.2,5.8,2c3.1,1.4,5,3.8,5.7,7.2c0.3,1.5,0.5,2.9,0.6,4.4c0.4,5.5-0.3,11-2,16.3c-2.3,7-5.1,13.8-8.2,20.5
	c-2,4.2-4.9,7.7-8.6,10.5c-11,8-22.2,15.7-34.4,21.8c-8.6,4.3-17.5,7.3-27,8.9c-6.9,1.1-13.9,1.5-20.9,0.7c-5.7-0.6-11.1-2.2-16.2-5
	c-6.6-3.6-11.2-8.8-13.6-15.9c-0.9-2.6-2-5.2-2.9-7.9c-0.5-1.3-1.4-1.9-2.6-2.2c-0.7-0.1-1.1,0.2-1.3,0.7c-0.2,0.6-0.3,1.3-0.3,1.9
	c0,2.5,0.6,5,1.5,7.4c2.6,7.2,7,13.1,13.4,17.4c0.7,0.5,1.4,0.9,2,1.4c-0.1,0.7-0.5,0.5-0.9,0.5c-0.4,0-0.7,0-1.1-0.1
	c-4.8-0.6-9.6-1.6-14.1-3.3c-15.4-5.6-27.2-15.5-35.7-29.5c-2.5-4.2-4.4-8.6-5.1-13.5c-0.3-1.9-0.3-3.7,0.6-5.7
	c0.7-0.3,1.5-0.6,2.4-1c3.2-1.4,6.4-2.6,9.5-4.1c5.5-2.6,9.9-6.6,12.9-12c3.2-5.8,6.4-11.5,9.6-17.3c2.2-4,4.3-8,6.6-12
	c2.5-4.3,5.3-8.3,8.4-12.2c5-6.2,9.1-12.9,12.4-20.2c3.7-8.3,9.6-14.8,17.3-19.6c3.8-2.4,7.6-4.8,11.3-7.3
	c6.9-4.7,13.2-10,18.8-16.2c5.8-6.4,10.4-13.6,13.5-21.7c0.5-1.3,1.1-2.6,1.9-3.7c2.1-3.1,5.1-3.6,8.2-1.4c1.4,1,2.4,2.3,3.3,3.8
	c1.8,3.3,2.5,6.8,2,10.5c-0.5,3.9-1.1,7.7-1.6,11.6c-0.5,4-1,7.9-1.5,11.9c-0.3,1.8-0.7,3.7-1.1,5.5c-0.3,1.5-1.1,2.8-2.2,3.8
	c-1,1-2,1.9-3.1,2.8c-8.8,7-17.6,14.1-26.4,21.1c-1.2,0.9-2.4,1.8-3.6,2.6c-3.2,2-6.6,3.4-10.4,3.7c-1.7,0.1-3.4,0.2-5,0
	c-3.7-0.4-7.3-1.5-10.8-2.8c-0.8-0.3-1.6-0.6-2.4-0.8c-0.8-0.2-1.7,0-2.3,0.6c-0.9,0.8-1,1.8-0.1,2.7c1.9,1.8,4.1,3,6.5,3.7
	c4.7,1.4,9.5,1.7,14.4,1.2c6.6-0.8,12.6-3.4,17.7-7.6c10-8.1,20.2-15.9,29.6-24.6C296.1,214.9,296.3,214.8,296.7,214.6z"/>
<path d="M334.6,273.7c-0.9-0.3-1.7-0.4-2.4-0.7c-4.4-1.6-9-2.3-13.7-2.6c-3.4-0.2-6.9-0.3-10.3-0.4c-1.2,0-2.4-0.2-3.5-0.6
	c-5.5-2.3-11.3-2.5-17-1.5c-4.8,0.8-9.4,2.1-14.1,3.2c-2,0.5-4,0.9-6,1.3c-3.1,0.5-6.1,0.6-9.1-0.3c-2.7-0.8-5.1-2.2-7-4.3
	c-1.2-1.3-2.1-2.9-2.4-4.7c-0.5-2.9,0.5-5.3,2.6-7.3c1.1-1,2.4-1.8,3.8-2.2c8.6-2.7,17-6,25.8-8.1c6.8-1.6,13.7-2.5,20.7-3.1
	c4.3-0.3,8.5-0.7,12.8-0.4c3.1,0.2,6.1,0.5,9.2,1c2.3,0.3,4.5,1.2,6.5,2.5c3.6,2.3,5.8,5.7,6.8,9.8c0.7,3.2,0.6,6.5,0,9.7
	c-0.5,2.5-1.2,5.1-1.9,7.6C335,273,334.8,273.3,334.6,273.7z"/>
<path d="M333.1,206.6c-4.3-4.6-7.5-9.3-9.2-14.9c-0.8-2.7-1.4-5.4-2.2-8.1c-0.4-1.4-0.2-2.7,0.5-4c3.2-5.3,6.3-10.7,9.5-16.1
	c0.6-0.9,1.3-1.8,2.1-2.6c1.8-1.7,3.6-1.7,5.5-0.2c3.2,2.6,4.8,6.1,5,10.2c0.1,2.1-0.3,4.1-0.9,6c-0.8,2.5-1.5,5-2.4,7.4
	c-2.3,6.7-4.6,13.3-7,20C333.8,205,333.5,205.5,333.1,206.6z"/>
<path d="M402.9,347.7c3.1-0.2,6.3,2.8,6.3,6.4c0,3.2-3,7-7.2,6.9c-2.9-0.1-6.2-2.7-6.2-6.6C395.9,351,399.2,347.4,402.9,347.7z"/>
<path d="M98.4,355.3c3.1-0.2,6.3,2.8,6.3,6.4c0,3.2-3,7-7.2,6.9c-2.9-0.1-6.2-2.7-6.2-6.6C91.4,358.7,94.7,355.1,98.4,355.3z"/>
</svg>
