<svg width="109" height="100" viewBox="0 0 109 100" fill="none" xmlns="http://www.w3.org/2000/svg">
<g clipPath="url(#clip0_415_4792)">
<path d="M91.8547 66.9261C102.392 66.9261 108.491 74.5667 108.491 83.5515C108.491 92.5363 102.832 100 92.5663 100C81.2158 100 75.7609 90.5554 75.7609 83.4807C75.7609 76.3707 81.182 66.9261 91.8547 66.9261Z" fill="#37474F"/>
<path d="M90.2284 66.9261C100.224 66.9261 106.051 74.5667 106.051 83.5515C106.051 92.5363 100.664 100 90.906 100C80.0977 100 74.9477 90.5554 74.9477 83.4807C74.9138 76.3707 80.0977 66.9261 90.2284 66.9261Z" fill="#263238"/>
<path d="M90.3301 73.3994C96.4288 73.3994 99.9525 78.0686 99.9525 83.5161C99.9525 88.9989 96.666 93.5267 90.7367 93.5267C84.1636 93.5267 81.0126 87.7609 81.0126 83.4453C81.0126 79.1298 84.1297 73.3994 90.3301 73.3994Z" fill="#C7C7C7"/>
<path d="M15.519 93.9866C28.4957 93.9866 32.8326 86.8765 32.8326 78.2809C32.8326 69.6852 26.8016 62.3983 15.0107 62.3983C22.7019 62.3983 27.1743 69.6852 27.1743 78.2809C27.1743 86.8765 23.0407 93.9866 15.519 93.9866Z" fill="#37474F"/>
<path d="M15.0108 62.3983C22.702 62.3983 27.1744 69.6852 27.1744 78.2809C27.1744 86.8765 23.0408 93.9866 15.519 93.9866C7.21796 93.9866 3.25378 84.9664 3.25378 78.2101C3.25378 71.4185 7.21796 62.3983 15.0108 62.3983Z" fill="#263238"/>
<path d="M8.9121 78.2101C8.9121 84.7542 7.31965 93.4206 14.7059 93.9866C14.8075 93.9866 14.8753 93.9866 14.9769 93.9866C15.0447 93.9866 15.1125 93.9866 15.2141 93.9866C15.3158 93.9866 15.4174 93.9866 15.5191 93.9866C23.0408 93.9866 27.1744 86.8765 27.1744 78.2809C27.1744 69.6852 22.702 62.3983 15.0108 62.3983C14.8753 62.3983 14.7398 62.3983 14.6042 62.3983C14.5365 62.3983 14.4687 62.3983 14.401 62.3983C14.2654 62.3983 14.1638 62.3983 14.0283 62.4337C7.35353 63.1765 8.9121 71.7014 8.9121 78.2101Z" fill="#263238"/>
<path d="M14.4348 68.5886C18.7039 68.5886 21.2111 73.0456 21.2111 78.2809C21.2111 83.5161 18.9072 87.867 14.7397 87.867C10.1318 87.867 7.92946 82.3841 7.92946 78.2455C7.89557 74.0714 10.1318 68.5886 14.4348 68.5886Z" fill="#C7C7C7"/>
<path d="M74.8122 29.3951H70.6447L67.8325 25.0442H72.6776L74.8122 29.3951Z" fill="#18C8FF"/>
<path d="M67.8325 25.0442L69.4927 27.5911L70.6447 29.3951H74.8122L73.6602 27.0959L72.6776 25.0442H67.8325Z" fill="#18C8FF"/>
<path opacity="0.1" d="M67.8325 25.0442L69.4927 27.5911L73.6602 27.0959L72.6776 25.0442H67.8325Z" fill="black"/>
<path d="M84.8751 61.8677L80.8431 62.8228L77.15 59.2501L81.8596 58.1181L84.8751 61.8677Z" fill="#18C8FF"/>
<path d="M77.15 59.2501L79.2846 61.3371L80.8431 62.8228L84.8751 61.8677L83.2826 59.8868L81.8596 58.1181L77.15 59.2501Z" fill="#18C8FF"/>
<path opacity="0.1" d="M77.15 59.2501L79.2846 61.3371L83.2826 59.8868L81.8596 58.1181L77.15 59.2501Z" fill="black"/>
<path d="M25.1415 74.7082L26.2935 77.3965C26.2935 77.3965 57.6342 79.908 60.6158 79.4482C60.6158 79.4482 63.9362 75.6279 66.85 69.3668C66.85 69.3668 56.3467 69.3668 52.6874 69.3668C49.0282 69.3668 46.5887 67.9519 46.5887 67.9519L44.7591 67.6335L41.4725 69.3668L37.8811 74.7082L27.8859 74.5313L25.1415 74.7082Z" fill="#455A64"/>
<path d="M41.4386 69.3314C41.4386 69.3314 49.4686 74.4959 65.0881 72.7273C65.6641 71.7014 66.2401 70.5695 66.8161 69.3314C66.8161 69.3314 56.3127 69.3314 52.6535 69.3314C48.9943 69.3314 46.5548 67.9165 46.5548 67.9165L44.7251 67.5982L41.4386 69.3314Z" fill="#37474F"/>
<path d="M107.542 69.0484L103.612 71.2062C103.612 71.2062 92.2613 69.0484 84.9767 70.6756C77.6921 72.3028 75.727 76.3707 75.727 76.3707H72.0677C72.0677 76.3707 75.2188 64.6622 80.5721 60.4174C85.9254 56.1726 94.5314 57.1277 99.3088 59.7807C104.086 62.469 107.542 69.0484 107.542 69.0484Z" fill="#18C8FF"/>
<path opacity="0.1" d="M103.239 70.3926C102.494 69.5437 101.647 68.8008 100.766 68.1288C99.8847 67.4213 98.9699 66.7846 98.0212 66.2186C96.1577 65.1574 94.0909 64.4146 91.9902 64.167C87.8566 63.6364 83.5198 64.9098 80.4704 68.2349C78.7424 70.1096 77.5227 72.4089 76.3707 74.7435C76.3368 74.7789 76.4046 74.8143 76.4046 74.7789C77.421 72.7273 78.6069 70.7817 80.0977 69.1192C81.5207 67.492 83.2826 66.254 85.2139 65.5111C89.1103 64.0255 93.3455 64.5914 97.1064 66.3955C98.1567 66.9261 99.2071 67.492 100.224 68.1641C101.24 68.8716 102.189 69.6498 103.171 70.4634C103.205 70.4987 103.273 70.428 103.239 70.3926Z" fill="black"/>
<path d="M49.062 46.7633V45.313L13.6216 46.5157V49.7701C13.6216 49.7701 3.35539 61.6201 2.30505 73.8946L37.8471 74.6728L41.4386 69.3314L44.7251 67.5982L46.5547 67.9165V67.1029L45.1656 65.3696L45.0978 60.2759C45.0978 60.2759 43.4037 58.1889 43.912 54.8284C44.3185 52.1047 49.062 46.7633 49.062 46.7633Z" fill="#18C8FF"/>
<path d="M34.5267 72.9749C34.154 73.6823 28.7668 74.7082 18.5345 74.9912C9.31859 75.2388 2.47446 75.0265 1.89847 74.4252C1.35636 73.7885 2.71163 62.8581 8.94589 56.9154C15.1802 50.9728 24.0233 50.1238 29.8171 53.6611C34.9671 56.774 38.7958 64.6622 34.5267 72.9749Z" fill="#18C8FF"/>
<path opacity="0.1" d="M36.2547 62.6105C35.7465 60.0283 34.3912 57.6583 32.6293 55.7835C30.8336 53.8734 28.5296 52.4938 26.0563 51.8217C23.278 51.0789 20.3302 51.1496 17.5858 51.9278C16.1966 52.3169 14.8753 52.8475 13.5877 53.555C12.2325 54.2978 11.0127 55.2175 9.82686 56.208C9.52192 56.491 9.18311 56.7386 8.87817 57.0216C8.84429 57.0569 8.87817 57.0923 8.91205 57.0569C10.0979 55.9957 11.3515 55.0053 12.7068 54.1917C13.9266 53.4489 15.248 52.8829 16.6032 52.4231C19.2799 51.5741 22.1599 51.3619 24.9043 51.9278C27.4115 52.4584 29.7155 53.6965 31.6129 55.4651C33.4086 57.1984 34.7978 59.3562 35.4754 61.7969C36.3225 64.7683 36.0514 68.058 35.2044 70.994C35.1027 71.3831 34.9672 71.7722 34.8317 72.1613C34.8317 72.1967 34.8655 72.232 34.8994 72.1613C36.0514 69.1899 36.8985 65.9002 36.2547 62.6105Z" fill="black"/>
<path opacity="0.1" d="M41.4386 69.3314L44.7252 67.5982L46.5548 67.9165V67.1029L45.1656 65.3696L45.0979 60.2759C45.0979 60.2759 43.4038 58.1889 43.912 54.8284C44.3186 52.1047 49.0282 46.7633 49.0282 46.7633H47.639C47.639 46.7633 40.185 50.7959 38.4909 54.0856C36.7968 57.4107 36.3225 65.1928 41.4386 69.3314Z" fill="black"/>
<path d="M11.6226 76.1231C5.45608 76.1231 2.16954 75.9109 0.543213 75.2388L1.3225 73.2225C3.25376 74.0361 9.31861 74.0007 19.1105 73.8946C26.3273 73.8238 31.6467 73.081 34.9672 71.7722L35.7126 73.7885C32.1211 75.2034 26.7 75.9462 19.1443 76.0523C16.2305 76.0877 13.7571 76.1231 11.6226 76.1231Z" fill="#DBDBDB"/>
<path d="M60.1413 27.0251C60.0736 27.1666 51.9081 28.7584 51.9081 28.7584C51.9081 28.7584 50.5528 27.8033 51.3998 26.6006L59.5992 24.7612C59.5654 24.7259 60.7173 25.6809 60.1413 27.0251Z" fill="#263238"/>
<path d="M77.3195 15.9887V26.1054C77.3195 26.1054 72.0678 25.6102 70.6786 25.5748C69.2895 25.5394 63.0891 26.353 63.0891 26.353L62.6147 24.0891C62.6147 24.0891 67.3921 22.3558 69.425 20.9763C71.4579 19.5967 73.7958 17.0145 75.0494 16.4485C76.303 15.9179 77.3195 15.9887 77.3195 15.9887Z" fill="#18C8FF"/>
<path d="M63.0891 23.8415C63.0891 23.8415 64.1055 24.832 63.9022 26.3884C63.9022 26.3884 60.0058 27.1312 59.938 27.1312C59.8703 27.1312 60.1413 25.5394 58.5828 24.832L63.0891 23.8415Z" fill="#DBDBDB"/>
<path d="M77.3533 26.1054C78.7755 26.1054 79.9284 23.8407 79.9284 21.047C79.9284 18.2534 78.7755 15.9887 77.3533 15.9887C75.9312 15.9887 74.7783 18.2534 74.7783 21.047C74.7783 23.8407 75.9312 26.1054 77.3533 26.1054Z" fill="#DBDBDB"/>
<path d="M75.3204 21.047C75.3204 23.5585 76.303 25.5748 77.5228 25.5748C78.7425 25.5748 79.7251 23.5585 79.7251 21.047C79.7251 18.5355 78.7425 16.5193 77.5228 16.5193C76.303 16.5193 75.3204 18.5709 75.3204 21.047Z" fill="white"/>
<path d="M49.062 45.3131C49.062 45.3131 49.1298 39.1227 48.8926 38.9105C48.6554 38.6629 13.3844 38.8044 12.3341 38.8751C11.2837 38.9812 11.3854 46.1974 11.4531 46.5157C11.5548 46.8695 48.1133 45.4192 49.062 45.3131Z" fill="#37474F"/>
<path d="M52.1791 38.9813C52.0775 38.8751 47.6051 38.8751 47.3679 38.8751C47.1308 38.8751 47.1985 45.4545 47.334 45.4545C47.4696 45.4545 52.1791 45.4192 52.3486 45.2777C52.4841 45.1008 52.4163 39.1935 52.1791 38.9813Z" fill="#455A64"/>
<path d="M27.4792 38.6275C27.3437 38.6983 27.3098 38.8751 27.242 39.0166C27.2082 39.1581 27.1743 39.335 27.1743 39.4765C27.1404 39.7948 27.1404 40.1132 27.1065 40.4316C27.0726 41.0683 27.0726 41.705 27.1065 42.3417C27.1065 42.9784 27.1065 43.6151 27.1404 44.2519C27.1743 44.5702 27.1743 44.8886 27.242 45.2069C27.2759 45.3484 27.3098 45.5253 27.3776 45.6314C27.4453 45.7729 27.547 45.879 27.7164 45.9144C27.547 45.9498 27.4115 45.8436 27.3098 45.7022C27.2082 45.5607 27.1404 45.4192 27.0726 45.2777C26.971 44.9593 26.9032 44.641 26.8693 44.3226C26.7677 43.6859 26.7677 43.0138 26.7677 42.3771C26.7677 41.7404 26.8016 41.0683 26.8693 40.4316C26.9032 40.1132 26.971 39.7948 27.0388 39.4765C27.0726 39.335 27.1404 39.1581 27.2082 39.0166C27.2082 38.8398 27.3098 38.6629 27.4792 38.6275Z" fill="#455A64"/>
<path d="M78.2004 29.3951C79.0474 30.7039 82.4695 48.4613 83.1471 49.3456C83.8248 50.2299 85.1123 50.3007 85.1123 50.3007L87.3824 56.1726C87.3824 56.1726 81.758 58.012 78.6409 60.7004C74.6089 64.167 70.8819 75.6279 70.8819 75.6279C70.272 76.0877 62.7164 79.3067 60.6157 79.4482C60.6157 79.4482 70.272 68.3764 71.0513 53.0598C71.3563 47.1171 67.8664 38.769 67.6293 34.6303C67.3921 30.2087 68.6796 29.3951 70.9158 29.3951C73.152 29.3951 78.2004 29.3951 78.2004 29.3951Z" fill="#18C8FF"/>
<path d="M60.1414 80.6862L58.6167 79.2005C67.0872 69.8267 70.2043 55.076 69.9671 51.0789C69.8316 49.0272 69.2217 46.6926 68.5441 44.2518C67.8326 41.6342 67.0194 38.6983 66.6806 35.4793C66.3756 32.508 66.6806 30.5624 67.6632 29.4305C68.6457 28.2985 69.9671 28.2985 70.848 28.2985H78.9119V30.4563H70.848C70.0688 30.4563 69.5605 30.4917 69.2217 30.8808C68.9168 31.2345 68.4424 32.2957 68.7813 35.2317C69.1201 38.2738 69.8655 40.9975 70.577 43.6505C71.2885 46.1974 71.9323 48.6381 72.1017 50.9374C72.3388 55.2175 69.0523 70.8525 60.1414 80.6862Z" fill="#DBDBDB"/>
<path d="M83.1811 54.1917C83.6554 56.0311 85.1462 57.1631 86.5354 56.774C87.8907 56.3849 88.6361 54.5808 88.1617 52.7768C87.6874 50.9374 86.1966 49.8054 84.8074 50.1945C83.4183 50.5836 82.7067 52.3523 83.1811 54.1917Z" fill="#DBDBDB"/>
<path d="M83.6893 54.0502C84.1297 55.6774 85.4172 56.7386 86.5692 56.3849C87.7551 56.0665 88.3311 54.4747 87.9245 52.8475C87.484 51.2204 86.1965 50.1592 85.0445 50.5129C83.8587 50.8313 83.2488 52.4231 83.6893 54.0502Z" fill="white"/>
<path opacity="0.1" d="M77.184 53.8734C76.8113 52.034 76.4047 50.1946 76.0659 48.3551C75.7271 46.5157 75.3882 44.6763 75.1172 42.8369C74.8461 41.1036 74.5751 39.3704 74.4734 37.6371C74.3718 35.833 74.4734 33.9936 75.3205 32.3311C75.3205 32.2957 75.2866 32.2603 75.2866 32.2957C74.4057 33.6045 74.1346 35.2317 74.0668 36.7881C73.9991 38.5214 74.2701 40.2901 74.5073 41.988C75.0155 45.7375 75.6593 49.5225 76.5402 53.2013C77.0484 55.2883 77.6583 57.3399 78.336 59.3916C78.336 59.427 78.4037 59.427 78.3698 59.3916C77.9632 57.5522 77.5567 55.7128 77.184 53.8734Z" fill="black"/>
<path d="M12.1671 38.9359L60.1027 38.9359L60.1027 7.80759L12.1671 7.80759L12.1671 38.9359Z" fill="#37474F"/>
<path d="M12.1907 38.9359L46.8002 38.9359L46.8002 7.80759L12.1907 7.80759L12.1907 38.9359Z" fill="#E35C49"/>
<path d="M71.7805 -16H56.8726L45.1763 7.8717H60.1322L71.7805 -16Z" fill="#37474F"/>
<path d="M58.5024 -16H56.8726L45.1763 7.8717H46.8061L58.5024 -16Z" fill="#263238"/>
<path d="M19.0035 7.8717H16.0315V39H19.0035V7.8717Z" fill="white"/>
<path d="M40.8142 7.8717H37.8422V39H40.8142V7.8717Z" fill="white"/>
<path d="M20.3937 17.9809V14.4277C20.3937 14.2275 20.5375 14.0773 20.7292 14.0773H22.5987C22.7425 14.0773 22.9343 14.2275 22.9343 14.4277C22.9343 14.6278 22.7905 14.778 22.5987 14.778H21.0648V15.879H22.407C22.5987 15.879 22.7425 16.0291 22.7425 16.2293C22.7425 16.4295 22.5987 16.5796 22.407 16.5796H21.0648V18.0309C21.0648 18.2311 20.921 18.3812 20.7292 18.3812C20.5375 18.2812 20.3937 18.131 20.3937 17.9809Z" fill="white"/>
<path d="M26.9608 14.6278C27.2964 15.0282 27.5361 15.5287 27.5361 16.1292C27.5361 16.7297 27.2964 17.2802 26.9608 17.6306C26.6253 18.0309 26.098 18.2812 25.5707 18.2812C24.9955 18.2812 24.5161 18.0309 24.1806 17.6306C23.845 17.2302 23.6053 16.7297 23.6053 16.1292C23.6053 15.5287 23.7971 15.0282 24.1806 14.6278C24.5161 14.2275 25.0434 13.9772 25.5707 13.9772C26.098 13.9772 26.6253 14.2275 26.9608 14.6278ZM26.865 16.1292C26.865 15.7288 26.7212 15.3285 26.4815 15.0782C26.2418 14.828 25.9063 14.6278 25.5707 14.6278C25.1872 14.6278 24.8996 14.778 24.6599 15.0782C24.4203 15.3285 24.2764 15.7288 24.2764 16.1292C24.2764 16.5296 24.4203 16.9299 24.6599 17.1802C24.8996 17.4304 25.2352 17.6306 25.5707 17.6306C25.9063 17.6306 26.2418 17.4804 26.4815 17.1802C26.7212 16.9299 26.865 16.5296 26.865 16.1292Z" fill="white"/>
<path d="M31.8024 14.6278C32.1379 15.0282 32.3776 15.5287 32.3776 16.1292C32.3776 16.7297 32.1379 17.2802 31.8024 17.6306C31.4668 18.0309 30.9395 18.2812 30.4123 18.2812C29.837 18.2812 29.3577 18.0309 29.0221 17.6306C28.6866 17.2302 28.4469 16.7297 28.4469 16.1292C28.4469 15.5287 28.6386 15.0282 29.0221 14.6278C29.3577 14.2275 29.885 13.9772 30.4123 13.9772C30.9395 13.9772 31.4668 14.2275 31.8024 14.6278ZM31.7065 16.1292C31.7065 15.7288 31.5627 15.3285 31.323 15.0782C31.0834 14.828 30.7478 14.6278 30.4123 14.6278C30.0288 14.6278 29.7412 14.778 29.5015 15.0782C29.2618 15.3285 29.118 15.7288 29.118 16.1292C29.118 16.5296 29.2618 16.9299 29.5015 17.1802C29.7412 17.4304 30.0767 17.6306 30.4123 17.6306C30.7478 17.6306 31.0834 17.4804 31.323 17.1802C31.5627 16.9299 31.7065 16.5296 31.7065 16.1292Z" fill="white"/>
<path d="M33.3363 17.9809V14.4277C33.3363 14.2275 33.4801 14.0773 33.6719 14.0773H34.343C35.4455 14.0773 36.3562 15.0282 36.3562 16.1793C36.3562 17.3303 35.4455 18.2812 34.343 18.2812H33.6719C33.4801 18.2812 33.3363 18.131 33.3363 17.9809ZM33.9595 17.6306H34.295C35.062 17.6306 35.6851 16.98 35.6851 16.1793C35.6851 15.3785 35.062 14.7279 34.295 14.7279H33.9595V17.6306Z" fill="white"/>
<path d="M27.5362 20.9336H26.913V23.1856C26.913 23.3358 26.8171 23.4359 26.6733 23.4359C26.5295 23.4359 26.4336 23.3358 26.4336 23.1856V20.9336H25.8105C25.6667 20.9336 25.5708 20.8335 25.5708 20.6833C25.5708 20.5332 25.6667 20.4331 25.8105 20.4331H27.5362C27.68 20.4331 27.7758 20.5332 27.7758 20.6833C27.7758 20.8335 27.632 20.9336 27.5362 20.9336Z" fill="white"/>
<path d="M30.4123 20.8335C30.652 21.1337 30.8437 21.4841 30.8437 21.8844C30.8437 22.2848 30.6999 22.6852 30.4123 22.9354C30.1726 23.1856 29.8371 23.3858 29.4536 23.3858C29.0701 23.3858 28.6866 23.1856 28.447 22.9354C28.2073 22.6852 28.0635 22.2848 28.0635 21.8844C28.0635 21.4841 28.2073 21.0837 28.447 20.8335C28.6866 20.5332 29.0701 20.3831 29.4536 20.3831C29.8371 20.3831 30.1726 20.5832 30.4123 20.8335ZM30.3644 21.8844C30.3644 21.5842 30.2685 21.3339 30.0768 21.1337C29.885 20.9336 29.6933 20.8335 29.4536 20.8335C29.2139 20.8335 28.9743 20.9336 28.7825 21.1337C28.5908 21.3339 28.4949 21.5842 28.4949 21.8844C28.4949 22.1847 28.5908 22.4349 28.7825 22.6351C28.9743 22.8353 29.166 22.9354 29.4536 22.9354C29.6933 22.9354 29.933 22.8353 30.0768 22.6351C30.2685 22.4349 30.3644 22.1847 30.3644 21.8844Z" fill="white"/>
<path d="M20.4416 28.7907C20.8251 26.5387 22.8864 24.7871 25.0914 24.7871C26.0022 24.7871 26.8171 25.0874 27.3923 25.6379C27.632 25.838 27.5841 26.2384 27.3444 26.5387C27.1047 26.8389 26.7212 26.889 26.4815 26.6388C26.0501 26.2384 25.5228 26.0382 24.8517 26.0382C24.0848 26.0382 23.3657 26.3385 22.7905 26.8389C22.2153 27.3394 21.7838 28.04 21.688 28.7907C21.5442 29.5414 21.7359 30.242 22.1673 30.7425C22.5988 31.243 23.2219 31.5432 23.941 31.5432C24.4682 31.5432 24.9955 31.3931 25.4749 31.0928L25.7625 29.5414H24.2286C23.893 29.5414 23.6533 29.2411 23.7492 28.8908C23.7971 28.5405 24.1327 28.2402 24.4682 28.2402H26.5774C26.913 28.2402 27.1526 28.5405 27.1047 28.8908L26.6733 31.3931C26.6733 31.4431 26.6253 31.4932 26.6253 31.5432C26.6253 31.5432 26.6253 31.5933 26.5774 31.5933C26.5295 31.6934 26.4336 31.7935 26.3377 31.8435C25.5708 32.394 24.66 32.6943 23.7492 32.6943C21.5442 32.7944 20.0582 31.0428 20.4416 28.7907Z" fill="white"/>
<path d="M29.6453 31.6433C29.118 30.9427 28.8784 29.9418 29.0701 28.7907C29.2618 27.6897 29.8371 26.6888 30.604 25.9381C31.371 25.1874 32.3777 24.737 33.4322 24.737C34.4389 24.737 35.3017 25.1874 35.829 25.9381C36.3563 26.6388 36.596 27.6897 36.4042 28.7907C36.2125 29.8917 35.6373 30.8926 34.8703 31.6433C34.1033 32.394 33.0967 32.8444 32.0421 32.8444C31.0355 32.8444 30.1726 32.394 29.6453 31.6433ZM30.2685 28.7907C30.1247 29.5414 30.3164 30.242 30.652 30.7425C31.0355 31.2429 31.5628 31.5432 32.2339 31.5432C32.9049 31.5432 33.5281 31.2429 34.1033 30.7425C34.6306 30.242 35.0141 29.5414 35.1579 28.7907C35.3017 28.04 35.11 27.3394 34.7744 26.8389C34.391 26.3385 33.8637 26.0382 33.1926 26.0382C32.5215 26.0382 31.8504 26.3385 31.3231 26.8389C30.7958 27.3394 30.4123 28.04 30.2685 28.7907Z" fill="white"/>
<path d="M23.7971 21.7843H20.3937V22.2348H23.7971V21.7843Z" fill="white"/>
<path d="M36.3083 21.7843H32.9049V22.2348H36.3083V21.7843Z" fill="white"/>
</g>
<defs>
<clipPath id="clip0_415_4792">
<rect width="107.914" height="100" fill="white" transform="translate(0.543213)"/>
</clipPath>
</defs>
</svg>
