<svg width="50" height="50" viewBox="0 0 50 50" fill="none" xmlns="http://www.w3.org/2000/svg">
<g id=" message-circle">
<path id="Icon" fill-rule="evenodd" clip-rule="evenodd" d="M14.5837 22.9151C14.5837 21.7651 15.5171 20.8318 16.6671 20.8318C17.8171 20.8318 18.7504 21.7651 18.7504 22.9151C18.7504 24.0651 17.8171 24.9985 16.6671 24.9985C15.5171 24.9985 14.5837 24.0651 14.5837 22.9151ZM25.0004 20.8318C23.8504 20.8318 22.9171 21.7651 22.9171 22.9151C22.9171 24.0651 23.8504 24.9985 25.0004 24.9985C26.1504 24.9985 27.0837 24.0651 27.0837 22.9151C27.0837 21.7651 26.1504 20.8318 25.0004 20.8318ZM33.3337 20.8318C32.1837 20.8318 31.2504 21.7651 31.2504 22.9151C31.2504 24.0651 32.1837 24.9985 33.3337 24.9985C34.4837 24.9985 35.4171 24.0651 35.4171 22.9151C35.4171 21.7651 34.4837 20.8318 33.3337 20.8318ZM41.4554 25.6129C40.3992 32.392 34.9346 38.0149 28.1658 39.2837C24.8971 39.9003 21.5679 39.5483 18.5471 38.2691C17.6908 37.9066 16.8054 37.7233 15.9367 37.7233C15.5408 37.7233 15.1492 37.7608 14.7637 37.8378L8.90541 39.0087L10.0783 33.1399C10.3242 31.9212 10.1742 30.617 9.64707 29.3691C8.36791 26.3483 8.01791 23.0212 8.63249 19.7504C9.90124 12.9816 15.5221 7.51702 22.3033 6.46077C27.6992 5.62118 32.9762 7.32118 36.7846 11.1295C40.595 14.9399 42.2971 20.2191 41.4554 25.6129ZM39.7325 8.18369C34.9721 3.42535 28.3887 1.30244 21.6617 2.34202C13.1679 3.66702 6.12624 10.5087 4.53666 18.9816C3.76999 23.0608 4.21166 27.2149 5.80957 30.992C6.01166 31.4733 6.07416 31.9212 5.99499 32.3233L4.20749 41.2566C4.06999 41.9399 4.28457 42.6462 4.77832 43.1379C5.17207 43.5337 5.70332 43.7483 6.25124 43.7483C6.38666 43.7483 6.52207 43.7358 6.65957 43.7087L15.5825 41.9233C16.095 41.8254 16.5908 41.9691 16.9221 42.1066C20.7033 43.7045 24.8575 44.1441 28.9325 43.3795C37.4075 41.7899 44.2492 34.7483 45.5742 26.2545C46.62 19.5316 44.4929 12.9441 39.7325 8.18369Z" fill="#E35C49"/>
</g>
</svg>
