<svg width="26" height="32" viewBox="0 0 26 32" fill="none" xmlns="http://www.w3.org/2000/svg">
<g id="Group">
<g id="Group_2">
<path id="Vector" fill-rule="evenodd" clip-rule="evenodd" d="M16.5631 0V9.2017H25.7647V31.2858H0V0H16.5631ZM11.9199 11.042C11.6456 11.042 11.399 11.1653 11.2205 11.3843C10.4089 12.3616 10.7089 14.5295 10.915 15.8177C10.961 16.1103 10.9224 16.4066 10.7972 16.6735L9.0397 20.4738C8.91089 20.7498 8.70476 20.9725 8.44345 21.1179C7.33371 21.7344 5.47314 22.5791 5.24861 24.0937C5.16763 24.5869 5.33142 25.012 5.71422 25.3949C5.97371 25.6414 6.28841 25.7647 6.63071 25.7647C7.95759 25.7647 8.79496 24.5961 9.69856 23.3447C10.0997 22.7871 10.7034 22.4448 11.3677 22.3527C12.6118 22.1816 14.1025 21.8227 15.0043 21.5872C15.4588 21.4676 15.9226 21.497 16.3698 21.6387C17.1611 21.8927 17.4611 22.0473 18.3702 22.0473C19.191 22.0473 19.7523 21.8559 20.0247 21.486C20.2437 21.2117 20.2971 20.8418 20.1903 20.4167C19.9971 19.7192 20.1572 18.9555 18.0224 18.9555C17.5439 18.9555 17.0783 19.0015 16.69 19.0549C16.09 19.1359 15.4956 18.8764 15.1092 18.3887C14.5828 17.728 14.0473 16.9477 13.6755 16.3808C13.4124 15.9815 13.324 15.5012 13.4105 15.0264C13.6626 13.6461 13.7105 12.621 13.0277 11.6585C12.7406 11.2481 12.356 11.042 11.9199 11.042ZM18.4036 0.27437L25.4907 7.36153H18.4036V0.27437Z" fill="#DF0000"/>
<path id="Vector_2" fill-rule="evenodd" clip-rule="evenodd" d="M10.1367 21.1498C11.6403 20.4431 14.6327 20.086 14.6327 20.086C13.1273 18.6358 12.255 16.582 12.255 16.582C11.5501 18.6451 10.3042 20.8884 10.1367 21.1498Z" fill="#DF0000"/>
</g>
</g>
</svg>
