<svg width="161" height="161" viewBox="0 0 161 161" fill="none" xmlns="http://www.w3.org/2000/svg">
<path d="M66.8447 109.358C65.1219 109.227 63.5205 108.425 62.3813 107.126L35.6019 80.3469C35.0052 79.0981 34.8105 77.6949 35.0447 76.33C35.2788 74.9651 35.9302 73.7074 36.9091 72.7282C37.8881 71.7489 39.1465 71.0973 40.511 70.8634C41.8755 70.6296 43.2791 70.8242 44.5283 71.4204L66.5769 93.4688L142.72 17.862C143.968 17.2654 145.373 17.0707 146.737 17.3048C148.101 17.539 149.36 18.1903 150.338 19.1693C151.318 20.1483 151.969 21.4066 152.203 22.7711C152.437 24.1357 152.242 25.5392 151.646 26.7885L71.3079 107.126C70.1689 108.425 68.5666 109.227 66.8447 109.358Z" fill="#75BA55"/>
<path d="M80.2346 160.683C65.8764 160.66 51.786 156.79 39.431 149.475C27.0758 142.158 16.9073 131.665 9.98327 119.086C4.72005 109.713 1.46715 99.347 0.431949 88.6469C-1.20177 72.955 1.821 57.1294 9.12311 43.1441C16.4253 29.1589 27.6836 17.6333 41.4937 10.005C50.8667 4.74177 61.2332 1.48887 71.933 0.453671C82.5921 -0.693023 93.3735 0.33959 103.622 3.48867C104.536 3.67139 105.403 4.04318 106.165 4.58029C106.927 5.1173 107.569 5.80776 108.05 6.6074C108.53 7.40694 108.838 8.29807 108.954 9.22356C109.069 10.149 108.99 11.0884 108.722 11.9816C108.453 12.8748 108 13.702 107.393 14.4101C106.786 15.1183 106.038 15.6919 105.198 16.0941C104.356 16.4963 103.439 16.7182 102.507 16.7456C101.575 16.7731 100.647 16.6055 99.7836 16.2535C91.1124 13.6463 82.0083 12.7965 73.0042 13.7541C64.1045 14.6654 55.481 17.3677 47.653 21.6987C40.1113 25.8593 33.4433 31.4361 28.0147 38.1234C22.4255 44.9357 18.2518 52.7947 15.738 61.2403C13.2243 69.6862 12.421 78.5484 13.3753 87.3079C14.2866 96.2076 16.989 104.831 21.3199 112.659C25.4805 120.201 31.0573 126.869 37.7446 132.297C44.5569 137.887 52.4159 142.06 60.8615 144.574C69.3069 147.088 78.1691 147.891 86.9295 146.937C95.8292 146.025 104.452 143.323 112.281 138.992C119.823 134.832 126.49 129.255 131.919 122.567C137.508 115.756 141.682 107.896 144.195 99.4506C146.709 91.0052 147.513 82.1431 146.558 73.3826C146.47 72.4623 146.565 71.534 146.835 70.6502C147.106 69.7665 147.548 68.9444 148.137 68.232C148.726 67.5188 149.449 66.9288 150.265 66.4958C151.082 66.062 151.976 65.7942 152.896 65.7059C153.816 65.6184 154.745 65.7121 155.628 65.9835C156.512 66.2539 157.334 66.6967 158.047 67.285C158.76 67.8732 159.35 68.5971 159.783 69.413C160.217 70.2298 160.484 71.1233 160.573 72.0437C162.198 87.7453 159.162 103.577 151.844 117.564C144.525 131.55 133.248 143.071 119.422 150.686C109.949 156.165 99.4221 159.572 88.5363 160.683C85.7691 160.683 82.9126 160.683 80.2346 160.683Z" fill="#75BA55"/>
</svg>
