<svg width="47" height="47" viewBox="0 0 47 47" fill="none" xmlns="http://www.w3.org/2000/svg">
<rect width="47" height="47" rx="5" fill="black"/>
<path d="M33.6421 13.3579C33.1649 12.8807 32.3911 12.8807 31.9139 13.3579L23 22.2718L14.0861 13.3579C13.6089 12.8807 12.8352 12.8807 12.3579 13.3579C11.8807 13.8352 11.8807 14.6089 12.3579 15.0861L21.2718 24L12.358 32.9138C11.8807 33.3911 11.8807 34.1648 12.358 34.6421C12.8352 35.1193 13.6089 35.1193 14.0861 34.6421L23 25.7282L31.9139 34.6421C32.3911 35.1193 33.1649 35.1193 33.6421 34.6421C34.1193 34.1648 34.1193 33.3911 33.6421 32.9139L24.7282 24L33.6421 15.0861C34.1193 14.6089 34.1193 13.8352 33.6421 13.3579Z" fill="white"/>
</svg>
