<svg width="22" height="22" viewBox="0 0 22 22" fill="none" xmlns="http://www.w3.org/2000/svg">
<path d="M7.86849 3.74921C9.26178 1.24974 9.9585 0 11.0001 0C12.0416 0 12.7382 1.24974 14.1315 3.74921L14.492 4.39586C14.8879 5.10613 15.0859 5.46126 15.3946 5.69559C15.7033 5.9299 16.0877 6.01689 16.8566 6.19085L17.5565 6.34922C20.2622 6.9614 21.6151 7.26749 21.9368 8.30252C22.2587 9.33748 21.3365 10.416 19.4919 12.5729L19.0147 13.131C18.4905 13.7438 18.2284 14.0503 18.1106 14.4295C17.9926 14.8086 18.0322 15.2175 18.1116 16.0352L18.1836 16.7798C18.4626 19.6577 18.602 21.0966 17.7593 21.7363C16.9167 22.3759 15.65 21.7926 13.1167 20.6262L12.4614 20.3245C11.7415 19.993 11.3816 19.8274 11.0001 19.8274C10.6185 19.8274 10.2585 19.993 9.53871 20.3245L8.88325 20.6262C6.34994 21.7926 5.0833 22.3759 4.24068 21.7363C3.39803 21.0966 3.53747 19.6577 3.81634 16.7798L3.88848 16.0352C3.96774 15.2175 4.00735 14.8086 3.88946 14.4295C3.77155 14.0503 3.50948 13.7438 2.98531 13.131L2.50812 12.5729C0.663582 10.416 -0.258687 9.33748 0.0631597 8.30252C0.38502 7.26749 1.73784 6.9614 4.4435 6.34922L5.14349 6.19085C5.91228 6.01689 6.29673 5.9299 6.60542 5.69559C6.91411 5.46126 7.11211 5.10613 7.50797 4.39586L7.86849 3.74921Z" fill="#79CC47"/>
</svg>
