<svg width="52" height="22" viewBox="0 0 52 22" fill="none" xmlns="http://www.w3.org/2000/svg">
<path d="M22.8685 3.74921C24.2618 1.24974 24.9585 0 26.0001 0C27.0416 0 27.7382 1.24974 29.1315 3.74921L29.492 4.39586C29.8879 5.10613 30.0859 5.46126 30.3946 5.69559C30.7033 5.9299 31.0877 6.01689 31.8566 6.19085L32.5565 6.34922C35.2622 6.9614 36.6151 7.26749 36.9368 8.30252C37.2587 9.33748 36.3365 10.416 34.4919 12.5729L34.0147 13.131C33.4905 13.7438 33.2284 14.0503 33.1106 14.4295C32.9926 14.8086 33.0322 15.2175 33.1116 16.0352L33.1836 16.7798C33.4626 19.6577 33.602 21.0966 32.7593 21.7363C31.9167 22.3759 30.65 21.7926 28.1167 20.6262L27.4614 20.3246C26.7415 19.993 26.3816 19.8274 26.0001 19.8274C25.6185 19.8274 25.2585 19.993 24.5387 20.3246L23.8832 20.6262C21.3499 21.7926 20.0833 22.3759 19.2407 21.7363C18.398 21.0966 18.5375 19.6577 18.8163 16.7798L18.8885 16.0352C18.9677 15.2175 19.0074 14.8086 18.8895 14.4295C18.7716 14.0503 18.5095 13.7438 17.9853 13.131L17.5081 12.5729C15.6636 10.416 14.7413 9.33748 15.0632 8.30252C15.385 7.26749 16.7378 6.9614 19.4435 6.34922L20.1435 6.19085C20.9123 6.01689 21.2967 5.9299 21.6054 5.69559C21.9141 5.46126 22.1121 5.10613 22.508 4.39586L22.8685 3.74921Z" fill="#DD4C37"/>
<path d="M44.0776 7.30349L44.0776 7.30353L43.8646 7.65618C43.8516 7.67759 43.8388 7.69883 43.8262 7.7199C43.6311 8.04408 43.4614 8.3261 43.1901 8.51616L43.1901 8.51617C42.9214 8.70449 42.5962 8.77193 42.2166 8.85067C42.1918 8.85581 42.1668 8.86099 42.1416 8.86627L42.1416 8.86627L41.7279 8.95265C41.7279 8.95265 41.7279 8.95265 41.7279 8.95265C40.9125 9.12297 40.3557 9.24052 39.9742 9.37931C39.5932 9.51791 39.5316 9.62758 39.5112 9.68827L39.0373 9.52865L39.5112 9.68828C39.4924 9.74383 39.4721 9.85864 39.6927 10.1821C39.9153 10.5084 40.2922 10.9173 40.8488 11.5181L40.8489 11.5181L41.1308 11.8225C41.1484 11.8415 41.166 11.8604 41.1833 11.8791C41.4408 12.1561 41.6673 12.3997 41.7721 12.711L44.0776 7.30349ZM44.0776 7.30349C44.498 6.6073 44.7845 6.13551 45.0375 5.83051C45.2853 5.53185 45.4147 5.5 45.5 5.5C45.5854 5.5 45.7147 5.53184 45.9625 5.83049C46.2155 6.13551 46.502 6.60729 46.9224 7.30349L46.9224 7.30353M44.0776 7.30349L46.9224 7.30353M46.9224 7.30353L47.1354 7.65618C47.1484 7.67759 47.1611 7.69883 47.1738 7.7199C47.3689 8.04408 47.5386 8.3261 47.8099 8.51616L47.8099 8.51617M46.9224 7.30353L47.8099 8.51617M47.8099 8.51617C48.0787 8.7045 48.4038 8.77194 48.7835 8.85068C48.8083 8.85582 48.8333 8.861 48.8585 8.86627C48.8585 8.86627 48.8585 8.86627 48.8585 8.86627L49.2721 8.95265L49.2721 8.95265M47.8099 8.51617L49.2721 8.95265M49.2721 8.95265C50.0876 9.12297 50.6443 9.24052 51.0258 9.37931C51.4068 9.51792 51.4684 9.62757 51.4888 9.68822L51.4888 9.6883M49.2721 8.95265L51.4888 9.6883M51.4888 9.6883C51.5076 9.74386 51.5279 9.85865 51.3073 10.1821C51.0848 10.5084 50.7078 10.9173 50.1512 11.5181L50.1512 11.5181M51.4888 9.6883L50.1512 11.5181M50.1512 11.5181L49.8692 11.8225C49.8692 11.8225 49.8692 11.8225 49.8691 11.8225C49.8515 11.8416 49.834 11.8604 49.8166 11.8791C49.5592 12.156 49.3328 12.3996 49.2279 12.7109C49.1223 13.0241 49.1575 13.3532 49.197 13.7233C49.1997 13.7483 49.2024 13.7734 49.205 13.7988L49.2476 14.2047L49.2476 14.2048M50.1512 11.5181L49.2476 14.2048M49.2476 14.2048C49.3319 15.0071 49.3874 15.5497 49.3686 15.9381C49.3503 16.3179 49.2665 16.4051 49.2072 16.4466L49.2072 16.4467M49.2476 14.2048L49.2072 16.4467M49.2072 16.4467C49.1414 16.4928 49.0147 16.5425 48.625 16.4395C48.2317 16.3354 47.7099 16.115 46.9464 15.7905L46.9463 15.7905M49.2072 16.4467L46.9463 15.7905M46.9463 15.7905L46.5592 15.626C46.536 15.6161 46.513 15.6063 46.4903 15.5966C46.1335 15.4444 45.83 15.3149 45.5 15.3149C45.17 15.3149 44.8663 15.4445 44.5094 15.5968C44.4868 15.6064 44.464 15.6161 44.441 15.6259C44.441 15.6259 44.4409 15.626 44.4409 15.626L44.0537 15.7905L44.0536 15.7905M46.9463 15.7905L44.0536 15.7905M44.0536 15.7905C43.2901 16.115 42.7683 16.3354 42.375 16.4395C41.9853 16.5425 41.8586 16.4928 41.7928 16.4467L41.5059 16.8561M44.0536 15.7905L41.5059 16.8561M41.5059 16.8561L41.7928 16.4467C41.7336 16.4052 41.6497 16.318 41.6314 15.9381M41.5059 16.8561L41.6314 15.9381M41.6314 15.9381C41.6126 15.5497 41.6682 15.0071 41.7524 14.2048M41.6314 15.9381L41.7524 14.2048M41.7524 14.2048L41.795 13.7987M41.7524 14.2048L41.795 13.7987M41.795 13.7987C41.795 13.7987 41.795 13.7987 41.795 13.7987M41.795 13.7987L41.795 13.7987M41.795 13.7987C41.7977 13.7733 41.8004 13.7481 41.803 13.7231M41.795 13.7987L41.803 13.7231M41.803 13.7231C41.8425 13.353 41.8776 13.0241 41.7722 12.711L41.803 13.7231Z" fill="#DD4C37" stroke="#DD4C37"/>
<path d="M5.07758 7.30349L5.07756 7.30353L4.86456 7.65618C4.85163 7.67759 4.83885 7.69883 4.82617 7.7199C4.63108 8.04408 4.46137 8.3261 4.19013 8.51616L4.19012 8.51617C3.92136 8.70449 3.5962 8.77193 3.21657 8.85067C3.1918 8.85581 3.1668 8.86099 3.14157 8.86627L3.14155 8.86627L2.72793 8.95265C2.72793 8.95265 2.72793 8.95265 2.72792 8.95265C1.91245 9.12297 1.35574 9.24052 0.974215 9.37931C0.593211 9.51791 0.531604 9.62758 0.511157 9.68827L0.0373217 9.52865L0.511155 9.68828C0.492439 9.74383 0.472132 9.85864 0.692728 10.1821C0.91528 10.5084 1.29223 10.9173 1.84885 11.5181L1.84889 11.5181L2.13081 11.8225C2.14844 11.8415 2.16596 11.8604 2.18333 11.8791C2.44081 12.1561 2.66728 12.3997 2.77215 12.711L5.07758 7.30349ZM5.07758 7.30349C5.498 6.6073 5.7845 6.13551 6.03755 5.83051C6.28532 5.53185 6.41468 5.5 6.50004 5.5C6.58538 5.5 6.71471 5.53184 6.96247 5.83049C7.2155 6.13551 7.50199 6.60729 7.92241 7.30349L7.92243 7.30353M5.07758 7.30349L7.92243 7.30353M7.92243 7.30353L8.13543 7.65618C8.14836 7.67759 8.16115 7.69883 8.17382 7.7199C8.36891 8.04408 8.53862 8.3261 8.80986 8.51616L8.80987 8.51617M7.92243 7.30353L8.80987 8.51617M8.80987 8.51617C9.07865 8.7045 9.40382 8.77194 9.78353 8.85068C9.80828 8.85582 9.83327 8.861 9.85849 8.86627C9.85849 8.86627 9.8585 8.86627 9.8585 8.86627L10.2721 8.95265L10.2721 8.95265M8.80987 8.51617L10.2721 8.95265M10.2721 8.95265C11.0876 9.12297 11.6443 9.24052 12.0258 9.37931C12.4068 9.51792 12.4684 9.62757 12.4888 9.68822L12.4888 9.6883M10.2721 8.95265L12.4888 9.6883M12.4888 9.6883C12.5076 9.74386 12.5279 9.85865 12.3073 10.1821C12.0848 10.5084 11.7078 10.9173 11.1512 11.5181L11.1512 11.5181M12.4888 9.6883L11.1512 11.5181M11.1512 11.5181L10.8692 11.8225C10.8692 11.8225 10.8692 11.8225 10.8691 11.8225C10.8515 11.8416 10.834 11.8604 10.8166 11.8791C10.5592 12.156 10.3328 12.3996 10.2279 12.7109C10.1223 13.0241 10.1575 13.3532 10.197 13.7233C10.1997 13.7483 10.2024 13.7734 10.205 13.7988L10.2476 14.2047L10.2476 14.2048M11.1512 11.5181L10.2476 14.2048M10.2476 14.2048C10.3319 15.0071 10.3874 15.5497 10.3686 15.9381C10.3503 16.3179 10.2665 16.4051 10.2072 16.4466L10.2072 16.4467M10.2476 14.2048L10.2072 16.4467M10.2072 16.4467C10.1414 16.4928 10.0147 16.5425 9.62497 16.4395C9.2317 16.3354 8.70987 16.115 7.94638 15.7905L7.94634 15.7905M10.2072 16.4467L7.94634 15.7905M7.94634 15.7905L7.55915 15.626C7.53596 15.6161 7.51301 15.6063 7.49027 15.5966C7.13351 15.4444 6.82998 15.3149 6.50004 15.3149C6.16998 15.3149 5.86632 15.4445 5.5094 15.5968C5.48682 15.6064 5.46403 15.6161 5.441 15.6259C5.44096 15.6259 5.44093 15.626 5.44089 15.626L5.05368 15.7905L5.05361 15.7905M7.94634 15.7905L5.05361 15.7905M5.05361 15.7905C4.29011 16.115 3.76829 16.3354 3.37503 16.4395C2.98528 16.5425 2.85857 16.4928 2.79278 16.4467L2.50585 16.8561M5.05361 15.7905L2.50585 16.8561M2.50585 16.8561L2.79278 16.4467C2.73356 16.4052 2.64972 16.318 2.63138 15.9381M2.50585 16.8561L2.63138 15.9381M2.63138 15.9381C2.61264 15.5497 2.66816 15.0071 2.75238 14.2048M2.63138 15.9381L2.75238 14.2048M2.75238 14.2048L2.79501 13.7987M2.75238 14.2048L2.79501 13.7987M2.79501 13.7987C2.79501 13.7987 2.79501 13.7987 2.79501 13.7987M2.79501 13.7987L2.79501 13.7987M2.79501 13.7987C2.79768 13.7733 2.80036 13.7481 2.80303 13.7231M2.79501 13.7987L2.80303 13.7231M2.80303 13.7231C2.84251 13.353 2.87761 13.0241 2.77216 12.711L2.80303 13.7231Z" fill="#DD4C37" stroke="#DD4C37"/>
</svg>
