<svg width="18" height="18" viewBox="0 0 18 18" fill="none" xmlns="http://www.w3.org/2000/svg">
<path d="M6.43786 3.06754C7.57782 1.02251 8.14786 0 9.00005 0C9.85224 0 10.4222 1.02251 11.5621 3.06754L11.8571 3.59661C12.181 4.17774 12.343 4.46831 12.5956 4.66003C12.8481 4.85174 13.1627 4.92291 13.7918 5.06524L14.3644 5.19482C16.5782 5.69569 17.6851 5.94613 17.9483 6.79297C18.2117 7.63976 17.4571 8.52221 15.9479 10.2869L15.5575 10.7435C15.1286 11.2449 14.9142 11.4957 14.8178 11.806C14.7212 12.1161 14.7536 12.4507 14.8186 13.1197L14.8775 13.7289C15.1058 16.0836 15.2198 17.2609 14.5303 17.7842C13.8409 18.3076 12.8046 17.8303 10.7319 16.876L10.1957 16.6292C9.60665 16.3579 9.31224 16.2224 9.00005 16.2224C8.68786 16.2224 8.39334 16.3579 7.8044 16.6292L7.26811 16.876C5.19541 17.8303 4.15907 18.3076 3.46964 17.7842C2.78021 17.2609 2.8943 16.0836 3.12246 13.7289L3.18149 13.1197C3.24633 12.4507 3.27874 12.1161 3.18228 11.806C3.08582 11.4957 2.87139 11.2449 2.44253 10.7435L2.0521 10.2869C0.542931 8.52221 -0.211653 7.63976 0.0516761 6.79297C0.315016 5.94613 1.42187 5.69569 3.63559 5.19482L4.20831 5.06524C4.83732 4.92291 5.15187 4.85174 5.40443 4.66003C5.657 4.46831 5.819 4.17774 6.14288 3.59661L6.43786 3.06754Z" fill="white"/>
</svg>
