<svg width="706" height="661" viewBox="0 0 706 661" fill="none" xmlns="http://www.w3.org/2000/svg">
<path d="M7.7652 615.957V656.6H17.1483C17.1483 656.6 16.1777 648.503 17.1483 643.808C18.119 638.95 28.1492 626.644 27.9875 616.119H7.7652V615.957Z" fill="#EBEBEB" fill-opacity="0.5"/>
<path d="M82.6686 615.957V656.6H92.0517C92.0517 656.6 91.0811 648.503 92.0517 643.808C93.0224 638.95 103.053 626.644 102.891 616.119H82.6686V615.957Z" fill="#E0E0E0" fill-opacity="0.5"/>
<path d="M155.954 615.957V656.6H146.571C146.571 656.6 147.542 648.503 146.571 643.808C145.6 638.95 135.57 626.644 135.732 616.119H155.954V615.957Z" fill="#EBEBEB" fill-opacity="0.5"/>
<path d="M220.827 615.957V656.6H211.444C211.444 656.6 212.415 648.503 211.444 643.808C210.473 638.95 200.443 626.644 200.605 616.119H220.827V615.957Z" fill="#E0E0E0" fill-opacity="0.5"/>
<path d="M225.842 415.496H1.45593V617.252H225.842V415.496Z" fill="#F5F5F5" fill-opacity="0.5"/>
<path d="M165.337 415.496L166.955 617.252H225.842V415.496H165.337Z" fill="#E0E0E0" fill-opacity="0.5"/>
<path d="M155.631 430.393H11.4861V481.722H155.631V430.393Z" fill="#EBEBEB" fill-opacity="0.5"/>
<path d="M155.631 491.923H11.4861V543.253H155.631V491.923Z" fill="#EBEBEB" fill-opacity="0.5"/>
<path d="M155.631 553.454H11.4861V604.784H155.631V553.454Z" fill="#EBEBEB" fill-opacity="0.5"/>
<path d="M66.6525 357.527L60.5049 415.334H140.1L146.733 357.527H66.6525Z" fill="#E0E0E0" fill-opacity="0.5"/>
<path d="M70.0499 361.737L63.9023 412.257H135.732L141.556 361.737H70.0499Z" fill="white"/>
<path d="M82.0214 370.157L78.3005 403.675H123.76L126.025 370.157H82.0214Z" fill="#EBEBEB" fill-opacity="0.5"/>
<path d="M143.821 382.463L160.322 415.496L140.1 415.334L143.821 382.463Z" fill="#EBEBEB" fill-opacity="0.5"/>
<path d="M88.8161 458.729C88.8161 461.644 86.3894 464.073 83.4774 464.073C80.5654 464.073 78.1387 461.644 78.1387 458.729C78.1387 455.815 80.5654 453.386 83.4774 453.386C86.3894 453.386 88.8161 455.815 88.8161 458.729Z" fill="#E0E0E0" fill-opacity="0.5"/>
<path d="M88.8161 520.908C88.8161 523.822 86.3894 526.251 83.4774 526.251C80.5654 526.251 78.1387 523.822 78.1387 520.908C78.1387 517.993 80.5654 515.564 83.4774 515.564C86.3894 515.564 88.8161 517.993 88.8161 520.908Z" fill="#E0E0E0" fill-opacity="0.5"/>
<path d="M88.8161 583.086C88.8161 586.001 86.3894 588.43 83.4774 588.43C80.5654 588.43 78.1387 586.001 78.1387 583.086C78.1387 580.172 80.5654 577.743 83.4774 577.743C86.3894 577.743 88.8161 580.172 88.8161 583.086Z" fill="#E0E0E0" fill-opacity="0.5"/>
<path d="M155.307 87.6006L28.1494 86.3052L31.7085 252.277L158.866 252.762L155.307 87.6006Z" fill="#E0E0E0" fill-opacity="0.5"/>
<path d="M147.056 95.049L35.7529 92.1344L38.9885 242.561L150.292 244.019L147.056 95.049Z" fill="#FAFAFA" fill-opacity="0.5"/>
<path d="M128.128 117.556L54.1957 116.261L56.4606 221.511L130.393 219.892L128.128 117.556Z" fill="#EBEBEB" fill-opacity="0.5"/>
<path d="M56.4606 221.511L129.099 165.81L54.1957 116.261L56.4606 221.511Z" fill="#F5F5F5" fill-opacity="0.5"/>
<path d="M702.926 1.13346L591.299 0L594.373 145.569L706 146.055L702.926 1.13346Z" fill="#E0E0E0" fill-opacity="0.5"/>
<path d="M695.646 7.61039L597.932 5.01962L600.844 137.149L698.396 138.283L695.646 7.61039Z" fill="#FAFAFA" fill-opacity="0.5"/>
<path d="M678.983 27.3651L614.11 26.2316L616.213 118.528L680.924 117.071L678.983 27.3651Z" fill="#EBEBEB" fill-opacity="0.5"/>
<path d="M616.213 118.528L679.954 69.789L614.11 26.2316L616.213 118.528Z" fill="#F5F5F5" fill-opacity="0.5"/>
<path d="M577.872 548.597C577.386 550.054 594.05 613.366 594.05 613.366L605.536 610.937L589.843 548.597H577.872Z" fill="#EBEBEB" fill-opacity="0.5"/>
<path d="M666.364 539.529L643.554 613.366H656.819L678.66 544.71L666.364 539.529Z" fill="#F5F5F5" fill-opacity="0.5"/>
<path d="M687.234 528.032L661.026 613.366H674.453L699.691 533.376L687.234 528.032Z" fill="#EBEBEB" fill-opacity="0.5"/>
<path d="M585.961 608.023L599.226 654.333H666.364L678.659 608.023H585.961Z" fill="#E0E0E0" fill-opacity="0.5"/>
<path d="M620.581 608.023C620.581 608.023 620.581 607.861 620.419 607.537C620.258 607.213 620.257 606.727 620.096 606.079C619.772 604.784 619.287 603.003 618.802 600.574C617.669 595.716 616.213 588.916 614.272 580.334C610.389 563.17 605.212 539.529 599.226 513.135L599.712 513.459C597.77 513.459 595.829 513.459 593.726 513.459C591.785 513.459 589.681 513.459 587.902 513.459L588.387 512.973C594.373 539.367 599.712 563.17 603.594 580.334C605.536 588.916 606.992 595.716 608.124 600.574C608.609 602.841 608.933 604.784 609.257 606.079C609.418 606.727 609.418 607.213 609.58 607.537C609.58 607.861 609.742 608.023 609.58 608.023C609.58 608.023 609.58 607.861 609.418 607.537C609.257 607.213 609.257 606.727 609.095 606.079C608.771 604.784 608.286 603.003 607.801 600.574C606.668 595.716 605.05 588.916 603.109 580.334C599.226 563.17 593.726 539.529 587.74 513.135L587.578 512.65H588.064C589.843 512.65 591.946 512.65 593.888 512.65C595.991 512.65 597.932 512.65 599.873 512.65H600.197V512.973C606.021 539.367 611.198 563.17 615.081 580.334C616.86 588.916 618.478 595.716 619.449 600.574C619.934 602.841 620.258 604.784 620.581 606.079C620.743 606.727 620.743 607.213 620.905 607.537C620.581 607.861 620.581 608.023 620.581 608.023Z" fill="#E0E0E0" fill-opacity="0.5"/>
<path d="M686.101 656.276C686.101 656.438 532.574 656.762 343.132 656.762C153.528 656.6 0 656.438 0 656.276C0 656.114 153.528 655.79 343.132 655.79C532.412 655.79 686.101 655.952 686.101 656.276Z" fill="#263238"/>
<path d="M641.936 214.225C641.936 214.225 641.612 214.063 640.803 213.901C639.995 213.739 638.862 213.577 637.244 213.901C635.788 214.225 634.009 215.034 632.067 216.492C630.288 217.949 628.508 220.054 626.891 222.483C623.655 227.502 620.905 234.627 617.993 242.723C615.081 250.981 611.683 260.373 608.933 271.222C608.448 272.031 607.801 272.841 606.992 273.489C606.183 274.136 605.212 274.622 604.08 274.46C602.947 274.298 602.138 273.651 601.33 272.841C600.521 272.193 599.874 271.384 599.226 270.574C597.77 269.117 596.314 267.498 594.697 266.202C593.079 264.907 591.138 263.611 589.034 263.935C586.931 264.259 584.99 265.554 583.858 267.336C582.725 269.279 582.24 271.546 582.078 273.813C581.754 278.508 583.21 283.042 584.019 287.9C584.99 292.758 585.799 297.777 586.77 302.797C587.255 305.388 587.74 307.978 588.226 310.569C588.387 311.865 588.711 313.16 588.873 314.455C589.196 315.751 589.358 317.37 588.387 318.665C587.902 319.313 586.931 319.637 586.284 319.475C585.475 319.313 584.99 318.827 584.343 318.503C583.21 317.694 582.24 316.884 581.107 316.075C578.842 314.455 576.578 312.836 574.313 311.379C571.886 309.922 569.297 308.788 566.709 308.14C565.415 307.817 563.959 307.817 562.665 308.14C561.37 308.464 560.238 309.274 559.267 310.407C557.649 312.674 557.164 315.589 557.164 318.503C557.164 321.418 557.488 324.333 557.973 327.247C559.105 333.077 560.885 338.906 562.826 344.735C563.312 346.192 563.959 347.65 564.282 349.269C564.444 350.079 564.282 351.05 563.635 351.698C563.473 351.86 563.312 352.022 563.15 352.184C562.988 352.345 562.826 352.507 562.503 352.507C561.856 352.669 561.532 352.345 561.047 352.184C559.591 351.374 558.458 350.24 557.326 349.269C556.193 348.135 555.061 347.164 553.929 346.03C551.664 343.925 549.237 341.82 546.649 340.039C545.354 339.23 543.898 338.42 542.442 338.096C540.986 337.61 539.369 337.772 538.074 338.582C536.78 339.392 535.971 340.849 535.648 342.306C535.324 343.764 535.001 345.383 535.001 347.002C535.001 350.24 535.486 353.479 536.295 356.717C537.751 363.194 540.339 369.347 543.251 375.339C546.325 381.33 549.884 387.159 553.767 392.826C555.546 395.741 557.973 398.332 560.076 400.923C562.179 403.675 564.444 406.266 566.709 409.019V409.181L566.385 409.019C569.783 408.533 573.18 408.047 576.739 407.561C580.137 407.076 583.534 406.752 586.931 405.78C593.564 404.323 600.197 402.38 606.345 399.951C612.654 397.522 618.64 394.607 623.979 390.883C626.729 389.102 629.155 386.997 631.42 384.568C632.553 383.435 633.523 382.139 634.171 380.682C634.979 379.225 635.303 377.767 634.818 376.31C634.494 374.853 633.362 373.719 631.906 373.072C630.611 372.424 628.994 371.938 627.538 371.614C624.464 371.129 621.228 370.967 618.155 371.129C616.537 371.129 614.919 371.129 613.463 371.129C611.845 371.129 610.389 371.129 608.61 370.805C608.286 370.643 607.801 370.643 607.315 370.157C607.154 369.833 607.154 369.671 607.154 369.509C607.154 369.347 607.154 369.024 607.154 368.862C607.154 367.89 607.801 367.08 608.448 366.595C609.742 365.461 611.198 364.975 612.492 364.166C617.993 361.251 623.17 358.175 627.861 354.612C630.288 352.831 632.391 350.888 634.332 348.621C636.274 346.516 637.891 343.925 638.215 341.173C638.377 339.715 638.053 338.42 637.244 337.287C636.435 336.153 635.465 335.182 634.171 334.534C631.744 333.077 628.994 332.267 626.405 331.781C623.655 331.133 620.905 330.81 618.155 330.648C616.86 330.486 615.404 330.324 614.11 330.324C613.463 330.324 612.654 330.162 612.007 329.838C611.36 329.514 610.713 328.705 610.874 327.895C611.036 326.276 612.33 325.304 613.301 324.495C614.434 323.685 615.404 322.875 616.537 322.066C618.64 320.447 620.743 318.827 622.846 317.37C626.891 314.293 630.935 311.217 634.818 308.302C638.7 305.226 642.745 302.635 645.657 299.073C647.113 297.291 648.245 295.348 648.569 293.081C648.892 290.976 648.407 288.548 647.113 287.09C646.466 286.281 645.495 285.795 644.524 285.471C643.554 285.147 642.421 284.985 641.451 284.985C639.347 284.823 637.244 284.985 635.141 285.147C634.171 285.147 633.038 285.309 632.067 285.309C631.097 285.309 629.964 285.309 628.994 284.661C628.023 284.014 627.538 283.042 627.376 281.909C627.214 280.937 627.376 279.966 627.538 278.832C632.715 268.955 636.597 259.725 639.995 251.629C643.23 243.533 645.98 236.57 646.951 230.579C647.436 227.664 647.598 224.912 647.275 222.645C646.951 220.378 646.304 218.597 645.333 217.301C644.524 216.006 643.554 215.196 642.907 214.872C642.259 214.549 641.774 214.387 641.774 214.387C641.774 214.387 642.259 214.387 642.907 214.872C643.554 215.196 644.524 216.006 645.495 217.301C646.466 218.597 647.113 220.54 647.436 222.807C647.76 225.074 647.598 227.826 647.113 230.741C646.142 236.732 643.392 243.695 640.156 251.791C636.921 259.887 633.038 269.117 627.861 279.156C627.699 280.128 627.538 281.099 627.699 281.909C627.861 282.88 628.185 283.69 628.994 284.176C629.803 284.661 630.773 284.823 631.744 284.823C632.715 284.823 633.685 284.661 634.818 284.661C636.921 284.5 639.024 284.338 641.127 284.5C642.259 284.5 643.23 284.661 644.363 284.985C645.495 285.309 646.466 285.795 647.275 286.766C648.731 288.548 649.378 290.976 648.892 293.243C648.569 295.51 647.275 297.615 645.819 299.558C642.907 303.283 638.7 305.873 634.818 308.95C630.935 311.865 626.891 314.941 622.846 318.18C620.743 319.799 618.802 321.256 616.699 322.875C615.728 323.685 614.595 324.495 613.463 325.304C612.978 325.79 612.33 326.114 612.007 326.6C611.683 327.085 611.36 327.733 611.198 328.219C611.198 328.867 611.36 329.19 612.007 329.514C612.492 329.838 613.139 329.838 613.786 330C615.081 330.162 616.537 330.324 617.831 330.324C620.581 330.648 623.331 330.972 626.082 331.457C628.832 332.105 631.582 332.915 634.171 334.372C635.465 335.182 636.597 336.153 637.406 337.287C638.215 338.582 638.7 340.201 638.539 341.659C638.215 344.735 636.435 347.326 634.494 349.593C632.553 351.86 630.288 353.803 627.861 355.584C623.008 359.308 617.831 362.385 612.33 365.299C611.036 366.109 609.58 366.595 608.448 367.566C607.962 368.052 607.477 368.538 607.477 369.347C607.477 369.509 607.477 369.671 607.477 369.833C607.477 369.995 607.477 370.319 607.639 370.319C607.639 370.481 608.124 370.643 608.448 370.643C609.904 370.967 611.522 370.967 612.978 370.967C614.595 370.967 616.051 370.967 617.669 370.967C620.905 370.967 623.979 370.967 627.214 371.614C628.832 371.938 630.45 372.262 631.906 373.072C633.362 373.881 634.656 375.177 635.141 376.958C635.627 378.739 635.141 380.52 634.332 381.977C633.523 383.435 632.553 384.892 631.42 386.026C629.155 388.454 626.567 390.559 623.817 392.502C618.316 396.389 612.169 399.141 605.859 401.57C599.55 403.999 592.917 405.942 586.284 407.399C582.887 408.371 579.49 408.533 576.092 409.181C572.695 409.666 569.298 410.152 565.738 410.638H565.577L565.415 410.476V410.314C563.15 407.561 561.047 404.971 558.782 402.218C556.679 399.465 554.252 397.036 552.473 394.122C548.59 388.454 545.031 382.625 541.957 376.634C538.883 370.643 536.295 364.328 534.839 357.851C534.03 354.612 533.544 351.374 533.544 347.974C533.544 346.354 533.706 344.573 534.192 342.954C534.677 341.335 535.486 339.715 536.942 338.744C538.398 337.772 540.339 337.61 541.957 338.096C543.575 338.582 545.031 339.23 546.487 340.201C549.237 341.982 551.664 344.087 553.929 346.192C555.061 347.326 556.193 348.297 557.326 349.431C558.458 350.402 559.591 351.536 560.885 352.345C561.209 352.507 561.532 352.669 561.694 352.669L562.017 352.507C562.179 352.345 562.341 352.345 562.341 352.184C562.826 351.698 562.826 351.05 562.826 350.24C562.665 348.783 562.017 347.326 561.532 345.869C559.429 340.039 557.649 334.21 556.517 328.219C556.032 325.304 555.546 322.228 555.708 319.313C555.708 316.398 556.193 313.16 558.135 310.731C559.105 309.436 560.4 308.626 561.856 308.302C563.312 307.978 564.768 307.978 566.224 308.302C569.136 308.95 571.724 310.245 574.151 311.541C576.577 312.998 578.842 314.617 581.107 316.237C582.24 317.046 583.372 317.856 584.343 318.665C584.828 318.989 585.475 319.475 585.961 319.475C586.608 319.637 587.093 319.475 587.417 318.989C587.74 318.503 587.902 317.856 587.902 317.37C587.902 316.722 587.74 316.075 587.74 315.427C587.578 314.132 587.255 312.836 587.093 311.541C586.608 308.95 586.122 306.359 585.637 303.768C584.666 298.749 583.858 293.729 582.887 288.871C582.078 284.014 580.784 279.318 581.107 274.622C581.269 272.193 581.754 269.926 583.049 267.821C584.343 265.878 586.446 264.421 588.711 264.097C589.843 263.935 590.976 264.259 592.108 264.745C593.079 265.231 594.05 265.878 594.858 266.526C596.476 267.983 597.932 269.441 599.388 270.898C600.035 271.708 600.844 272.355 601.491 273.003C602.3 273.651 602.947 274.298 603.918 274.46C604.889 274.622 605.698 274.136 606.506 273.651C607.154 273.003 607.801 272.355 608.286 271.546C611.036 260.697 614.434 251.143 617.507 243.047C620.581 234.789 623.17 227.826 626.567 222.807C628.346 220.378 629.964 218.273 631.906 216.816C633.685 215.358 635.627 214.549 637.083 214.225C638.7 213.901 639.833 214.063 640.642 214.225C641.612 214.063 641.936 214.225 641.936 214.225Z" fill="#263238"/>
<path d="M633.362 236.246C633.362 236.246 633.362 236.408 633.2 236.732C633.038 237.056 632.876 237.542 632.715 238.189C632.229 239.647 631.42 241.59 630.45 244.019C628.508 249.038 625.758 256.487 622.199 265.393C615.243 283.528 605.859 308.464 595.344 335.991C584.828 363.68 575.283 388.616 568.165 406.59C564.606 415.658 561.694 422.944 559.753 427.802C558.782 430.231 557.973 432.174 557.326 433.631C557.002 434.279 556.841 434.764 556.679 435.088C556.517 435.412 556.517 435.574 556.355 435.574C556.355 435.574 556.355 435.412 556.517 435.088C556.679 434.764 556.841 434.279 557.002 433.631C557.488 432.174 558.297 430.231 559.267 427.802C561.209 422.782 563.959 415.334 567.518 406.428C574.474 388.292 583.858 363.356 594.373 335.829C604.889 308.302 614.434 283.204 621.552 265.231C625.111 256.163 628.023 248.876 629.964 244.019C630.935 241.59 631.744 239.647 632.391 238.189C632.715 237.542 632.876 237.056 633.038 236.732C633.362 236.408 633.362 236.246 633.362 236.246Z" fill="#263238"/>
<path d="M634.332 292.11C634.332 292.272 632.876 293.081 630.288 294.539C627.538 296.158 624.14 297.939 620.419 300.044C616.537 302.149 612.978 304.092 610.389 305.388C607.801 306.683 606.183 307.331 606.021 307.331C606.021 307.169 607.477 306.359 610.066 304.902C612.816 303.283 616.213 301.502 619.934 299.235C623.817 297.13 627.376 295.186 629.964 293.891C632.553 292.758 634.332 292.11 634.332 292.11Z" fill="#263238"/>
<path d="M604.727 306.359C604.565 306.521 600.682 299.073 596.153 290.005C591.623 280.775 588.064 273.327 588.387 273.165C588.549 273.003 592.432 280.451 596.962 289.519C601.491 298.749 604.889 306.197 604.727 306.359Z" fill="#263238"/>
<path d="M590.49 349.431C590.49 349.431 589.034 348.297 586.931 346.192C584.828 344.087 582.078 341.173 579.166 337.61C576.254 334.21 573.827 330.81 572.048 328.381C570.268 325.952 569.297 324.333 569.459 324.333C569.621 324.333 570.753 325.628 572.533 328.057C574.313 330.324 576.901 333.562 579.813 336.963C582.725 340.363 585.475 343.44 587.417 345.707C589.358 347.974 590.652 349.431 590.49 349.431Z" fill="#263238"/>
<path d="M620.096 342.468C620.096 342.63 618.478 343.116 615.89 343.763C613.301 344.411 609.58 345.221 605.536 346.192C601.491 347.164 597.77 347.812 595.02 348.459C592.27 349.107 590.652 349.269 590.652 349.107C590.652 348.945 592.27 348.459 594.858 347.812C597.447 347.164 601.168 346.354 605.212 345.383C609.257 344.411 612.978 343.763 615.728 343.116C618.478 342.63 620.096 342.468 620.096 342.468Z" fill="#263238"/>
<path d="M612.492 382.139C612.492 382.301 610.389 382.787 606.992 383.597C603.595 384.406 598.903 385.378 593.564 386.511C588.387 387.645 583.534 388.616 580.137 389.264C576.739 389.912 574.474 390.235 574.474 390.074C574.474 389.912 576.577 389.426 579.975 388.616C583.372 387.807 588.064 386.835 593.402 385.702C598.579 384.568 603.433 383.597 606.83 382.949C610.389 382.463 612.492 382.139 612.492 382.139Z" fill="#263238"/>
<path d="M575.445 389.75C575.445 389.75 574.96 389.426 574.151 388.616C573.342 387.807 572.371 386.835 571.077 385.378C568.489 382.625 565.091 378.739 561.532 374.205C557.973 369.671 554.899 365.461 552.634 362.385C551.502 360.765 550.693 359.632 550.208 358.66C549.561 357.851 549.399 357.203 549.399 357.203C549.399 357.203 549.884 357.689 550.531 358.499C551.34 359.47 552.149 360.604 553.281 362.061C555.546 365.137 558.782 369.185 562.341 373.719C565.9 378.253 569.297 382.139 571.724 385.054C573.989 387.969 575.445 389.75 575.445 389.75Z" fill="#263238"/>
<path d="M559.267 498.239C531.118 475.569 527.073 436.87 530.632 402.542C531.28 396.874 530.956 390.721 534.03 385.864C537.104 381.006 543.737 377.929 548.752 380.844C552.958 383.111 554.414 388.292 556.517 392.502C559.267 398.17 563.797 403.027 569.136 406.266C572.695 408.371 577.063 409.828 580.784 408.209C585.961 405.78 586.931 398.979 587.255 393.312C587.902 382.625 588.549 371.938 589.196 361.413C589.52 355.746 590.005 349.917 592.108 344.573C594.211 339.23 598.579 334.534 604.08 333.4C609.58 332.267 616.051 335.829 616.86 341.497C617.184 343.925 616.537 346.192 616.537 348.621C616.537 351.05 617.507 353.641 619.61 354.45C621.875 355.26 624.302 353.803 626.082 352.184C632.391 346.84 636.921 339.715 641.127 332.591C645.333 325.466 649.539 318.18 655.363 312.188C661.187 306.197 668.953 301.825 677.042 301.825C685.292 301.987 693.543 307.655 695.161 315.751C696.617 324.009 691.44 331.781 685.94 337.934C677.689 347.164 668.144 355.098 657.628 361.413C655.687 362.547 653.746 363.842 652.937 365.947C651.481 369.671 654.716 373.719 658.437 375.177C662.643 376.958 667.173 376.796 671.703 377.606C676.071 378.415 680.763 380.682 682.219 385.054C684.16 391.045 678.821 396.874 673.806 400.599C663.614 408.047 652.29 413.553 640.156 417.115C635.788 418.41 631.258 419.382 627.699 422.134C624.14 424.887 621.714 429.907 623.493 433.955C625.273 438.165 630.45 439.784 634.818 439.298C639.347 438.813 643.392 436.708 647.598 435.412C655.687 432.983 665.717 434.279 670.247 441.403C673.321 446.099 673.159 452.252 671.056 457.596C668.953 462.777 665.394 467.149 661.511 471.197C647.922 485.123 630.935 495.81 612.33 500.991C593.888 505.525 576.901 506.173 559.267 498.239Z" fill="#4AA9C7"/>
<g opacity="0.1">
<g opacity="0.1">
<path opacity="0.1" d="M559.267 498.239C531.118 475.569 527.073 436.87 530.632 402.542C531.28 396.874 530.956 390.721 534.03 385.864C537.104 381.006 543.737 377.929 548.752 380.844C552.958 383.111 554.414 388.292 556.517 392.502C559.267 398.17 563.797 403.027 569.136 406.266C572.695 408.371 577.063 409.828 580.784 408.209C585.961 405.78 586.931 398.979 587.255 393.312C587.902 382.625 588.549 371.938 589.196 361.413C589.52 355.746 590.005 349.917 592.108 344.573C594.211 339.23 598.579 334.534 604.08 333.4C609.58 332.267 616.051 335.829 616.86 341.497C617.184 343.925 616.537 346.192 616.537 348.621C616.537 351.05 617.507 353.641 619.61 354.45C621.875 355.26 624.302 353.803 626.082 352.184C632.391 346.84 636.921 339.715 641.127 332.591C645.333 325.466 649.539 318.18 655.363 312.188C661.187 306.197 668.953 301.825 677.042 301.825C685.292 301.987 693.543 307.655 695.161 315.751C696.617 324.009 691.44 331.781 685.94 337.934C677.689 347.164 668.144 355.098 657.628 361.413C655.687 362.547 653.746 363.842 652.937 365.947C651.481 369.671 654.716 373.719 658.437 375.177C662.643 376.958 667.173 376.796 671.703 377.606C676.071 378.415 680.763 380.682 682.219 385.054C684.16 391.045 678.821 396.874 673.806 400.599C663.614 408.047 652.29 413.553 640.156 417.115C635.788 418.41 631.258 419.382 627.699 422.134C624.14 424.887 621.714 429.907 623.493 433.955C625.273 438.165 630.45 439.784 634.818 439.298C639.347 438.813 643.392 436.708 647.598 435.412C655.687 432.983 665.717 434.279 670.247 441.403C673.321 446.099 673.159 452.252 671.056 457.596C668.953 462.777 665.394 467.149 661.511 471.197C647.922 485.123 630.935 495.81 612.33 500.991C593.888 505.525 576.901 506.173 559.267 498.239Z" fill="black"/>
</g>
</g>
<path d="M557.002 523.822C559.105 510.221 563.312 494.352 569.621 477.35C575.93 460.348 584.343 442.213 593.726 423.592C596.153 418.896 598.418 414.362 600.844 409.828C603.109 405.294 605.536 400.922 607.962 396.551C612.978 388.131 618.478 380.196 623.817 373.072C629.155 365.785 634.656 359.146 639.671 352.993C644.848 346.84 649.701 341.173 654.231 336.153C663.452 326.114 672.027 318.989 678.012 314.293C680.924 311.865 683.351 310.245 684.969 308.95C685.778 308.464 686.425 307.978 686.91 307.655C687.396 307.331 687.557 307.169 687.557 307.169C687.557 307.169 687.396 307.331 686.91 307.655C686.425 307.978 685.94 308.464 685.131 309.112C683.513 310.407 681.248 312.188 678.336 314.455C672.512 319.313 664.099 326.438 654.878 336.477C650.187 341.497 645.495 347.164 640.318 353.317C635.303 359.47 629.964 366.271 624.464 373.395C619.125 380.682 613.625 388.454 608.771 396.874C606.345 401.084 603.918 405.456 601.653 409.99C599.388 414.524 596.962 419.058 594.697 423.754C585.314 442.375 576.901 460.348 570.592 477.35C564.282 494.352 560.076 510.059 557.811 523.66" fill="#263238"/>
<path d="M608.124 396.551C608.124 396.551 607.962 395.741 607.801 394.122C607.639 392.502 607.477 390.236 607.153 387.321C606.668 381.654 606.506 373.557 606.183 364.814C605.859 356.07 605.536 348.135 604.889 342.306C604.565 339.392 604.403 337.125 604.241 335.505C604.08 333.886 604.08 333.077 604.08 333.077C604.08 333.077 604.403 333.886 604.565 335.505C604.889 337.125 605.212 339.392 605.536 342.306C606.183 347.973 606.83 355.908 607.153 364.814C607.477 373.395 607.639 381.33 607.801 387.321C607.962 390.074 607.962 392.341 608.124 394.122C608.286 395.579 608.286 396.551 608.124 396.551Z" fill="#263238"/>
<path d="M682.542 387.807C682.542 387.807 681.41 387.969 679.63 387.969C677.689 387.969 674.939 387.969 671.541 388.131C664.747 388.454 655.363 389.102 645.171 390.236C634.818 391.531 625.596 392.988 618.963 394.284C615.566 394.931 612.978 395.417 611.036 395.903C609.257 396.227 608.124 396.551 608.124 396.389C608.124 396.389 609.095 396.065 610.874 395.417C612.654 394.931 615.404 394.284 618.64 393.474C625.273 392.017 634.494 390.397 644.848 389.102C655.202 387.807 664.585 387.321 671.379 387.159C674.777 387.159 677.527 387.159 679.468 387.321C681.41 387.645 682.542 387.807 682.542 387.807Z" fill="#263238"/>
<path d="M570.592 476.055C570.592 476.055 570.43 475.731 570.106 475.083C569.783 474.274 569.459 473.464 568.974 472.331C568.003 469.902 566.871 466.501 565.253 462.13C562.341 453.548 558.62 441.403 554.576 427.964C550.693 414.524 546.972 402.38 544.222 393.798C542.928 389.588 541.795 386.026 540.825 383.435C540.501 382.301 540.177 381.33 540.016 380.682C539.854 380.034 539.692 379.711 539.854 379.711C539.854 379.711 540.016 380.034 540.339 380.682C540.663 381.492 540.986 382.301 541.472 383.435C542.442 385.864 543.575 389.264 545.193 393.636C548.105 402.218 551.825 414.362 555.87 427.802C559.753 441.241 563.474 453.386 566.224 461.968C567.518 466.178 568.65 469.74 569.621 472.331C569.945 473.464 570.268 474.436 570.43 475.083C570.43 475.569 570.592 476.055 570.592 476.055Z" fill="#263238"/>
<path d="M670.247 451.281C670.247 451.281 669.923 451.443 669.276 451.605C668.467 451.766 667.497 452.09 666.364 452.414C663.614 453.062 660.055 454.033 655.687 455.005C646.627 457.272 634.332 460.51 620.581 464.073C606.83 467.635 594.373 470.873 585.313 472.978C580.784 473.95 577.063 474.76 574.474 475.245C573.342 475.407 572.371 475.731 571.562 475.731C570.915 475.893 570.592 475.893 570.592 475.893C570.592 475.893 570.915 475.731 571.562 475.569C572.371 475.407 573.342 475.083 574.474 474.76C577.225 474.112 580.784 473.14 585.152 472.169C594.211 469.902 606.668 466.663 620.258 463.101C634.009 459.539 646.466 456.3 655.525 454.195C660.055 453.224 663.776 452.414 666.364 451.928C667.497 451.766 668.467 451.443 669.276 451.443C669.923 451.281 670.247 451.119 670.247 451.281Z" fill="#263238"/>
<path d="M565.738 51.3297H173.426V589.401H565.738V51.3297Z" fill="#455A64"/>
<path d="M550.208 557.34H477.569H206.105V73.0275H550.208V497.105V557.34Z" fill="#E0E0E0" fill-opacity="0.5"/>
<path d="M544.869 548.273H472.716H203.679V66.5505H544.869V488.361V548.273Z" fill="#EBEBEB" fill-opacity="0.5"/>
<path d="M508.145 510.868L468.833 542.929H197.369V67.8459H541.472V483.827L508.145 510.868Z" fill="#FAFAFA" fill-opacity="0.5"/>
<path d="M508.145 510.868C508.145 510.868 508.792 510.221 510.248 509.087C511.704 507.954 513.807 506.173 516.558 503.906C522.22 499.372 530.471 492.571 541.472 483.665V483.827C541.472 415.495 541.31 263.611 541.148 67.8459L541.472 68.1698C439.066 68.1698 322.909 68.1698 200.281 68.1698C199.311 68.1698 198.178 68.1698 197.208 68.1698L197.693 67.684C197.693 246.286 197.693 410.962 197.531 542.767L197.208 542.443C321.13 542.605 416.255 542.605 468.671 542.605H468.51C481.614 531.918 491.482 523.984 497.953 518.641C501.189 516.05 503.615 513.945 505.395 512.65C507.336 511.516 508.145 510.868 508.145 510.868C508.145 510.868 507.336 511.516 505.719 512.973C504.101 514.269 501.674 516.374 498.439 518.965C491.967 524.308 482.099 532.404 468.995 543.091C416.579 543.091 321.453 543.253 197.531 543.253H197.208V542.929C197.208 411.285 197.208 246.447 197.046 67.8459V67.3601H197.531C198.502 67.3601 199.473 67.3601 200.605 67.3601C323.233 67.3601 439.228 67.3601 541.795 67.3601H542.119V67.684C541.957 263.449 541.957 415.334 541.795 483.665C530.794 492.571 522.382 499.372 516.881 503.906C514.131 506.173 512.028 507.792 510.572 508.925C508.792 510.383 508.145 510.868 508.145 510.868Z" fill="#263238"/>
<path d="M440.037 82.9048H299.128V58.4544C299.128 45.1766 309.805 34.4897 323.071 34.4897H417.226C429.845 34.4897 440.198 44.6909 440.198 57.4828V82.9048H440.037Z" fill="#4AA9C7"/>
<path d="M333.586 34.6516L328.571 8.58194H409.622L405.092 34.6516H333.586Z" fill="#4AA9C7"/>
<path d="M291.363 201.595H233.446V143.464H291.363V201.595ZM235.064 199.975H289.745V145.083H235.064V199.975Z" fill="#4AA9C7"/>
<path d="M496.174 157.552C496.174 157.713 455.891 158.037 406.063 158.037C356.236 158.037 315.953 157.875 315.953 157.552C315.953 157.39 356.236 157.066 406.063 157.066C455.891 157.066 496.174 157.228 496.174 157.552Z" fill="#263238"/>
<path d="M496.174 169.534C496.174 169.696 455.891 170.02 406.063 170.02C356.236 170.02 315.953 169.858 315.953 169.534C315.953 169.372 356.236 169.048 406.063 169.048C455.891 169.21 496.174 169.372 496.174 169.534Z" fill="#263238"/>
<path d="M496.174 181.678C496.174 181.84 455.891 182.164 406.063 182.164C356.236 182.164 315.953 182.002 315.953 181.678C315.953 181.516 356.236 181.192 406.063 181.192C455.891 181.192 496.174 181.354 496.174 181.678Z" fill="#263238"/>
<path d="M496.174 193.66C496.174 193.822 455.891 194.146 406.063 194.146C356.236 194.146 315.953 193.984 315.953 193.66C315.953 193.337 356.236 193.175 406.063 193.175C455.891 193.337 496.174 193.499 496.174 193.66Z" fill="#263238"/>
<path d="M291.363 290.976H233.446V233.008H291.363V290.976ZM235.064 289.357H289.745V234.627H235.064V289.357Z" fill="#4AA9C7"/>
<path d="M244.932 263.126L252.536 254.867L265.478 265.231L294.76 236.57L301.878 244.99L264.831 281.423L244.932 263.126Z" fill="#4AA9C7"/>
<path d="M496.174 246.933C496.174 247.095 455.891 247.419 406.063 247.419C356.236 247.419 315.953 247.257 315.953 246.933C315.953 246.609 356.236 246.447 406.063 246.447C455.891 246.609 496.174 246.771 496.174 246.933Z" fill="#263238"/>
<path d="M496.174 259.077C496.174 259.239 455.891 259.563 406.063 259.563C356.236 259.563 315.953 259.401 315.953 259.077C315.953 258.754 356.236 258.592 406.063 258.592C455.891 258.592 496.174 258.754 496.174 259.077Z" fill="#263238"/>
<path d="M496.174 271.06C496.174 271.222 455.891 271.546 406.063 271.546C356.236 271.546 315.953 271.384 315.953 271.06C315.953 270.736 356.236 270.574 406.063 270.574C455.891 270.574 496.174 270.898 496.174 271.06Z" fill="#263238"/>
<path d="M496.174 283.204C496.174 283.366 455.891 283.69 406.063 283.69C356.236 283.69 315.953 283.528 315.953 283.204C315.953 282.88 356.236 282.718 406.063 282.718C455.891 282.718 496.174 282.88 496.174 283.204Z" fill="#263238"/>
<path d="M291.363 377.444H233.446V319.475H291.363V377.444ZM235.064 375.824H289.745V321.094H235.064V375.824Z" fill="#4AA9C7"/>
<path d="M244.932 349.755L252.536 341.497L265.478 351.698L294.76 323.199L301.878 331.457L264.831 367.89L244.932 349.755Z" fill="#4AA9C7"/>
<path d="M496.174 333.562C496.174 333.724 455.891 334.048 406.063 334.048C356.236 334.048 315.953 333.886 315.953 333.562C315.953 333.238 356.236 333.077 406.063 333.077C455.891 333.077 496.174 333.238 496.174 333.562Z" fill="#263238"/>
<path d="M496.174 345.545C496.174 345.707 455.891 346.03 406.063 346.03C356.236 346.03 315.953 345.868 315.953 345.545C315.953 345.221 356.236 345.059 406.063 345.059C455.891 345.221 496.174 345.383 496.174 345.545Z" fill="#263238"/>
<path d="M496.174 357.689C496.174 357.851 455.891 358.175 406.063 358.175C356.236 358.175 315.953 358.013 315.953 357.689C315.953 357.527 356.236 357.203 406.063 357.203C455.891 357.203 496.174 357.365 496.174 357.689Z" fill="#263238"/>
<path d="M496.174 369.671C496.174 369.833 455.891 370.157 406.063 370.157C356.236 370.157 315.953 369.995 315.953 369.671C315.953 369.509 356.236 369.185 406.063 369.185C455.891 369.185 496.174 369.509 496.174 369.671Z" fill="#263238"/>
<path d="M291.363 461.158H233.446V403.189H291.363V461.158ZM235.064 459.539H289.745V404.809H235.064V459.539Z" fill="#4AA9C7"/>
<path d="M244.932 433.307L252.536 425.049L265.478 435.25L294.76 406.752L301.878 415.01L264.831 451.443L244.932 433.307Z" fill="#4AA9C7"/>
<path d="M496.174 417.115C496.174 417.277 455.891 417.601 406.063 417.601C356.236 417.601 315.953 417.439 315.953 417.115C315.953 416.791 356.236 416.629 406.063 416.629C455.891 416.629 496.174 416.791 496.174 417.115Z" fill="#263238"/>
<path d="M496.174 429.097C496.174 429.259 455.891 429.583 406.063 429.583C356.236 429.583 315.953 429.421 315.953 429.097C315.953 428.773 356.236 428.611 406.063 428.611C455.891 428.773 496.174 428.935 496.174 429.097Z" fill="#263238"/>
<path d="M496.174 441.241C496.174 441.403 455.891 441.727 406.063 441.727C356.236 441.727 315.953 441.565 315.953 441.241C315.953 440.918 356.236 440.756 406.063 440.756C455.891 440.756 496.174 440.918 496.174 441.241Z" fill="#263238"/>
<path d="M496.174 453.224C496.174 453.386 455.891 453.71 406.063 453.71C356.236 453.71 315.953 453.548 315.953 453.224C315.953 452.9 356.236 452.738 406.063 452.738C455.891 452.9 496.174 453.062 496.174 453.224Z" fill="#263238"/>
<path d="M479.672 464.235L441.978 542.444H468.833L479.672 464.235Z" fill="#E0E0E0" fill-opacity="0.5"/>
<path d="M468.833 542.929L479.672 464.72L541.472 483.827L468.833 542.929Z" fill="#FAFAFA" fill-opacity="0.5"/>
<path d="M468.833 542.929C470.289 541.634 477.084 536.129 489.703 525.765C502.645 515.24 520.602 500.343 541.31 483.503L541.472 484.151C533.868 481.722 525.779 479.293 517.528 476.703C504.101 472.493 491.32 468.606 479.511 464.882L479.996 464.558C476.76 487.228 474.01 506.658 472.069 520.584C470.127 534.185 469.157 541.148 468.833 542.929C468.833 542.929 468.833 542.767 468.833 542.606C468.833 542.282 468.833 541.958 468.995 541.472C469.157 540.5 469.319 539.043 469.48 537.262C469.966 533.538 470.775 528.032 471.583 521.07C473.525 507.144 476.113 487.551 479.187 464.558V464.073L479.672 464.235C491.482 467.797 504.263 471.845 517.69 475.893C525.941 478.484 533.868 480.913 541.633 483.341L542.442 483.503L541.795 483.989C520.926 500.829 502.645 515.564 489.541 526.089C483.07 531.271 477.893 535.481 474.334 538.395C472.554 539.853 471.26 540.824 470.289 541.634C469.804 541.958 469.48 542.282 469.319 542.444C468.995 542.767 468.833 542.929 468.833 542.929Z" fill="#263238"/>
<g opacity="0.3">
<path opacity="0.3" d="M403.96 8.58194L399.592 34.6516H405.093L409.622 8.58194H402.504" fill="black"/>
</g>
<path d="M166.47 283.528C174.721 284.176 181.839 277.861 182.162 269.603C182.486 261.668 182.81 253.734 182.81 253.734C182.81 253.734 194.781 252.601 195.752 240.78C196.561 228.96 196.237 201.433 196.237 201.433C182.81 194.632 166.793 195.765 154.337 204.185L155.145 245.962V268.469C154.984 275.918 158.866 282.88 166.47 283.528Z" fill="#FFBE9D"/>
<path d="M183.78 226.045C181.677 223.454 178.441 222.483 175.691 224.264C172.941 226.045 171.97 229.931 173.426 232.846C174.397 234.951 176.824 236.732 179.25 237.218C181.515 237.704 183.133 239.809 182.809 242.076C182.486 244.99 180.868 247.905 178.603 250.334C175.044 254.22 170.029 256.325 164.852 256.811C159.837 257.458 154.013 256.325 151.101 252.115C148.998 249.038 148.836 245.152 148.674 241.428C148.512 232.684 148.351 223.94 148.189 215.196C148.189 211.958 148.027 208.881 148.836 205.805C149.483 202.728 151.101 199.814 153.851 198.032C156.763 196.089 160.322 195.927 163.72 194.956C167.764 193.66 171.323 190.908 175.206 188.965C179.088 187.022 183.78 185.888 187.663 187.831C190.413 189.289 192.354 192.041 194.943 193.499C198.825 195.765 204.002 195.118 205.944 200.785C206.591 202.728 206.591 204.833 205.944 206.776C203.355 214.549 193.81 217.625 187.016 214.225C186.854 215.52 188.148 218.435 186.854 222.483C185.883 224.102 185.721 226.045 183.78 226.045Z" fill="#263238"/>
<path d="M150.939 201.595C152.557 197.709 154.336 193.822 154.822 189.612C155.307 185.402 154.175 180.869 151.101 178.116C148.998 176.173 146.086 175.201 143.336 175.363C137.835 175.525 132.82 179.573 131.364 184.755C129.908 189.936 131.849 195.927 136.217 199.328C140.424 202.728 146.571 203.538 151.586 201.271" fill="#263238"/>
<path d="M153.204 197.223C153.366 197.223 153.204 199.328 151.424 201.109C149.645 202.89 147.542 203.052 147.542 202.728C147.542 202.566 149.321 202.08 150.777 200.461C152.557 199.004 153.042 197.223 153.204 197.223Z" fill="#4AA9C7"/>
<path d="M149.321 200.137C149.321 200.137 148.351 201.271 146.086 202.566C144.953 203.214 143.497 203.7 141.88 203.7C140.262 203.7 138.159 203.214 136.864 201.433C135.732 199.814 135.57 197.709 136.056 196.089C136.379 194.47 137.35 193.175 137.997 192.203C139.615 190.26 140.747 189.289 140.747 189.289C140.909 189.45 139.776 190.584 138.482 192.527C137.835 193.499 137.026 194.794 136.703 196.251C136.379 197.709 136.541 199.49 137.512 200.947C138.482 202.404 140.262 202.89 141.718 202.89C143.336 202.89 144.63 202.404 145.762 201.919C148.027 200.947 149.321 199.975 149.321 200.137Z" fill="#263238"/>
<path d="M129.099 213.577C129.099 213.577 129.423 214.063 129.746 214.872C130.07 215.682 130.555 216.977 131.526 218.273C132.496 219.568 134.114 220.864 136.217 220.378C138.159 220.054 139.938 218.111 140.747 215.844C141.556 213.577 141.556 211.148 142.041 208.881C142.365 206.776 143.174 204.671 144.306 203.376C145.439 202.08 146.895 201.595 147.704 201.433C148.674 201.271 149.16 201.595 149.16 201.595C149.16 201.757 148.674 201.595 147.704 201.757C146.895 201.919 145.6 202.566 144.63 203.862C143.659 204.995 143.012 206.938 142.688 209.043C142.365 211.148 142.365 213.577 141.556 216.168C140.747 218.597 138.806 220.702 136.379 221.187C135.247 221.349 134.114 221.026 133.144 220.54C132.173 220.054 131.526 219.244 131.04 218.597C130.07 217.139 129.746 215.844 129.423 215.034C129.261 214.063 129.099 213.577 129.099 213.577Z" fill="#263238"/>
<path d="M123.275 313.484C123.275 313.484 117.289 357.851 123.275 363.518C129.261 369.185 135.085 367.242 135.085 367.242L146.571 357.527L148.836 313.322H123.275V313.484Z" fill="#FFBE9D"/>
<path d="M248.653 188.803L256.257 180.545L269.199 190.908L298.481 162.247L305.599 170.667L268.552 207.1L248.653 188.803Z" fill="#4AA9C7"/>
<path d="M284.73 191.07L273.567 198.194C273.082 193.822 269.684 189.45 269.846 191.555C270.008 193.822 269.846 205.319 269.846 205.319L249.947 247.257C247.197 253.896 241.697 258.106 237.652 259.078L219.048 264.583L226.328 289.195L252.212 280.613C258.845 278.346 264.184 273.165 266.287 266.364L284.083 212.12C284.083 212.12 286.186 205.967 286.995 201.433C287.803 197.061 284.73 191.07 284.73 191.07Z" fill="#FFBE9D"/>
<path d="M193.325 649.637L193.002 637.169L169.705 637.493L169.867 655.628H171.323C177.794 655.952 204.002 656.438 208.209 655.142C213.224 653.685 193.325 649.637 193.325 649.637Z" fill="#4AA9C7"/>
<g opacity="0.5">
<g opacity="0.5">
<g opacity="0.5">
<path opacity="0.5" d="M178.442 655.466C178.118 653.523 176.986 651.742 175.368 650.608C173.75 649.475 171.809 648.827 169.867 648.989L170.029 655.466H178.442Z" fill="white"/>
</g>
</g>
</g>
<g opacity="0.4">
<g opacity="0.4">
<g opacity="0.4">
<path opacity="0.4" d="M203.032 652.066C203.032 652.066 209.988 654.009 209.179 655.142C208.37 656.276 181.839 656.762 170.029 655.79V655.304L201.09 655.142C201.09 654.98 201.737 652.066 203.032 652.066Z" fill="white"/>
</g>
</g>
</g>
<path d="M169.705 655.304C169.705 655.304 169.867 655.304 170.029 655.304C170.353 655.304 170.676 655.304 171.161 655.304C172.294 655.304 173.75 655.304 175.368 655.466C178.927 655.466 183.942 655.628 189.281 655.466C194.781 655.466 199.634 655.142 203.194 654.98C204.811 654.818 206.267 654.818 207.4 654.818C207.885 654.818 208.209 654.818 208.532 654.656C208.856 654.656 208.856 654.656 208.856 654.656C208.856 654.656 208.694 654.656 208.532 654.656C208.209 654.656 207.885 654.656 207.4 654.656C206.267 654.656 204.811 654.818 203.194 654.818C199.634 654.98 194.619 655.142 189.281 655.142C183.78 655.142 178.927 655.142 175.368 655.142C173.75 655.142 172.294 655.142 171.161 655.142C170.676 655.142 170.353 655.142 170.029 655.142C169.867 655.142 169.705 655.142 169.705 655.304Z" fill="#263238"/>
<path d="M201.09 655.304C201.252 655.304 201.252 654.333 201.899 653.199C202.546 652.228 203.355 651.58 203.355 651.58C203.355 651.58 202.385 651.904 201.737 653.037C200.929 654.333 200.929 655.466 201.09 655.304Z" fill="#263238"/>
<path d="M194.134 652.066C194.134 652.066 194.458 651.742 194.781 651.094C195.105 650.608 195.266 650.123 195.266 650.123C195.266 650.123 194.943 650.447 194.619 651.094C194.296 651.418 193.972 651.904 194.134 652.066Z" fill="#263238"/>
<path d="M192.193 651.094C192.193 651.094 192.678 650.932 193.001 650.608C193.325 650.285 193.649 649.961 193.649 649.799C193.649 649.799 193.163 649.961 192.84 650.285C192.354 650.608 192.193 650.932 192.193 651.094Z" fill="#263238"/>
<path d="M191.06 648.827C191.06 648.827 191.545 648.989 192.354 648.989C193.001 648.989 193.649 648.989 193.649 648.827C193.649 648.827 193.163 648.665 192.354 648.665C191.545 648.665 191.06 648.827 191.06 648.827Z" fill="#263238"/>
<path d="M190.575 647.37C190.575 647.37 191.222 647.694 191.869 647.694C192.678 647.694 193.325 647.532 193.325 647.532C193.325 647.532 192.678 647.532 191.869 647.532C191.222 647.37 190.575 647.208 190.575 647.37Z" fill="#263238"/>
<path d="M194.943 649.961C194.943 649.961 195.59 650.123 196.399 649.961C196.884 649.961 197.37 649.799 198.017 649.637C198.34 649.475 198.664 649.475 198.987 649.313C199.149 649.151 199.311 649.151 199.311 648.827C199.311 648.665 199.311 648.341 199.149 648.18C197.693 647.532 196.237 648.341 195.752 648.989C195.428 649.313 195.266 649.799 195.266 649.961C195.266 650.285 195.266 650.285 195.266 650.285C195.266 650.285 195.428 649.637 195.914 648.989C196.237 648.665 196.561 648.341 197.208 648.18C197.693 648.018 198.502 648.018 198.987 648.341C199.149 648.503 199.149 648.827 198.826 648.989C198.502 649.151 198.34 649.313 198.017 649.313C197.531 649.475 196.884 649.637 196.561 649.799C195.428 649.961 194.943 649.961 194.943 649.961Z" fill="#263238"/>
<path d="M195.266 649.961C195.266 649.961 195.428 649.637 195.428 648.989C195.428 648.665 195.266 648.342 194.943 647.856C194.619 647.532 194.296 647.046 193.649 647.046C193.325 647.046 193.163 647.532 193.163 647.694C193.163 648.018 193.325 648.18 193.487 648.341C193.649 648.665 193.972 648.989 194.134 649.313C194.781 649.799 195.105 649.961 195.266 649.961C195.105 649.961 194.781 649.637 194.458 649.151C194.296 648.989 193.972 648.665 193.81 648.341C193.649 648.018 193.487 647.532 193.81 647.37C194.134 647.37 194.619 647.694 194.781 648.018C194.943 648.342 195.105 648.665 195.266 648.989C195.266 649.637 195.266 649.961 195.266 649.961Z" fill="#263238"/>
<path d="M170.029 648.827C170.029 648.827 170.676 648.827 171.808 648.827C172.779 648.989 174.235 649.313 175.529 650.285C176.824 651.256 177.633 652.552 177.956 653.523C178.28 654.495 178.441 655.142 178.441 655.142C178.441 655.142 178.441 654.98 178.441 654.656C178.441 654.333 178.28 653.847 178.118 653.361C177.794 652.39 176.985 650.932 175.691 649.961C174.397 648.989 172.779 648.503 171.808 648.503C171.323 648.503 170.838 648.503 170.514 648.503C170.191 648.827 170.029 648.827 170.029 648.827Z" fill="#263238"/>
<path d="M172.294 639.112C172.294 639.112 172.132 641.217 172.132 643.97C172.132 646.56 172.132 648.827 172.294 648.827C172.294 648.827 172.456 646.722 172.456 643.97C172.456 641.217 172.456 639.112 172.294 639.112Z" fill="#263238"/>
<path d="M181.353 653.199C181.353 653.199 182.809 653.523 184.751 653.523C186.692 653.523 188.148 653.199 188.148 653.199C188.148 653.037 186.692 653.199 184.751 653.199C182.809 653.199 181.353 653.037 181.353 653.199Z" fill="#263238"/>
<path d="M176.824 653.199C176.824 653.199 176.985 653.523 177.147 653.847C177.309 654.171 177.471 654.495 177.471 654.495C177.471 654.495 177.632 654.171 177.471 653.685C177.147 653.361 176.824 653.199 176.824 653.199Z" fill="#263238"/>
<path d="M175.044 651.094C175.044 651.094 175.206 651.418 175.368 651.58C175.691 651.742 175.853 651.904 175.853 651.904C175.853 651.904 175.691 651.58 175.529 651.418C175.368 651.094 175.044 651.094 175.044 651.094Z" fill="#263238"/>
<path d="M172.617 650.123C172.617 650.123 172.941 650.123 173.264 650.285C173.588 650.447 173.912 650.608 173.912 650.447C173.912 650.447 173.75 650.123 173.264 649.961C172.941 649.961 172.456 650.123 172.617 650.123Z" fill="#263238"/>
<path d="M170.838 649.637C170.838 649.637 171 649.799 171.161 649.961C171.323 649.961 171.485 649.961 171.485 649.961C171.485 649.961 171.323 649.799 171.161 649.637C171 649.637 170.838 649.637 170.838 649.637Z" fill="#263238"/>
<path d="M111.142 645.589L119.069 636.035L101.111 621.138L89.4634 635.064L90.4341 636.035C95.1256 640.407 114.701 658.057 118.745 659.838C123.599 661.781 111.142 645.589 111.142 645.589Z" fill="#4AA9C7"/>
<g opacity="0.5">
<g opacity="0.5">
<g opacity="0.5">
<path opacity="0.5" d="M96.0963 640.407C97.0669 638.626 97.3905 636.683 97.0669 634.74C96.5816 632.797 95.6109 631.016 93.9932 629.882L89.7869 634.902L96.0963 640.407Z" fill="white"/>
</g>
</g>
</g>
<g opacity="0.4">
<g opacity="0.4">
<g opacity="0.4">
<path opacity="0.4" d="M116.966 653.847C116.966 653.847 121.01 659.838 119.554 660.162C118.098 660.486 97.7141 643.484 89.4634 635.226L89.7869 634.902L113.407 654.98C113.568 654.818 115.995 652.875 116.966 653.847Z" fill="white"/>
</g>
</g>
</g>
<path d="M89.6252 634.416C89.6252 634.416 89.787 634.578 89.9488 634.74C90.2724 634.902 90.4341 635.226 90.7577 635.55C91.5666 636.359 92.699 637.331 93.8315 638.464C96.4199 640.893 100.141 644.132 104.347 647.532C108.553 651.094 112.436 654.171 115.186 656.276C116.48 657.247 117.613 658.219 118.584 658.867C118.907 659.19 119.231 659.352 119.554 659.514C119.716 659.676 119.878 659.676 119.878 659.676C119.878 659.676 119.716 659.514 119.554 659.352C119.231 659.19 119.069 658.867 118.584 658.705C117.613 658.057 116.642 657.085 115.348 656.114C112.598 653.847 108.715 650.77 104.509 647.208C100.303 643.646 96.5817 640.407 93.8315 638.14C92.5372 637.007 91.5666 636.035 90.5959 635.388C90.2724 635.064 89.9488 634.902 89.787 634.578L89.6252 634.416Z" fill="#263238"/>
<path d="M113.245 654.98C113.245 654.98 114.054 654.333 115.186 654.009C116.319 653.685 117.289 653.847 117.289 653.685C117.289 653.685 116.319 653.361 115.024 653.685C113.892 654.171 113.245 654.98 113.245 654.98Z" fill="#263238"/>
<path d="M110.333 648.018C110.333 648.018 110.818 648.018 111.465 647.856C112.112 647.694 112.598 647.37 112.436 647.37C112.436 647.37 111.951 647.37 111.303 647.532C110.656 647.694 110.171 647.856 110.333 648.018Z" fill="#263238"/>
<path d="M109.524 645.913C109.524 645.913 110.009 646.075 110.495 646.075C110.98 646.075 111.465 645.913 111.465 645.913C111.465 645.913 110.98 645.751 110.495 645.751C109.847 645.751 109.362 645.913 109.524 645.913Z" fill="#263238"/>
<path d="M110.009 643.484C110.009 643.484 110.333 643.97 110.818 644.455C111.303 644.941 111.789 645.265 111.789 645.103C111.789 645.103 111.465 644.617 110.98 644.132C110.494 643.808 110.009 643.484 110.009 643.484Z" fill="#263238"/>
<path d="M110.656 642.027C110.656 642.027 110.818 642.674 111.465 643.16C112.112 643.646 112.598 643.97 112.598 643.97C112.598 643.97 112.112 643.484 111.627 642.998C110.98 642.512 110.656 642.027 110.656 642.027Z" fill="#263238"/>
<path d="M112.112 646.884C112.112 646.884 112.436 647.37 113.245 647.856C113.568 648.18 114.054 648.342 114.701 648.665C115.024 648.827 115.348 648.827 115.671 648.989C115.833 648.989 115.995 648.989 116.319 648.827C116.48 648.665 116.642 648.503 116.48 648.18C115.833 646.722 114.215 646.398 113.407 646.56C112.921 646.722 112.598 646.884 112.436 647.046C112.274 647.208 112.112 647.37 112.112 647.37C112.112 647.37 112.598 647.046 113.407 646.884C113.892 646.884 114.377 646.884 114.863 647.046C115.348 647.208 115.995 647.694 116.157 648.342C116.157 648.665 115.995 648.827 115.671 648.665C115.348 648.665 115.024 648.503 114.863 648.342C114.377 648.18 113.892 647.856 113.407 647.694C112.598 647.208 112.112 646.884 112.112 646.884Z" fill="#263238"/>
<path d="M112.436 647.208C112.436 647.208 112.921 647.046 113.245 646.56C113.407 646.237 113.568 645.913 113.568 645.427C113.568 644.941 113.568 644.455 113.083 643.97C112.759 643.808 112.436 643.97 112.274 644.132C112.112 644.293 112.112 644.617 112.112 644.779C112.112 645.265 112.112 645.589 112.112 645.913C112.112 646.722 112.274 647.046 112.436 647.208C112.436 647.046 112.274 646.722 112.274 646.075C112.274 645.751 112.274 645.427 112.436 644.941C112.436 644.617 112.759 643.97 113.083 644.293C113.407 644.455 113.407 645.103 113.407 645.427C113.407 645.751 113.245 646.237 113.083 646.399C112.759 646.884 112.436 647.208 112.436 647.208Z" fill="#263238"/>
<path d="M93.9932 629.882C93.9932 629.882 94.4786 630.206 95.2875 631.016C95.9346 631.825 96.9052 632.959 97.2288 634.578C97.5523 636.197 97.2288 637.655 96.9052 638.626C96.5817 639.598 96.0963 640.083 96.2581 640.245C96.2581 640.245 96.4199 640.083 96.5817 639.922C96.7435 639.598 96.9052 639.274 97.2288 638.788C97.7141 637.817 98.0377 636.197 97.7141 634.578C97.3906 632.959 96.4199 631.663 95.611 630.854C95.2875 630.53 94.8021 630.206 94.6403 630.044C94.155 629.882 94.155 629.882 93.9932 629.882Z" fill="#263238"/>
<path d="M102.082 623.891C102.082 623.891 100.626 625.348 98.8465 627.453C97.0669 629.397 95.7727 631.178 95.7727 631.178C95.7727 631.178 97.2287 629.72 99.0083 627.615C100.788 625.672 102.244 624.053 102.082 623.891Z" fill="#263238"/>
<path d="M99.8171 640.407C99.8171 640.407 100.788 641.541 102.244 642.836C103.7 644.132 104.994 644.941 104.994 644.779C104.994 644.779 103.862 643.808 102.406 642.512C100.95 641.541 99.9789 640.407 99.8171 640.407Z" fill="#263238"/>
<path d="M96.4199 637.493C96.4199 637.493 96.2581 637.817 96.2581 638.14C96.0963 638.464 96.0963 638.788 96.0963 638.788C96.0963 638.788 96.4199 638.626 96.5817 638.14C96.5817 637.817 96.4199 637.493 96.4199 637.493Z" fill="#263238"/>
<path d="M96.4198 634.74C96.4198 634.74 96.2581 635.064 96.2581 635.388C96.2581 635.712 96.4198 636.035 96.4198 636.035C96.4198 636.035 96.5816 635.712 96.5816 635.388C96.5816 635.064 96.4198 634.74 96.4198 634.74Z" fill="#263238"/>
<path d="M95.1256 632.473C95.1256 632.473 95.2874 632.797 95.4492 633.121C95.6109 633.445 95.7727 633.768 95.7727 633.768C95.7727 633.768 95.9345 633.445 95.6109 632.959C95.4492 632.473 95.1256 632.311 95.1256 632.473Z" fill="#263238"/>
<path d="M94.1549 631.016C94.1549 631.016 94.1549 631.178 94.1549 631.34C94.1549 631.502 94.3167 631.663 94.4785 631.663C94.4785 631.663 94.4785 631.502 94.4785 631.34C94.4785 631.178 94.1549 631.016 94.1549 631.016Z" fill="#263238"/>
<path d="M159.675 385.54C159.675 385.54 151.91 418.41 154.175 424.887C156.44 431.364 170.514 435.088 170.514 435.088L170.029 524.956L91.5665 622.11L120.525 645.913C120.525 645.913 205.458 548.597 213.062 530.947C220.504 513.297 208.209 384.244 208.209 384.244L159.675 385.54Z" fill="#263238"/>
<path d="M199.796 372.1L203.679 644.941L163.72 645.103L143.659 422.944C139.453 418.896 133.467 411.933 134.276 396.551L135.247 378.577L199.796 372.1Z" fill="#263238"/>
<path d="M157.572 540.015C157.572 540.015 157.572 539.853 157.734 539.691C157.896 539.367 158.219 539.043 158.543 538.557C159.352 537.586 160.322 536.129 161.455 534.347C164.043 530.623 167.764 525.604 172.294 519.289V519.45C171.485 510.059 170.353 498.562 169.22 486.094C167.764 469.902 166.632 455.167 165.985 444.48C165.661 439.136 165.337 434.765 165.337 431.85C165.337 430.393 165.176 429.259 165.176 428.449C165.176 427.64 165.176 427.316 165.176 427.316C165.176 427.316 165.337 427.802 165.337 428.449C165.337 429.259 165.499 430.393 165.661 431.85C165.823 434.926 166.308 439.136 166.632 444.48C167.441 455.167 168.735 469.74 170.191 486.094C171.323 498.562 172.456 510.059 173.103 519.45V519.612V519.774C168.573 525.927 164.69 530.947 162.102 534.671C160.808 536.452 159.675 537.748 159.028 538.719C158.705 539.205 158.381 539.529 158.219 539.853C157.734 540.015 157.572 540.015 157.572 540.015Z" fill="#455A64"/>
<path d="M169.867 427.316C169.867 427.478 165.014 426.992 159.352 425.697C153.528 424.563 148.998 423.106 148.998 422.944C148.998 422.782 153.689 423.754 159.513 424.887C165.176 426.182 169.867 427.154 169.867 427.316Z" fill="#455A64"/>
<path d="M197.208 520.422C197.046 520.746 192.678 517.993 186.369 517.669C180.221 517.184 175.368 518.965 175.206 518.803C175.206 518.641 176.338 518.155 178.28 517.507C180.221 517.022 183.133 516.536 186.369 516.86C189.604 517.184 192.354 517.993 194.134 518.803C196.237 519.612 197.369 520.422 197.208 520.422Z" fill="#455A64"/>
<path d="M211.282 533.052C211.444 533.214 200.281 548.273 186.207 566.732C172.132 585.191 160.646 600.088 160.484 599.926C160.322 599.765 171.485 584.706 185.56 566.246C199.634 547.787 211.121 533.052 211.282 533.052Z" fill="#455A64"/>
<path d="M205.944 392.341C205.944 392.341 205.458 393.798 203.679 395.255C201.899 396.713 198.825 398.332 195.105 398.008C191.384 397.684 188.633 395.417 187.339 393.636C185.883 391.693 185.721 390.236 185.721 390.236C185.883 390.236 186.369 391.531 187.825 393.312C189.281 394.931 191.869 396.874 195.266 397.36C198.664 397.684 201.576 396.389 203.355 395.093C205.135 393.474 205.782 392.341 205.944 392.341Z" fill="#455A64"/>
<path d="M151.424 251.953C144.953 245.8 140.909 237.056 140.585 227.988C140.262 219.082 143.497 210.015 149.483 203.376" fill="#263238"/>
<path d="M128.937 277.375C128.937 277.375 120.201 287.252 118.422 324.657C118.422 324.657 143.174 329.352 143.659 328.057C144.144 326.762 128.937 277.375 128.937 277.375Z" fill="#4AA9C7"/>
<g opacity="0.3">
<path opacity="0.3" d="M128.937 277.375C128.937 277.375 120.201 287.252 118.422 324.657C118.422 324.657 143.174 329.352 143.659 328.057C144.144 326.762 128.937 277.375 128.937 277.375Z" fill="black"/>
</g>
<path d="M132.982 386.673H208.856L207.561 374.853C207.561 374.853 198.825 329.676 198.987 329.19L200.281 326.276C203.841 318.665 204.002 310.083 200.605 302.473L237.814 289.681L228.754 259.078C211.929 261.992 186.368 265.069 186.368 265.069L182.648 265.393C182.648 265.393 156.278 266.688 155.792 266.85C144.792 268.145 132.011 268.955 127.319 280.775C124.893 287.09 127.158 296.482 131.202 306.359L140.909 336.315C144.792 352.831 138.644 352.022 135.247 368.538C134.761 370.967 132.82 384.406 132.982 386.673Z" fill="#4AA9C7"/>
<g opacity="0.3">
<path opacity="0.3" d="M132.982 386.673H208.856L207.561 374.853C207.561 374.853 198.825 329.676 198.987 329.19L200.281 326.276C203.841 318.665 204.002 310.083 200.605 302.473L237.814 289.681L228.754 259.078C211.929 261.992 186.368 265.069 186.368 265.069L182.648 265.393C182.648 265.393 156.278 266.688 155.792 266.85C144.792 268.145 132.011 268.955 127.319 280.775C124.893 287.09 127.158 296.482 131.202 306.359L140.909 336.315C144.792 352.831 138.644 352.022 135.247 368.538C134.761 370.967 132.82 384.406 132.982 386.673Z" fill="black"/>
</g>
<path d="M237.49 290.167C237.49 290.167 236.843 290.491 235.873 290.815C234.74 291.138 233.284 291.786 231.343 292.434C227.46 293.729 222.121 295.51 216.136 297.453C210.15 299.396 204.811 301.178 201.09 302.797C199.149 303.606 197.693 304.254 196.561 304.74C195.59 305.226 194.943 305.388 194.943 305.388C194.943 305.388 195.428 305.064 196.399 304.416C197.369 303.93 198.825 303.121 200.767 302.311C204.488 300.53 209.826 298.587 215.812 296.644C221.798 294.701 227.137 293.081 231.181 291.948C233.122 291.3 234.74 290.976 235.873 290.653C236.843 290.167 237.49 290.005 237.49 290.167Z" fill="#263238"/>
<path d="M232.961 273.813C232.961 273.975 210.473 274.298 182.809 274.298C155.145 274.298 132.658 274.136 132.658 273.813C132.658 273.489 155.145 273.327 182.809 273.327C210.635 273.327 232.961 273.651 232.961 273.813Z" fill="#FAFAFA" fill-opacity="0.5"/>
<path d="M235.387 288.71C235.387 288.871 210.473 289.195 179.574 289.195C148.836 289.195 123.76 289.033 123.76 288.71C123.76 288.386 148.836 288.224 179.574 288.224C210.473 288.224 235.387 288.548 235.387 288.71Z" fill="#FAFAFA" fill-opacity="0.5"/>
<path d="M130.07 305.711C130.07 305.873 127.966 306.197 125.378 306.197C122.79 306.197 120.686 306.035 120.686 305.711C120.686 305.55 122.79 305.226 125.378 305.226C127.966 305.226 130.07 305.388 130.07 305.711Z" fill="#FAFAFA" fill-opacity="0.5"/>
<path d="M203.032 306.197C203.032 306.359 186.692 306.683 166.632 306.683C146.571 306.683 130.231 306.521 130.231 306.197C130.231 305.873 146.571 305.711 166.632 305.711C186.692 305.711 203.032 306.035 203.032 306.197Z" fill="#FAFAFA" fill-opacity="0.5"/>
<path d="M201.414 323.685C201.414 323.847 186.692 324.171 168.735 324.171C150.615 324.171 136.055 324.009 136.055 323.685C136.055 323.523 150.777 323.199 168.735 323.199C186.692 323.199 201.414 323.523 201.414 323.685Z" fill="#FAFAFA" fill-opacity="0.5"/>
<path d="M200.928 339.877C200.928 340.039 187.663 340.363 171.323 340.363C154.983 340.363 141.718 340.201 141.718 339.877C141.718 339.715 154.983 339.392 171.323 339.392C187.663 339.392 200.928 339.715 200.928 339.877Z" fill="#FAFAFA" fill-opacity="0.5"/>
<path d="M203.517 352.993C203.517 353.155 189.28 353.479 171.808 353.479C154.336 353.479 140.1 353.317 140.1 352.993C140.1 352.831 154.336 352.507 171.808 352.507C189.28 352.507 203.517 352.831 203.517 352.993Z" fill="#FAFAFA" fill-opacity="0.5"/>
<path d="M207.561 369.671C207.561 369.833 191.384 370.157 171.485 370.157C151.586 370.157 135.408 369.995 135.408 369.671C135.408 369.509 151.586 369.185 171.485 369.185C191.384 369.347 207.561 369.509 207.561 369.671Z" fill="#FAFAFA" fill-opacity="0.5"/>
<path d="M140.424 334.696C140.424 334.696 140.1 334.21 139.776 333.239C139.291 332.105 138.806 330.648 138.159 329.028C136.864 325.466 134.923 320.77 132.982 315.265C131.04 309.922 129.423 304.902 128.452 301.34C127.967 299.558 127.643 298.101 127.319 296.968C127.158 295.996 126.996 295.348 126.996 295.348C127.158 295.348 127.805 297.615 128.937 301.178C130.07 304.74 131.849 309.598 133.791 314.941C135.732 320.285 137.512 325.142 138.806 328.705C139.453 330.486 139.938 331.943 140.1 332.915C140.424 334.21 140.585 334.696 140.424 334.696Z" fill="#263238"/>
</svg>
