<svg width="18" height="18" viewBox="0 0 18 18" fill="none" xmlns="http://www.w3.org/2000/svg">
<g id=" copy">
<path id="Icon" fill-rule="evenodd" clip-rule="evenodd" d="M6.75 9.75V9C6.75 7.7595 7.7595 6.75 9 6.75H9.75V4.25025C9.75 3.97425 9.52575 3.75 9.24975 3.75H4.25025C3.97425 3.75 3.75 3.97425 3.75 4.25025V9.24975C3.75 9.52575 3.97425 9.75 4.25025 9.75H6.75ZM6.75 11.25H4.25025C3.147 11.25 2.25 10.353 2.25 9.24975V4.25025C2.25 3.147 3.147 2.25 4.25025 2.25H9.24975C10.353 2.25 11.25 3.147 11.25 4.25025V6.75H13.5C14.7405 6.75 15.75 7.7595 15.75 9V13.5C15.75 14.7405 14.7405 15.75 13.5 15.75H9C7.7595 15.75 6.75 14.7405 6.75 13.5V11.25ZM8.25 9C8.25 8.58675 8.58675 8.25 9 8.25H13.5C13.914 8.25 14.25 8.58675 14.25 9V13.5C14.25 13.9132 13.914 14.25 13.5 14.25H9C8.58675 14.25 8.25 13.9132 8.25 13.5V9Z" fill="#8D94AC"/>
</g>
</svg>
