<svg width="18" height="18" viewBox="0 0 18 18" fill="none" xmlns="http://www.w3.org/2000/svg">
<g id=" edit">
<path id="Icon" fill-rule="evenodd" clip-rule="evenodd" d="M12.0142 8.00902L9.99292 5.98777L11.4539 4.52602L13.4744 6.54652L12.0142 8.00902ZM6.80992 13.2185L4.57717 13.4218L4.77517 11.2048L8.98792 6.99202L11.0099 9.01403L6.80992 13.2185ZM14.5529 5.50328L14.5522 5.50253L12.4987 3.44903C11.9429 2.89478 10.9882 2.86853 10.4617 3.39728L3.71467 10.1443C3.47017 10.388 3.31867 10.712 3.28717 11.0548L3.00292 14.1823C2.98342 14.4035 3.06217 14.6225 3.21967 14.78C3.36142 14.9218 3.55267 14.9998 3.74992 14.9998C3.77317 14.9998 3.79567 14.999 3.81817 14.9968L6.94567 14.7125C7.28917 14.681 7.61242 14.5303 7.85617 14.2865L14.6039 7.53878C15.1499 6.99128 15.1267 6.07778 14.5529 5.50328Z" fill="#8D94AC"/>
</g>
</svg>
