<svg width="64" height="64" viewBox="0 0 64 64" fill="none" xmlns="http://www.w3.org/2000/svg">
<g id=" file">
<path id="Icon" fill-rule="evenodd" clip-rule="evenodd" d="M46.5181 53.3334H17.4808C16.6648 53.3334 16.0008 52.736 16.0008 52V12C16.0008 11.264 16.6648 10.6667 17.4808 10.6667H29.3341V21.7334C29.3341 25.9254 32.5795 29.3334 36.5715 29.3334H48.0008V52C48.0008 52.736 47.3341 53.3334 46.5181 53.3334ZM47.0648 24H36.5715C35.5208 24 34.6675 22.984 34.6675 21.7334V10.6667H34.9661L47.0648 24ZM52.6408 22.208L38.1235 6.20804C37.6195 5.65071 36.9021 5.33337 36.1475 5.33337H17.4808C13.7235 5.33337 10.6675 8.32537 10.6675 12V52C10.6675 55.6747 13.7235 58.6667 17.4808 58.6667H46.5182C50.2755 58.6667 53.3341 55.6747 53.3341 52V24C53.3341 23.336 53.0861 22.6987 52.6408 22.208Z" fill="#777777"/>
</g>
</svg>
