<svg width="18" height="18" viewBox="0 0 18 18" fill="none" xmlns="http://www.w3.org/2000/svg">
<g id=" flip-2">
<path id="Icon" fill-rule="evenodd" clip-rule="evenodd" d="M5.40544 7.28025C5.11219 7.5735 4.63819 7.5735 4.34494 7.28025L2.09494 5.03025C1.80169 4.737 1.80169 4.263 2.09494 3.96975L4.34494 1.71975C4.49119 1.5735 4.68319 1.5 4.87519 1.5C5.06719 1.5 5.25919 1.5735 5.40544 1.71975C5.69869 2.013 5.69869 2.487 5.40544 2.78025L4.43569 3.75H13.4327C14.9177 3.75 16.1252 4.93725 16.1252 6.39675V8.25C16.1252 8.66475 15.7899 9 15.3752 9C14.9604 9 14.6252 8.66475 14.6252 8.25V6.39675C14.6252 5.7645 14.0904 5.25 13.4327 5.25H4.43569L5.40544 6.21975C5.69869 6.513 5.69869 6.987 5.40544 7.28025ZM13.5646 14.25H4.56755C3.0833 14.25 1.87505 13.0627 1.87505 11.6032L1.87505 9.75C1.87505 9.33525 2.2103 9 2.62505 9C3.0398 9 3.37505 9.33525 3.37505 9.75L3.37505 11.6032C3.37505 12.2347 3.9098 12.75 4.56755 12.75H13.5646L12.5948 11.7802C12.3023 11.487 12.3023 11.013 12.5948 10.7197C12.741 10.5735 12.9331 10.5 13.125 10.5C13.317 10.5 13.509 10.5735 13.6553 10.7197L15.9053 12.9697C16.1986 13.263 16.1986 13.737 15.9053 14.0302L13.6553 16.2802C13.3628 16.5735 12.8881 16.5735 12.5948 16.2802C12.3023 15.987 12.3023 15.513 12.5948 15.2197L13.5646 14.25Z" fill="#8D94AC"/>
</g>
</svg>
