<svg width="18" height="18" viewBox="0 0 18 18" fill="none" xmlns="http://www.w3.org/2000/svg">
<path d="M10.6875 11.8125H7.3125C6.86495 11.8125 6.43572 11.9903 6.11926 12.3068C5.80279 12.6232 5.625 13.0524 5.625 13.5V14.625H6.75V13.5C6.75 13.3508 6.80926 13.2077 6.91475 13.1023C7.02024 12.9968 7.16332 12.9375 7.3125 12.9375H10.6875C10.8367 12.9375 10.9798 12.9968 11.0852 13.1023C11.1907 13.2077 11.25 13.3508 11.25 13.5V14.625H12.375V13.5C12.375 13.0524 12.1972 12.6232 11.8807 12.3068C11.5643 11.9903 11.1351 11.8125 10.6875 11.8125ZM9 11.25C9.44501 11.25 9.88002 11.118 10.25 10.8708C10.62 10.6236 10.9084 10.2722 11.0787 9.86104C11.249 9.4499 11.2936 8.99751 11.2068 8.56105C11.12 8.12459 10.9057 7.72368 10.591 7.40901C10.2763 7.09434 9.87541 6.88005 9.43895 6.79323C9.0025 6.70642 8.5501 6.75097 8.13896 6.92127C7.72783 7.09157 7.37643 7.37996 7.12919 7.74997C6.88196 8.11998 6.75 8.55499 6.75 9C6.75 9.59674 6.98705 10.169 7.40901 10.591C7.83097 11.0129 8.40326 11.25 9 11.25ZM9 7.875C9.2225 7.875 9.44001 7.94098 9.62502 8.0646C9.81002 8.18821 9.95422 8.36392 10.0394 8.56948C10.1245 8.77505 10.1468 9.00125 10.1034 9.21948C10.06 9.43771 9.95283 9.63816 9.7955 9.7955C9.63816 9.95283 9.43771 10.06 9.21948 10.1034C9.00125 10.1468 8.77505 10.1245 8.56948 10.0394C8.36391 9.95422 8.18821 9.81002 8.0646 9.62502C7.94098 9.44001 7.875 9.22251 7.875 9C7.875 8.70163 7.99353 8.41548 8.2045 8.20451C8.41548 7.99353 8.70163 7.875 9 7.875Z" fill="white"/>
<path d="M14.0625 2.8125H12.375V2.25C12.375 1.95163 12.2565 1.66548 12.0455 1.4545C11.8345 1.24353 11.5484 1.125 11.25 1.125H6.75C6.45163 1.125 6.16548 1.24353 5.9545 1.4545C5.74353 1.66548 5.625 1.95163 5.625 2.25V2.8125H3.9375C3.63913 2.8125 3.35298 2.93103 3.142 3.142C2.93103 3.35298 2.8125 3.63913 2.8125 3.9375V15.75C2.8125 16.0484 2.93103 16.3345 3.142 16.5455C3.35298 16.7565 3.63913 16.875 3.9375 16.875H14.0625C14.3609 16.875 14.647 16.7565 14.858 16.5455C15.069 16.3345 15.1875 16.0484 15.1875 15.75V3.9375C15.1875 3.63913 15.069 3.35298 14.858 3.142C14.647 2.93103 14.3609 2.8125 14.0625 2.8125ZM6.75 2.25H11.25V4.5H6.75V2.25ZM14.0625 15.75H3.9375V3.9375H5.625V5.625H12.375V3.9375H14.0625V15.75Z" fill="white"/>
</svg>
